<svg width="1494" height="467" viewBox="0 0 1494 467" fill="none" xmlns="http://www.w3.org/2000/svg">
<g clip-path="url(#clip0_1_2488)">
<rect x="0.333008" y="0.333008" width="1493.33" height="466.667" rx="28" fill="#153C3B"/>
<mask id="mask0_1_2488" style="mask-type:alpha" maskUnits="userSpaceOnUse" x="-76" y="-1" width="1647" height="468">
<rect x="-75.1671" y="-0.000244141" width="1646.17" height="466.667" fill="url(#paint0_radial_1_2488)"/>
</mask>
<g mask="url(#mask0_1_2488)">
<rect x="-74.2303" y="0.936534" width="185.482" height="185.482" stroke="white" stroke-opacity="0.15" stroke-width="1.87356" stroke-dasharray="18.74 18.74"/>
<rect x="113.125" y="0.936534" width="185.482" height="185.482" stroke="white" stroke-opacity="0.15" stroke-width="1.87356" stroke-dasharray="18.74 18.74"/>
<rect x="300.481" y="0.936534" width="185.482" height="185.482" stroke="white" stroke-opacity="0.15" stroke-width="1.87356" stroke-dasharray="18.74 18.74"/>
<rect x="487.836" y="0.936534" width="185.482" height="185.482" stroke="white" stroke-opacity="0.15" stroke-width="1.87356" stroke-dasharray="18.74 18.74"/>
<rect x="675.192" y="0.936534" width="185.482" height="185.482" stroke="white" stroke-opacity="0.15" stroke-width="1.87356" stroke-dasharray="18.74 18.74"/>
<rect x="862.548" y="0.936534" width="185.482" height="185.482" stroke="white" stroke-opacity="0.15" stroke-width="1.87356" stroke-dasharray="18.74 18.74"/>
<rect x="1049.9" y="0.936534" width="185.482" height="185.482" stroke="white" stroke-opacity="0.15" stroke-width="1.87356" stroke-dasharray="18.74 18.74"/>
<rect x="1237.26" y="0.936534" width="185.482" height="185.482" stroke="white" stroke-opacity="0.15" stroke-width="1.87356" stroke-dasharray="18.74 18.74"/>
<rect x="1424.61" y="0.936534" width="185.482" height="185.482" stroke="white" stroke-opacity="0.15" stroke-width="1.87356" stroke-dasharray="18.74 18.74"/>
<rect x="-74.2303" y="188.292" width="185.482" height="185.482" stroke="white" stroke-opacity="0.15" stroke-width="1.87356" stroke-dasharray="18.74 18.74"/>
<rect x="113.125" y="188.292" width="185.482" height="185.482" stroke="white" stroke-opacity="0.15" stroke-width="1.87356" stroke-dasharray="18.74 18.74"/>
<rect x="300.481" y="188.292" width="185.482" height="185.482" stroke="white" stroke-opacity="0.15" stroke-width="1.87356" stroke-dasharray="18.74 18.74"/>
<rect x="487.836" y="188.292" width="185.482" height="185.482" stroke="white" stroke-opacity="0.15" stroke-width="1.87356" stroke-dasharray="18.74 18.74"/>
<rect x="675.192" y="188.292" width="185.482" height="185.482" stroke="white" stroke-opacity="0.15" stroke-width="1.87356" stroke-dasharray="18.74 18.74"/>
<rect x="862.548" y="188.292" width="185.482" height="185.482" stroke="white" stroke-opacity="0.15" stroke-width="1.87356" stroke-dasharray="18.74 18.74"/>
<rect x="1049.9" y="188.292" width="185.482" height="185.482" stroke="white" stroke-opacity="0.15" stroke-width="1.87356" stroke-dasharray="18.74 18.74"/>
<rect x="1237.26" y="188.292" width="185.482" height="185.482" stroke="white" stroke-opacity="0.15" stroke-width="1.87356" stroke-dasharray="18.74 18.74"/>
<rect x="1424.61" y="188.292" width="185.482" height="185.482" stroke="white" stroke-opacity="0.15" stroke-width="1.87356" stroke-dasharray="18.74 18.74"/>
<rect x="-74.2303" y="375.648" width="185.482" height="185.482" stroke="white" stroke-opacity="0.15" stroke-width="1.87356" stroke-dasharray="18.74 18.74"/>
<rect x="113.125" y="375.648" width="185.482" height="185.482" stroke="white" stroke-opacity="0.15" stroke-width="1.87356" stroke-dasharray="18.74 18.74"/>
<rect x="300.481" y="375.648" width="185.482" height="185.482" stroke="white" stroke-opacity="0.15" stroke-width="1.87356" stroke-dasharray="18.74 18.74"/>
<rect x="487.836" y="375.648" width="185.482" height="185.482" stroke="white" stroke-opacity="0.15" stroke-width="1.87356" stroke-dasharray="18.74 18.74"/>
<rect x="675.192" y="375.648" width="185.482" height="185.482" stroke="white" stroke-opacity="0.15" stroke-width="1.87356" stroke-dasharray="18.74 18.74"/>
<rect x="862.548" y="375.648" width="185.482" height="185.482" stroke="white" stroke-opacity="0.15" stroke-width="1.87356" stroke-dasharray="18.74 18.74"/>
<rect x="1049.9" y="375.648" width="185.482" height="185.482" stroke="white" stroke-opacity="0.15" stroke-width="1.87356" stroke-dasharray="18.74 18.74"/>
<rect x="1237.26" y="375.648" width="185.482" height="185.482" stroke="white" stroke-opacity="0.15" stroke-width="1.87356" stroke-dasharray="18.74 18.74"/>
<rect x="1424.61" y="375.648" width="185.482" height="185.482" stroke="white" stroke-opacity="0.15" stroke-width="1.87356" stroke-dasharray="18.74 18.74"/>
</g>
<rect x="29.9435" y="68.8855" width="208.833" height="208.833" rx="104.417" transform="rotate(-10.7471 29.9435 68.8855)" fill="#216463"/>
<rect x="29.9435" y="68.8855" width="208.833" height="208.833" rx="104.417" transform="rotate(-10.7471 29.9435 68.8855)" stroke="#71D7D4" stroke-width="1.16667"/>
<path d="M102.861 123.531C105.41 123.048 107.828 123.225 110.116 124.064C112.399 124.885 114.348 126.244 115.962 128.141C117.577 130.039 118.643 132.354 119.162 135.086L121.553 147.686C122.103 150.583 121.98 153.238 121.184 155.65C120.402 158.04 119.054 160.044 117.138 161.662C115.24 163.276 112.898 164.348 110.11 164.877C108.019 165.274 105.982 165.252 103.999 164.811C102.015 164.371 100.197 163.5 98.5437 162.199L102.033 157.461C102.97 158.29 104.062 158.89 105.311 159.261C106.559 159.632 107.816 159.698 109.081 159.458C110.714 159.148 112.078 158.48 113.176 157.455C114.291 156.426 115.078 155.213 115.534 153.815C115.991 152.418 116.082 150.994 115.807 149.546L114.429 142.283L115.824 143.329C114.969 145.031 113.78 146.472 112.256 147.655C110.732 148.837 109.008 149.611 107.082 149.976C104.606 150.446 102.298 150.295 100.156 149.524C98.015 148.752 96.1987 147.491 94.7075 145.741C93.2164 143.991 92.2359 141.879 91.7659 139.403C91.296 136.927 91.4949 134.571 92.3626 132.336C93.2302 130.1 94.5779 128.191 96.4056 126.609C98.2334 125.027 100.385 124.001 102.861 123.531ZM103.916 129.088C102.485 129.36 101.24 129.957 100.18 130.88C99.1354 131.782 98.3759 132.885 97.9017 134.191C97.4276 135.497 97.3263 136.865 97.5978 138.296C97.8693 139.726 98.4667 140.971 99.3898 142.031C100.309 143.073 101.422 143.83 102.728 144.305C104.034 144.779 105.402 144.88 106.833 144.608C108.263 144.337 109.499 143.741 110.541 142.822C111.582 141.902 112.34 140.789 112.814 139.483C113.285 138.159 113.384 136.782 113.113 135.351C112.845 133.939 112.251 132.712 111.331 131.671C110.43 130.626 109.326 129.866 108.02 129.392C106.714 128.918 105.346 128.817 103.916 129.088ZM137.032 117.046C139.581 116.562 141.999 116.739 144.287 117.578C146.57 118.399 148.519 119.758 150.134 121.655C151.748 123.553 152.814 125.868 153.333 128.601L155.724 141.2C156.274 144.097 156.151 146.752 155.355 149.164C154.574 151.555 153.225 153.559 151.309 155.176C149.411 156.79 147.069 157.862 144.281 158.391C142.19 158.788 140.153 158.766 138.17 158.326C136.186 157.885 134.368 157.014 132.715 155.713L136.205 150.975C137.141 151.804 138.233 152.405 139.482 152.776C140.73 153.147 141.987 153.212 143.253 152.972C144.885 152.662 146.25 151.995 147.347 150.969C148.463 149.94 149.249 148.727 149.706 147.33C150.162 145.932 150.253 144.509 149.978 143.06L148.6 135.798L149.995 136.844C149.14 138.545 147.951 139.987 146.427 141.169C144.904 142.351 143.179 143.125 141.253 143.49C138.778 143.96 136.469 143.809 134.328 143.038C132.186 142.266 130.37 141.006 128.879 139.256C127.388 137.506 126.407 135.393 125.937 132.917C125.467 130.441 125.666 128.085 126.534 125.85C127.401 123.614 128.749 121.705 130.577 120.123C132.405 118.541 134.556 117.516 137.032 117.046ZM138.087 122.602C136.656 122.874 135.411 123.471 134.351 124.394C133.307 125.296 132.547 126.399 132.073 127.705C131.599 129.011 131.498 130.38 131.769 131.81C132.041 133.241 132.638 134.486 133.561 135.545C134.481 136.587 135.593 137.345 136.899 137.819C138.205 138.293 139.574 138.394 141.004 138.123C142.435 137.851 143.671 137.256 144.712 136.336C145.753 135.416 146.511 134.303 146.985 132.997C147.456 131.673 147.556 130.296 147.284 128.865C147.016 127.453 146.422 126.226 145.502 125.185C144.601 124.14 143.497 123.38 142.192 122.906C140.886 122.432 139.517 122.331 138.087 122.602ZM170.951 152.474L166.369 149.354L195.37 106.799L199.957 109.947L170.951 152.474ZM198.644 148.073C196.828 148.417 195.085 148.292 193.414 147.698C191.758 147.081 190.34 146.115 189.159 144.8C187.975 143.467 187.209 141.883 186.861 140.049C186.52 138.252 186.665 136.515 187.297 134.837C187.928 133.159 188.911 131.728 190.244 130.544C191.577 129.36 193.124 128.601 194.885 128.266C196.7 127.922 198.445 128.056 200.119 128.669C201.79 129.264 203.209 130.23 204.374 131.567C205.555 132.882 206.319 134.456 206.667 136.29C207.015 138.124 206.883 139.878 206.27 141.552C205.671 143.205 204.706 144.623 203.372 145.807C202.036 146.973 200.459 147.728 198.644 148.073ZM197.699 143.094C198.597 142.923 199.372 142.548 200.022 141.969C200.687 141.368 201.168 140.649 201.465 139.814C201.781 138.975 201.855 138.115 201.688 137.235C201.521 136.355 201.137 135.582 200.536 134.917C199.953 134.249 199.244 133.766 198.408 133.469C197.588 133.149 196.728 133.075 195.83 133.246C194.949 133.413 194.177 133.797 193.512 134.398C192.862 134.977 192.379 135.687 192.063 136.525C191.766 137.361 191.701 138.219 191.868 139.099C192.035 139.979 192.41 140.754 192.993 141.422C193.594 142.087 194.305 142.579 195.125 142.898C195.961 143.196 196.819 143.261 197.699 143.094ZM171.436 131.007C169.621 131.352 167.877 131.227 166.207 130.632C164.532 130.018 163.105 129.054 161.924 127.74C160.758 126.403 160.002 124.817 159.653 122.984C159.312 121.186 159.458 119.449 160.089 117.771C160.721 116.093 161.703 114.662 163.036 113.478C164.369 112.294 165.916 111.535 167.677 111.201C169.493 110.856 171.228 110.992 172.884 111.609C174.555 112.204 175.983 113.168 177.167 114.501C178.347 115.816 179.112 117.39 179.46 119.224C179.808 121.058 179.675 122.812 179.062 124.487C178.445 126.143 177.471 127.563 176.137 128.747C174.819 129.909 173.252 130.662 171.436 131.007ZM170.491 126.028C171.372 125.861 172.146 125.486 172.814 124.903C173.479 124.302 173.96 123.584 174.258 122.748C174.573 121.909 174.648 121.05 174.481 120.169C174.314 119.289 173.929 118.516 173.328 117.852C172.745 117.183 172.036 116.7 171.201 116.403C170.362 116.087 169.502 116.013 168.622 116.18C167.742 116.347 166.969 116.731 166.304 117.332C165.654 117.912 165.171 118.621 164.856 119.46C164.54 120.299 164.465 121.158 164.633 122.038C164.8 122.919 165.184 123.691 165.785 124.356C166.386 125.021 167.097 125.513 167.918 125.832C168.735 126.133 169.593 126.199 170.491 126.028Z" fill="white"/>
<path d="M109.66 208.196C108.622 208.393 107.654 208.398 106.756 208.212C105.865 208.018 105.086 207.653 104.422 207.117C103.764 206.579 103.269 205.885 102.937 205.036L104.435 204.485C104.865 205.401 105.532 206.058 106.434 206.457C107.335 206.849 108.339 206.939 109.446 206.729C110.175 206.591 110.807 206.353 111.341 206.017C111.875 205.673 112.266 205.257 112.515 204.768C112.764 204.279 112.833 203.742 112.723 203.158C112.649 202.773 112.519 202.459 112.33 202.217C112.14 201.968 111.915 201.775 111.654 201.64C111.393 201.504 111.118 201.403 110.827 201.337C110.536 201.264 110.255 201.214 109.987 201.187L106.008 200.777C105.529 200.733 105.078 200.647 104.655 200.521C104.231 200.388 103.848 200.207 103.505 199.98C103.169 199.745 102.885 199.45 102.653 199.095C102.422 198.739 102.259 198.314 102.165 197.819C102.006 196.98 102.088 196.213 102.412 195.517C102.736 194.822 103.249 194.236 103.949 193.761C104.65 193.286 105.489 192.96 106.467 192.781C107.458 192.593 108.375 192.601 109.218 192.804C110.069 193.006 110.811 193.385 111.444 193.942C112.075 194.492 112.558 195.195 112.891 196.051L111.357 196.641C111.132 196.014 110.788 195.499 110.326 195.095C109.865 194.691 109.321 194.416 108.695 194.271C108.075 194.118 107.42 194.104 106.731 194.227C106.064 194.354 105.491 194.58 105.011 194.906C104.537 195.224 104.185 195.605 103.956 196.047C103.726 196.49 103.659 196.959 103.753 197.454C103.848 197.956 104.062 198.332 104.394 198.582C104.734 198.832 105.123 199.004 105.561 199.098C106.006 199.192 106.432 199.257 106.838 199.294L109.909 199.598C110.228 199.623 110.605 199.677 111.041 199.758C111.482 199.831 111.923 199.975 112.362 200.191C112.808 200.398 113.202 200.708 113.544 201.121C113.886 201.533 114.124 202.094 114.258 202.802C114.389 203.49 114.368 204.131 114.196 204.727C114.031 205.321 113.736 205.851 113.311 206.316C112.894 206.78 112.373 207.171 111.749 207.489C111.134 207.813 110.437 208.048 109.66 208.196ZM120.403 206.156C119.564 206.316 118.831 206.298 118.202 206.104C117.581 205.908 117.082 205.586 116.705 205.138C116.327 204.689 116.083 204.169 115.97 203.578C115.855 202.973 115.878 202.434 116.038 201.962C116.203 201.482 116.469 201.064 116.837 200.71C117.211 200.354 117.663 200.05 118.192 199.8C118.73 199.556 119.33 199.317 119.991 199.085C120.658 198.844 121.311 198.624 121.95 198.425C122.594 198.217 123.157 198.028 123.638 197.858L123.164 198.29C122.976 197.186 122.608 196.411 122.06 195.967C121.513 195.522 120.685 195.405 119.578 195.615C118.815 195.76 118.201 196.054 117.737 196.499C117.279 196.942 117.014 197.555 116.942 198.338L115.385 198.185C115.45 197.14 115.816 196.269 116.481 195.572C117.147 194.876 118.096 194.411 119.327 194.177C120.344 193.984 121.244 194.013 122.026 194.263C122.813 194.506 123.422 194.96 123.855 195.626C124.054 195.923 124.212 196.267 124.329 196.658C124.446 197.049 124.544 197.451 124.622 197.864L125.936 204.786L124.584 205.042L124.054 202.247L124.477 202.337C124.28 203.365 123.831 204.206 123.128 204.859C122.426 205.513 121.517 205.945 120.403 206.156ZM120.33 204.813C121.038 204.679 121.633 204.434 122.114 204.079C122.596 203.724 122.956 203.296 123.196 202.794C123.434 202.286 123.549 201.744 123.539 201.169C123.554 200.795 123.524 200.395 123.45 199.967C123.375 199.533 123.317 199.209 123.276 198.996L123.911 199.185C123.408 199.352 122.861 199.527 122.269 199.711C121.683 199.893 121.107 200.084 120.539 200.285C119.979 200.484 119.476 200.69 119.032 200.902C118.733 201.052 118.451 201.237 118.186 201.458C117.921 201.672 117.717 201.932 117.575 202.237C117.441 202.54 117.411 202.891 117.487 203.29C117.548 203.613 117.687 203.911 117.902 204.184C118.125 204.455 118.434 204.656 118.829 204.788C119.231 204.918 119.732 204.927 120.33 204.813ZM134.687 203.125C134.086 203.374 133.477 203.543 132.86 203.632C132.249 203.719 131.681 203.692 131.155 203.549C130.636 203.406 130.206 203.11 129.865 202.661C129.587 202.287 129.398 201.891 129.298 201.476C129.203 201.052 129.104 200.569 129.001 200.025L127.064 189.823L128.57 189.537L130.495 199.677C130.584 200.145 130.662 200.536 130.729 200.852C130.801 201.158 130.926 201.42 131.102 201.636C131.437 202.049 131.881 202.25 132.435 202.238C132.995 202.224 133.661 202.076 134.434 201.794L134.687 203.125ZM125.516 194.67L125.269 193.37L132.572 191.984L132.819 193.283L125.516 194.67ZM134.572 189.413L134.249 187.711L135.766 187.423L136.089 189.125L134.572 189.413ZM137.088 202.669L134.974 191.528L136.49 191.24L138.605 202.381L137.088 202.669ZM145.911 201.304C144.605 201.552 143.475 201.475 142.522 201.071C141.576 200.667 140.911 199.98 140.528 199.013L142.027 198.461C142.312 199.063 142.783 199.497 143.439 199.764C144.101 200.023 144.865 200.071 145.732 199.906C146.578 199.746 147.211 199.444 147.633 199C148.053 198.55 148.206 198.019 148.089 197.407C148.024 197.063 147.892 196.799 147.694 196.616C147.5 196.425 147.149 196.281 146.639 196.186C146.13 196.09 145.379 196.005 144.389 195.929C143.326 195.846 142.483 195.721 141.86 195.554C141.237 195.387 140.771 195.148 140.462 194.836C140.152 194.517 139.948 194.096 139.849 193.574C139.729 192.941 139.802 192.353 140.07 191.811C140.336 191.262 140.761 190.796 141.344 190.415C141.926 190.027 142.636 189.753 143.475 189.594C144.314 189.434 145.09 189.43 145.802 189.58C146.52 189.721 147.128 189.998 147.627 190.409C148.125 190.82 148.474 191.342 148.672 191.974L147.178 192.546C146.95 191.912 146.526 191.459 145.904 191.185C145.287 190.903 144.558 190.834 143.717 190.98C142.922 191.109 142.308 191.383 141.874 191.8C141.439 192.21 141.271 192.68 141.372 193.21C141.428 193.506 141.566 193.743 141.785 193.922C142.003 194.095 142.363 194.229 142.866 194.326C143.376 194.422 144.089 194.497 145.004 194.551C146.078 194.618 146.935 194.74 147.574 194.918C148.214 195.096 148.694 195.358 149.016 195.703C149.338 196.048 149.554 196.509 149.664 197.087C149.864 198.139 149.629 199.042 148.96 199.796C148.296 200.542 147.28 201.045 145.911 201.304ZM153.641 199.527L151.37 187.561C151.315 187.272 151.274 186.984 151.248 186.697C151.229 186.408 151.244 186.128 151.292 185.855C151.338 185.575 151.444 185.306 151.609 185.047C151.788 184.756 152.002 184.53 152.249 184.369C152.495 184.202 152.76 184.073 153.042 183.984C153.331 183.893 153.617 183.821 153.899 183.768L155.322 183.498L155.565 184.777L154.245 185.027C153.667 185.137 153.26 185.36 153.025 185.697C152.797 186.033 152.74 186.503 152.855 187.108L155.157 199.239L153.641 199.527ZM149.844 190.052L149.597 188.752L156.086 187.521L156.333 188.821L149.844 190.052ZM162.795 198.11C161.956 198.27 161.222 198.252 160.594 198.058C159.973 197.862 159.473 197.54 159.096 197.092C158.719 196.643 158.474 196.123 158.362 195.532C158.247 194.927 158.269 194.388 158.429 193.916C158.595 193.436 158.861 193.018 159.228 192.663C159.602 192.307 160.054 192.004 160.584 191.754C161.122 191.51 161.721 191.271 162.383 191.039C163.049 190.798 163.702 190.578 164.341 190.378C164.986 190.171 165.549 189.982 166.029 189.812L165.556 190.244C165.367 189.14 164.999 188.365 164.452 187.921C163.904 187.476 163.077 187.359 161.97 187.569C161.206 187.714 160.593 188.008 160.128 188.453C159.671 188.896 159.406 189.509 159.334 190.292L157.776 190.139C157.842 189.093 158.207 188.222 158.873 187.526C159.539 186.83 160.487 186.365 161.718 186.131C162.736 185.938 163.636 185.967 164.417 186.217C165.204 186.46 165.814 186.914 166.247 187.58C166.446 187.877 166.604 188.221 166.721 188.612C166.838 189.003 166.935 189.405 167.014 189.818L168.327 196.74L166.976 196.996L166.445 194.201L166.869 194.291C166.672 195.319 166.222 196.16 165.52 196.813C164.817 197.467 163.909 197.899 162.795 198.11ZM162.722 196.767C163.43 196.633 164.025 196.388 164.506 196.033C164.987 195.678 165.348 195.25 165.588 194.748C165.826 194.24 165.94 193.698 165.931 193.123C165.946 192.749 165.916 192.349 165.842 191.921C165.766 191.487 165.709 191.163 165.668 190.95L166.303 191.139C165.8 191.306 165.252 191.481 164.66 191.665C164.075 191.847 163.499 192.038 162.931 192.239C162.37 192.438 161.868 192.643 161.424 192.856C161.124 193.005 160.842 193.191 160.578 193.412C160.312 193.626 160.109 193.886 159.967 194.191C159.832 194.494 159.803 194.845 159.878 195.244C159.94 195.567 160.078 195.865 160.294 196.138C160.516 196.409 160.825 196.61 161.221 196.742C161.623 196.872 162.123 196.881 162.722 196.767ZM175.693 195.662C174.572 195.875 173.575 195.804 172.703 195.45C171.831 195.095 171.108 194.516 170.535 193.713C169.968 192.901 169.568 191.923 169.337 190.777C169.129 189.605 169.147 188.54 169.393 187.581C169.637 186.616 170.101 185.815 170.786 185.18C171.469 184.537 172.364 184.11 173.471 183.9C174.599 183.686 175.631 183.775 176.568 184.168C177.511 184.558 178.229 185.203 178.72 186.1L177.324 186.856C176.936 186.239 176.422 185.802 175.782 185.546C175.148 185.281 174.466 185.218 173.737 185.357C172.919 185.512 172.277 185.83 171.813 186.31C171.347 186.783 171.046 187.378 170.912 188.095C170.777 188.811 170.788 189.604 170.946 190.471C171.213 191.803 171.726 192.817 172.485 193.514C173.243 194.204 174.22 194.435 175.417 194.208C176.174 194.064 176.784 193.77 177.248 193.326C177.718 192.873 178.027 192.287 178.176 191.568L179.789 191.732C179.564 192.801 179.102 193.672 178.404 194.346C177.704 195.013 176.8 195.452 175.693 195.662ZM188.503 192.91C187.902 193.16 187.292 193.329 186.675 193.418C186.065 193.505 185.497 193.477 184.971 193.335C184.452 193.191 184.022 192.895 183.68 192.447C183.402 192.072 183.213 191.677 183.113 191.261C183.018 190.838 182.92 190.354 182.816 189.811L180.88 179.609L182.386 179.323L184.311 189.463C184.4 189.931 184.477 190.322 184.544 190.637C184.617 190.944 184.741 191.205 184.918 191.421C185.253 191.835 185.697 192.036 186.25 192.023C186.81 192.01 187.477 191.862 188.25 191.58L188.503 192.91ZM179.331 184.455L179.084 183.156L186.388 181.769L186.635 183.069L179.331 184.455ZM188.388 179.199L188.065 177.497L189.581 177.209L189.904 178.911L188.388 179.199ZM190.904 192.455L188.789 181.314L190.306 181.026L192.42 192.167L190.904 192.455ZM200.224 191.006C199.117 191.216 198.124 191.145 197.244 190.792C196.365 190.438 195.632 189.858 195.044 189.05C194.456 188.243 194.053 187.265 193.835 186.116C193.613 184.947 193.632 183.882 193.891 182.921C194.15 181.96 194.626 181.161 195.317 180.523C196.014 179.878 196.905 179.452 197.992 179.246C199.106 179.035 200.103 179.106 200.982 179.459C201.867 179.804 202.6 180.381 203.181 181.19C203.768 181.99 204.17 182.965 204.388 184.113C204.61 185.283 204.595 186.35 204.344 187.317C204.092 188.277 203.617 189.08 202.92 189.725C202.223 190.37 201.325 190.797 200.224 191.006ZM199.948 189.552C201.186 189.317 202.03 188.733 202.48 187.799C202.928 186.859 203.028 185.732 202.779 184.419C202.523 183.071 202.013 182.056 201.25 181.375C200.493 180.692 199.499 180.467 198.268 180.701C197.436 180.859 196.784 181.178 196.313 181.66C195.847 182.133 195.543 182.728 195.401 183.446C195.265 184.156 195.28 184.944 195.444 185.811C195.699 187.152 196.212 188.17 196.985 188.864C197.757 189.551 198.745 189.78 199.948 189.552ZM215.769 187.735L214.69 182.051C214.573 181.432 214.407 180.876 214.192 180.382C213.976 179.882 213.7 179.464 213.366 179.128C213.037 178.785 212.646 178.545 212.193 178.41C211.747 178.274 211.231 178.262 210.647 178.373C210.11 178.474 209.654 178.657 209.276 178.921C208.906 179.184 208.613 179.517 208.397 179.922C208.187 180.318 208.057 180.777 208.007 181.3C207.956 181.822 207.991 182.4 208.111 183.033L206.994 182.999C206.777 181.857 206.794 180.86 207.046 180.007C207.297 179.154 207.736 178.462 208.361 177.93C208.987 177.398 209.754 177.046 210.662 176.874C211.329 176.747 211.929 176.74 212.464 176.852C213.005 176.963 213.481 177.161 213.891 177.447C214.308 177.731 214.667 178.08 214.966 178.493C215.264 178.9 215.51 179.348 215.703 179.839C215.894 180.323 216.038 180.816 216.133 181.318L217.296 187.445L215.769 187.735ZM207.712 189.264L205.598 178.123L206.97 177.863L207.491 180.607L207.645 180.577L209.239 188.975L207.712 189.264Z" fill="white"/>
<rect x="1204.12" y="60.784" width="255.241" height="255.241" rx="127.62" fill="#216463"/>
<rect x="1204.12" y="60.784" width="255.241" height="255.241" rx="127.62" stroke="#71D7D4" stroke-width="1.42593"/>
<path d="M1267.55 193.904V152.495L1258.28 158.142V150.168L1267.55 144.624H1274.84V193.904H1267.55ZM1305.02 194.931C1301.66 194.931 1298.7 194.201 1296.12 192.741C1293.54 191.258 1291.51 189.227 1290.03 186.649C1288.57 184.071 1287.84 181.105 1287.84 177.751V160.777C1287.84 157.423 1288.57 154.457 1290.03 151.879C1291.51 149.301 1293.54 147.282 1296.12 145.822C1298.7 144.339 1301.66 143.598 1305.02 143.598C1308.37 143.598 1311.34 144.339 1313.91 145.822C1316.49 147.282 1318.51 149.301 1319.97 151.879C1321.45 154.457 1322.19 157.423 1322.19 160.777V177.751C1322.19 181.105 1321.45 184.071 1319.97 186.649C1318.51 189.227 1316.49 191.258 1313.91 192.741C1311.34 194.201 1308.37 194.931 1305.02 194.931ZM1305.02 188.087C1306.84 188.087 1308.49 187.653 1309.98 186.786C1311.48 185.896 1312.68 184.71 1313.57 183.227C1314.46 181.721 1314.91 180.044 1314.91 178.196V160.264C1314.91 158.439 1314.46 156.785 1313.57 155.302C1312.68 153.796 1311.48 152.609 1309.98 151.743C1308.49 150.853 1306.84 150.408 1305.02 150.408C1303.19 150.408 1301.52 150.853 1300.02 151.743C1298.54 152.609 1297.35 153.796 1296.46 155.302C1295.57 156.785 1295.13 158.439 1295.13 160.264V178.196C1295.13 180.044 1295.57 181.721 1296.46 183.227C1297.35 184.71 1298.54 185.896 1300.02 186.786C1301.52 187.653 1303.19 188.087 1305.02 188.087ZM1331.75 193.904V144.624H1338.9V167.622L1359.54 144.624H1368.44L1346.64 168.683L1370.04 193.904H1360.87L1338.9 170.359V193.904H1331.75ZM1386.84 184.767V172.105H1374.18V166.355H1386.84V153.762H1392.59V166.355H1405.22V172.105H1392.59V184.767H1386.84Z" fill="white"/>
<path d="M1272.78 245.904V229.234H1266.32V227.424H1281.12V229.234H1274.67V245.904H1272.78ZM1286.91 246.289C1285.53 246.289 1284.36 245.977 1283.38 245.352C1282.41 244.728 1281.66 243.864 1281.14 242.76C1280.61 241.656 1280.35 240.39 1280.35 238.961C1280.35 237.507 1280.62 236.232 1281.15 235.137C1281.68 234.042 1282.43 233.191 1283.41 232.583C1284.39 231.967 1285.56 231.659 1286.91 231.659C1288.3 231.659 1289.48 231.972 1290.45 232.596C1291.44 233.212 1292.19 234.072 1292.7 235.176C1293.22 236.271 1293.48 237.533 1293.48 238.961C1293.48 240.416 1293.22 241.695 1292.7 242.799C1292.18 243.894 1291.42 244.749 1290.44 245.365C1289.46 245.981 1288.28 246.289 1286.91 246.289ZM1286.91 244.48C1288.45 244.48 1289.6 243.971 1290.35 242.953C1291.1 241.926 1291.48 240.596 1291.48 238.961C1291.48 237.285 1291.1 235.95 1290.34 234.957C1289.58 233.965 1288.44 233.469 1286.91 233.469C1285.88 233.469 1285.02 233.704 1284.34 234.175C1283.68 234.637 1283.18 235.283 1282.84 236.112C1282.52 236.934 1282.36 237.883 1282.36 238.961C1282.36 240.63 1282.74 241.969 1283.51 242.978C1284.28 243.979 1285.41 244.48 1286.91 244.48ZM1303.86 245.904C1303.08 246.067 1302.31 246.131 1301.55 246.097C1300.8 246.063 1300.12 245.9 1299.52 245.609C1298.93 245.318 1298.48 244.865 1298.17 244.249C1297.93 243.735 1297.79 243.218 1297.76 242.696C1297.75 242.166 1297.74 241.562 1297.74 240.886V228.194H1299.61V240.809C1299.61 241.391 1299.62 241.879 1299.62 242.272C1299.64 242.657 1299.73 243 1299.89 243.299C1300.2 243.872 1300.69 244.215 1301.36 244.326C1302.03 244.437 1302.87 244.411 1303.86 244.249V245.904ZM1294.77 233.661V232.044H1303.86V233.661H1294.77ZM1310.55 246.289C1309.51 246.289 1308.63 246.101 1307.92 245.725C1307.22 245.348 1306.7 244.848 1306.35 244.223C1305.99 243.599 1305.82 242.918 1305.82 242.183C1305.82 241.43 1305.97 240.788 1306.27 240.258C1306.58 239.719 1306.99 239.278 1307.51 238.936C1308.04 238.594 1308.66 238.333 1309.35 238.153C1310.05 237.982 1310.82 237.832 1311.67 237.704C1312.53 237.567 1313.36 237.451 1314.17 237.357C1315 237.255 1315.71 237.156 1316.33 237.062L1315.66 237.473C1315.69 236.104 1315.42 235.09 1314.87 234.431C1314.31 233.773 1313.34 233.443 1311.97 233.443C1311.02 233.443 1310.21 233.657 1309.55 234.085C1308.9 234.513 1308.45 235.188 1308.18 236.112L1306.35 235.573C1306.66 234.333 1307.3 233.37 1308.26 232.686C1309.22 232.002 1310.46 231.659 1311.99 231.659C1313.26 231.659 1314.33 231.899 1315.21 232.378C1316.1 232.849 1316.73 233.533 1317.1 234.431C1317.27 234.833 1317.38 235.283 1317.43 235.779C1317.48 236.275 1317.51 236.78 1317.51 237.293V245.904H1315.83V242.426L1316.32 242.632C1315.85 243.821 1315.12 244.728 1314.12 245.352C1313.13 245.977 1311.94 246.289 1310.55 246.289ZM1310.77 244.659C1311.65 244.659 1312.42 244.501 1313.08 244.185C1313.74 243.868 1314.27 243.436 1314.67 242.888C1315.08 242.332 1315.34 241.708 1315.46 241.015C1315.56 240.57 1315.62 240.082 1315.62 239.552C1315.63 239.013 1315.64 238.611 1315.64 238.345L1316.36 238.718C1315.71 238.803 1315.02 238.889 1314.26 238.974C1313.52 239.06 1312.78 239.158 1312.06 239.269C1311.34 239.381 1310.69 239.513 1310.11 239.667C1309.71 239.779 1309.33 239.937 1308.96 240.142C1308.6 240.339 1308.29 240.604 1308.05 240.938C1307.82 241.271 1307.71 241.686 1307.71 242.183C1307.71 242.585 1307.8 242.974 1308 243.35C1308.21 243.727 1308.53 244.039 1308.98 244.287C1309.43 244.535 1310.03 244.659 1310.77 244.659ZM1321.11 245.904V227.039H1322.99V245.904H1321.11ZM1336.9 245.904V229.234H1330.44V227.424H1345.24V229.234H1338.78V245.904H1336.9ZM1349.46 246.289C1348.41 246.289 1347.54 246.101 1346.83 245.725C1346.12 245.348 1345.6 244.848 1345.25 244.223C1344.9 243.599 1344.72 242.918 1344.72 242.183C1344.72 241.43 1344.87 240.788 1345.17 240.258C1345.48 239.719 1345.89 239.278 1346.41 238.936C1346.94 238.594 1347.56 238.333 1348.25 238.153C1348.95 237.982 1349.73 237.832 1350.57 237.704C1351.43 237.567 1352.26 237.451 1353.08 237.357C1353.9 237.255 1354.62 237.156 1355.23 237.062L1354.56 237.473C1354.59 236.104 1354.32 235.09 1353.77 234.431C1353.21 233.773 1352.25 233.443 1350.87 233.443C1349.92 233.443 1349.11 233.657 1348.46 234.085C1347.8 234.513 1347.35 235.188 1347.08 236.112L1345.25 235.573C1345.56 234.333 1346.2 233.37 1347.16 232.686C1348.12 232.002 1349.36 231.659 1350.89 231.659C1352.16 231.659 1353.23 231.899 1354.11 232.378C1355 232.849 1355.63 233.533 1356 234.431C1356.17 234.833 1356.28 235.283 1356.33 235.779C1356.39 236.275 1356.41 236.78 1356.41 237.293V245.904H1354.73V242.426L1355.22 242.632C1354.75 243.821 1354.02 244.728 1353.02 245.352C1352.03 245.977 1350.84 246.289 1349.46 246.289ZM1349.67 244.659C1350.56 244.659 1351.33 244.501 1351.98 244.185C1352.64 243.868 1353.17 243.436 1353.58 242.888C1353.98 242.332 1354.24 241.708 1354.36 241.015C1354.46 240.57 1354.52 240.082 1354.53 239.552C1354.53 239.013 1354.54 238.611 1354.54 238.345L1355.26 238.718C1354.62 238.803 1353.92 238.889 1353.16 238.974C1352.42 239.06 1351.68 239.158 1350.96 239.269C1350.24 239.381 1349.59 239.513 1349.01 239.667C1348.61 239.779 1348.23 239.937 1347.86 240.142C1347.5 240.339 1347.19 240.604 1346.95 240.938C1346.72 241.271 1346.61 241.686 1346.61 242.183C1346.61 242.585 1346.71 242.974 1346.9 243.35C1347.11 243.727 1347.43 244.039 1347.88 244.287C1348.33 244.535 1348.93 244.659 1349.67 244.659ZM1364.92 246.276C1363.3 246.276 1361.96 245.926 1360.91 245.224C1359.86 244.523 1359.22 243.547 1358.98 242.298L1360.91 241.977C1361.11 242.764 1361.58 243.393 1362.31 243.864C1363.04 244.326 1363.95 244.557 1365.03 244.557C1366.08 244.557 1366.91 244.339 1367.52 243.902C1368.12 243.457 1368.43 242.854 1368.43 242.093C1368.43 241.665 1368.33 241.319 1368.13 241.053C1367.94 240.78 1367.56 240.527 1366.96 240.296C1366.37 240.065 1365.49 239.791 1364.32 239.475C1363.06 239.133 1362.08 238.79 1361.37 238.448C1360.66 238.106 1360.15 237.712 1359.86 237.267C1359.56 236.814 1359.41 236.262 1359.41 235.612C1359.41 234.825 1359.63 234.136 1360.07 233.546C1360.52 232.947 1361.13 232.485 1361.92 232.16C1362.71 231.826 1363.62 231.659 1364.67 231.659C1365.71 231.659 1366.64 231.83 1367.47 232.173C1368.3 232.506 1368.96 232.977 1369.47 233.584C1369.97 234.192 1370.27 234.898 1370.37 235.702L1368.44 236.048C1368.31 235.236 1367.91 234.594 1367.22 234.123C1366.55 233.644 1365.69 233.396 1364.64 233.379C1363.66 233.353 1362.86 233.542 1362.24 233.944C1361.63 234.337 1361.32 234.863 1361.32 235.522C1361.32 235.89 1361.43 236.207 1361.65 236.472C1361.87 236.728 1362.28 236.972 1362.86 237.203C1363.45 237.434 1364.29 237.687 1365.37 237.96C1366.65 238.286 1367.65 238.628 1368.38 238.987C1369.1 239.346 1369.62 239.77 1369.93 240.258C1370.24 240.745 1370.39 241.348 1370.39 242.067C1370.39 243.376 1369.9 244.407 1368.93 245.16C1367.96 245.904 1366.63 246.276 1364.92 246.276ZM1373.22 245.904L1373.24 227.424H1375.14V238.718L1381.32 232.044H1383.84L1377.34 238.974L1384.68 245.904H1381.94L1375.14 239.231V245.904H1373.22ZM1390.89 246.276C1389.27 246.276 1387.93 245.926 1386.88 245.224C1385.83 244.523 1385.19 243.547 1384.95 242.298L1386.88 241.977C1387.08 242.764 1387.55 243.393 1388.27 243.864C1389.01 244.326 1389.92 244.557 1390.99 244.557C1392.05 244.557 1392.88 244.339 1393.48 243.902C1394.09 243.457 1394.4 242.854 1394.4 242.093C1394.4 241.665 1394.3 241.319 1394.1 241.053C1393.91 240.78 1393.52 240.527 1392.93 240.296C1392.34 240.065 1391.46 239.791 1390.29 239.475C1389.03 239.133 1388.05 238.79 1387.34 238.448C1386.63 238.106 1386.12 237.712 1385.82 237.267C1385.52 236.814 1385.37 236.262 1385.37 235.612C1385.37 234.825 1385.6 234.136 1386.04 233.546C1386.49 232.947 1387.1 232.485 1387.89 232.16C1388.68 231.826 1389.59 231.659 1390.64 231.659C1391.68 231.659 1392.61 231.83 1393.43 232.173C1394.26 232.506 1394.93 232.977 1395.43 233.584C1395.94 234.192 1396.24 234.898 1396.33 235.702L1394.41 236.048C1394.28 235.236 1393.87 234.594 1393.19 234.123C1392.51 233.644 1391.65 233.396 1390.61 233.379C1389.63 233.353 1388.83 233.542 1388.21 233.944C1387.59 234.337 1387.29 234.863 1387.29 235.522C1387.29 235.89 1387.4 236.207 1387.62 236.472C1387.84 236.728 1388.24 236.972 1388.83 237.203C1389.42 237.434 1390.25 237.687 1391.34 237.96C1392.62 238.286 1393.62 238.628 1394.34 238.987C1395.07 239.346 1395.59 239.77 1395.9 240.258C1396.2 240.745 1396.36 241.348 1396.36 242.067C1396.36 243.376 1395.87 244.407 1394.9 245.16C1393.93 245.904 1392.59 246.276 1390.89 246.276Z" fill="white"/>
<rect x="215.158" y="234.97" width="162.426" height="162.426" rx="81.213" transform="rotate(14.5678 215.158 234.97)" fill="#556E6D"/>
<rect x="215.158" y="234.97" width="162.426" height="162.426" rx="81.213" transform="rotate(14.5678 215.158 234.97)" stroke="#57CBC8" stroke-width="0.907407"/>
<path d="M230.064 326.349L231.104 322.434L247.398 314.022C248.711 313.359 249.668 312.647 250.271 311.889C250.887 311.134 251.306 310.328 251.529 309.471C251.81 308.389 251.823 307.357 251.568 306.376C251.317 305.38 250.835 304.52 250.124 303.795C249.412 303.07 248.508 302.565 247.412 302.28C246.288 301.988 245.214 301.994 244.19 302.298C243.184 302.592 242.321 303.11 241.603 303.853C240.885 304.597 240.401 305.476 240.153 306.492L235.642 305.319C236.153 303.352 237.043 301.746 238.312 300.5C239.598 299.245 241.129 298.405 242.904 297.981C244.683 297.543 246.577 297.586 248.587 298.108C250.498 298.605 252.099 299.486 253.39 300.751C254.685 302.003 255.573 303.494 256.053 305.224C256.548 306.957 256.545 308.786 256.044 310.712C255.683 312.103 255.193 313.236 254.576 314.11C253.959 314.985 253.177 315.742 252.231 316.381C251.285 317.02 250.138 317.682 248.79 318.367L236.222 324.821L236.066 323.43L251.684 327.489L250.594 331.684L230.064 326.349ZM267.678 336.146L269.053 330.855L255.352 327.295L256.437 323.122L271.729 304.797L276.767 306.106L261.474 324.431L270.137 326.682L272.273 318.462L276.742 319.623L274.606 327.843L277.62 328.627L276.535 332.8L273.521 332.017L272.146 337.307L267.678 336.146ZM295.781 311.048L300.228 312.203L284.246 340.452L279.799 339.296L295.781 311.048ZM299.421 344.395L316.884 321.01L303.373 317.499L304.463 313.304L322.716 318.048L321.626 322.242L304.184 345.633L299.421 344.395Z" fill="white"/>
<path d="M239.54 363.183C238.744 362.976 238.062 362.658 237.493 362.229C236.93 361.796 236.505 361.28 236.216 360.682C235.932 360.085 235.815 359.433 235.864 358.726L237.101 358.836C237.098 359.623 237.348 360.307 237.85 360.887C238.353 361.462 239.029 361.86 239.877 362.081C240.436 362.226 240.959 362.269 241.447 362.21C241.936 362.146 242.349 361.983 242.687 361.722C243.025 361.462 243.252 361.107 243.369 360.659C243.445 360.364 243.458 360.1 243.406 359.867C243.355 359.629 243.261 359.419 243.122 359.237C242.984 359.054 242.824 358.892 242.642 358.749C242.461 358.601 242.28 358.472 242.1 358.364L239.439 356.752C239.118 356.562 238.829 356.352 238.574 356.122C238.32 355.887 238.11 355.633 237.945 355.36C237.786 355.082 237.685 354.78 237.64 354.454C237.596 354.127 237.623 353.774 237.721 353.395C237.889 352.752 238.202 352.24 238.661 351.858C239.12 351.477 239.675 351.236 240.325 351.135C240.976 351.034 241.675 351.083 242.422 351.283C243.18 351.48 243.823 351.791 244.348 352.214C244.879 352.639 245.274 353.152 245.534 353.754C245.796 354.351 245.901 355.006 245.851 355.718L244.576 355.623C244.626 355.107 244.556 354.631 244.366 354.193C244.176 353.756 243.884 353.382 243.493 353.072C243.107 352.758 242.652 352.53 242.126 352.388C241.615 352.255 241.137 352.223 240.691 352.293C240.252 352.359 239.878 352.51 239.57 352.744C239.261 352.979 239.058 353.286 238.959 353.666C238.859 354.05 238.884 354.386 239.035 354.673C239.191 354.961 239.407 355.211 239.683 355.423C239.965 355.637 240.243 355.825 240.516 355.986L242.575 357.221C242.79 357.345 243.037 357.507 243.317 357.709C243.603 357.907 243.865 358.155 244.102 358.453C244.346 358.748 244.52 359.096 244.623 359.5C244.727 359.904 244.708 360.377 244.567 360.92C244.43 361.447 244.202 361.891 243.883 362.253C243.569 362.615 243.186 362.89 242.732 363.076C242.284 363.263 241.788 363.365 241.244 363.381C240.703 363.404 240.136 363.338 239.54 363.183ZM248.6 365.512C248.089 365.379 247.661 365.184 247.318 364.926C246.979 364.669 246.711 364.371 246.512 364.033C246.318 363.696 246.184 363.334 246.11 362.949C246.037 362.559 246.014 362.162 246.04 361.758C246.067 361.349 246.131 360.952 246.231 360.568L247.451 355.873L248.621 356.177L247.489 360.532C247.367 361.001 247.299 361.447 247.285 361.871C247.27 362.295 247.321 362.682 247.438 363.033C247.562 363.38 247.758 363.676 248.026 363.92C248.3 364.166 248.661 364.346 249.109 364.463C249.52 364.57 249.899 364.592 250.247 364.531C250.6 364.471 250.916 364.336 251.196 364.128C251.482 363.915 251.729 363.633 251.938 363.283C252.149 362.927 252.317 362.509 252.441 362.03L253.216 362.425C252.989 363.3 252.645 363.995 252.184 364.511C251.724 365.027 251.185 365.368 250.569 365.534C249.952 365.7 249.295 365.693 248.6 365.512ZM251.525 366.044L252.071 363.942L251.952 363.911L253.624 357.477L254.786 357.779L252.568 366.315L251.525 366.044ZM258.549 368.123C257.764 367.919 257.151 367.549 256.711 367.012C256.272 366.471 256.002 365.824 255.899 365.072C255.798 364.314 255.858 363.511 256.078 362.663C256.303 361.798 256.642 361.065 257.097 360.464C257.558 359.858 258.113 359.431 258.763 359.184C259.412 358.936 260.137 358.916 260.938 359.124C261.718 359.327 262.336 359.699 262.792 360.239C263.247 360.779 263.535 361.428 263.653 362.184C263.777 362.942 263.728 363.745 263.508 364.594C263.286 365.447 262.937 366.175 262.46 366.777C261.983 367.378 261.41 367.806 260.742 368.06C260.076 368.309 259.345 368.33 258.549 368.123ZM253.783 370.681L256.988 358.351L258.031 358.622L256.361 365.048L256.487 365.081L254.953 370.985L253.783 370.681ZM258.712 367.009C259.307 367.164 259.842 367.142 260.315 366.945C260.788 366.747 261.189 366.415 261.518 365.95C261.854 365.48 262.106 364.921 262.275 364.273C262.442 363.63 262.495 363.025 262.434 362.458C262.374 361.891 262.182 361.405 261.86 361.001C261.542 360.598 261.078 360.317 260.467 360.158C259.871 360.003 259.339 360.019 258.868 360.207C258.403 360.395 258.006 360.722 257.676 361.188C257.349 361.648 257.098 362.213 256.924 362.882C256.753 363.541 256.697 364.157 256.756 364.729C256.817 365.296 257.007 365.778 257.325 366.176C257.644 366.574 258.106 366.852 258.712 367.009ZM267.904 370.554C267.119 370.35 266.506 369.98 266.066 369.444C265.628 368.902 265.357 368.255 265.254 367.503C265.153 366.745 265.213 365.942 265.433 365.094C265.658 364.23 265.997 363.497 266.452 362.895C266.913 362.289 267.468 361.862 268.118 361.615C268.767 361.367 269.492 361.348 270.293 361.556C271.073 361.758 271.691 362.13 272.147 362.67C272.603 363.211 272.89 363.859 273.008 364.615C273.132 365.373 273.084 366.176 272.863 367.025C272.641 367.878 272.292 368.606 271.815 369.208C271.338 369.809 270.765 370.237 270.098 370.491C269.431 370.74 268.7 370.761 267.904 370.554ZM263.138 373.113L266.343 360.782L267.386 361.053L265.716 367.479L265.843 367.512L264.308 373.417L263.138 373.113ZM268.067 369.44C268.662 369.595 269.197 369.574 269.67 369.376C270.143 369.178 270.545 368.847 270.874 368.381C271.21 367.911 271.462 367.352 271.63 366.704C271.797 366.061 271.85 365.456 271.79 364.889C271.729 364.322 271.537 363.837 271.215 363.432C270.898 363.029 270.433 362.748 269.822 362.589C269.227 362.435 268.694 362.451 268.223 362.638C267.758 362.826 267.361 363.153 267.032 363.619C266.704 364.08 266.453 364.644 266.279 365.314C266.108 365.972 266.052 366.588 266.111 367.16C266.172 367.727 266.362 368.21 266.68 368.607C266.999 369.005 267.461 369.283 268.067 369.44ZM276.991 372.915C276.142 372.695 275.468 372.314 274.967 371.774C274.466 371.233 274.144 370.581 273.999 369.817C273.854 369.054 273.896 368.233 274.125 367.353C274.357 366.457 274.725 365.714 275.227 365.125C275.729 364.535 276.329 364.131 277.027 363.913C277.731 363.691 278.5 363.688 279.332 363.905C280.186 364.127 280.863 364.508 281.364 365.049C281.871 365.586 282.195 366.235 282.334 366.997C282.48 367.755 282.439 368.574 282.211 369.454C281.978 370.35 281.612 371.096 281.114 371.692C280.617 372.283 280.017 372.689 279.312 372.911C278.608 373.133 277.834 373.135 276.991 372.915ZM277.28 371.801C278.229 372.047 279.016 371.917 279.643 371.411C280.271 370.899 280.716 370.14 280.977 369.133C281.246 368.101 281.225 367.218 280.915 366.485C280.61 365.753 279.986 365.264 279.043 365.019C278.405 364.854 277.841 364.862 277.349 365.043C276.864 365.221 276.452 365.539 276.114 365.996C275.782 366.45 275.53 367.009 275.358 367.673C275.091 368.701 275.113 369.587 275.426 370.332C275.74 371.072 276.358 371.561 277.28 371.801ZM282.843 374.183L285.061 365.647L286.105 365.918L285.571 367.973L285.435 367.651C285.595 367.423 285.78 367.223 285.987 367.052C286.196 366.875 286.408 366.742 286.623 366.652C286.895 366.514 287.191 366.434 287.512 366.41C287.835 366.382 288.148 366.398 288.453 366.461C288.759 366.518 289.027 366.61 289.258 366.737L288.975 367.828C288.685 367.668 288.349 367.562 287.97 367.508C287.59 367.454 287.212 367.513 286.835 367.686C286.493 367.833 286.21 368.044 285.987 368.318C285.766 368.586 285.586 368.888 285.448 369.224C285.312 369.554 285.2 369.888 285.112 370.225L284.005 374.485L282.843 374.183ZM293.187 376.871C292.681 376.847 292.197 376.763 291.733 376.62C291.275 376.479 290.885 376.27 290.563 375.995C290.246 375.722 290.042 375.371 289.95 374.942C289.88 374.586 289.878 374.245 289.946 373.92C290.02 373.59 290.112 373.217 290.22 372.801L292.251 364.984L293.405 365.284L291.386 373.054C291.293 373.412 291.218 373.713 291.16 373.957C291.109 374.197 291.109 374.422 291.162 374.632C291.26 375.035 291.505 375.323 291.898 375.499C292.297 375.675 292.815 375.793 293.452 375.852L293.187 376.871ZM289.55 367.877L289.809 366.881L295.405 368.335L295.147 369.331L289.55 367.877Z" fill="white"/>
<rect x="1128.65" y="346.935" width="162.426" height="162.426" rx="81.213" transform="rotate(-8.24192 1128.65 346.935)" fill="#556E6D"/>
<rect x="1128.65" y="346.935" width="162.426" height="162.426" rx="81.213" transform="rotate(-8.24192 1128.65 346.935)" stroke="#B9D9FF" stroke-width="0.907407"/>
<path d="M1194.73 423.62C1193.14 423.851 1191.6 423.743 1190.13 423.296C1188.67 422.833 1187.37 422.097 1186.22 421.089C1185.08 420.067 1184.19 418.832 1183.55 417.383L1187.72 415.592C1188.09 416.476 1188.63 417.213 1189.31 417.803C1190.02 418.391 1190.8 418.813 1191.65 419.071C1192.51 419.313 1193.37 419.372 1194.23 419.247C1195.37 419.083 1196.35 418.661 1197.2 417.982C1198.05 417.3 1198.68 416.462 1199.08 415.465C1199.49 414.466 1199.61 413.414 1199.45 412.307C1199.29 411.172 1198.86 410.185 1198.17 409.347C1197.49 408.507 1196.64 407.888 1195.63 407.492C1194.63 407.079 1193.58 406.953 1192.47 407.113C1191.21 407.296 1190.18 407.703 1189.37 408.332C1188.57 408.962 1187.97 409.643 1187.58 410.375L1183.46 409.564L1182.04 393.111L1198.79 390.685L1199.4 394.931L1184.96 397.023L1186.55 395.055L1187.56 407.384L1186.51 406.37C1187.21 405.432 1188.1 404.666 1189.17 404.07C1190.25 403.475 1191.34 403.096 1192.46 402.934C1194.39 402.655 1196.17 402.851 1197.81 403.524C1199.46 404.194 1200.84 405.234 1201.93 406.645C1203.03 408.041 1203.72 409.709 1204 411.649C1204.28 413.574 1204.04 415.399 1203.28 417.123C1202.51 418.833 1201.38 420.273 1199.88 421.444C1198.37 422.616 1196.66 423.341 1194.73 423.62ZM1221.48 419.745C1219.37 420.051 1217.43 419.862 1215.68 419.178C1213.92 418.479 1212.45 417.385 1211.29 415.897C1210.13 414.406 1209.4 412.605 1209.09 410.493L1207.55 399.803C1207.24 397.691 1207.43 395.756 1208.11 393.999C1208.81 392.24 1209.91 390.783 1211.4 389.629C1212.89 388.459 1214.69 387.722 1216.8 387.416C1218.91 387.11 1220.85 387.306 1222.6 388.005C1224.36 388.69 1225.82 389.777 1226.97 391.268C1228.14 392.756 1228.88 394.556 1229.18 396.668L1230.73 407.359C1231.04 409.471 1230.84 411.406 1230.14 413.165C1229.46 414.922 1228.37 416.385 1226.88 417.554C1225.39 418.709 1223.59 419.439 1221.48 419.745ZM1220.86 415.435C1222.01 415.268 1223.01 414.844 1223.86 414.163C1224.73 413.465 1225.38 412.609 1225.8 411.594C1226.22 410.564 1226.35 409.468 1226.18 408.304L1224.55 397.01C1224.38 395.861 1223.95 394.859 1223.25 394.007C1222.56 393.139 1221.69 392.502 1220.67 392.093C1219.65 391.668 1218.57 391.539 1217.42 391.705C1216.27 391.872 1215.26 392.304 1214.39 393.001C1213.54 393.683 1212.9 394.538 1212.48 395.568C1212.05 396.583 1211.92 397.665 1212.09 398.814L1213.73 410.108C1213.89 411.272 1214.33 412.288 1215.02 413.155C1215.72 414.007 1216.58 414.646 1217.59 415.071C1218.62 415.48 1219.71 415.601 1220.86 415.435ZM1244.93 409.813L1243.78 401.838L1235.8 402.993L1235.28 399.372L1243.25 398.217L1242.11 390.286L1245.73 389.761L1246.88 397.693L1254.83 396.541L1255.35 400.162L1247.4 401.314L1248.56 409.288L1244.93 409.813Z" fill="white"/>
<path d="M1189.42 457.32C1188.27 457.488 1187.25 457.374 1186.38 456.978C1185.51 456.576 1184.8 455.949 1184.26 455.098C1183.72 454.247 1183.36 453.226 1183.19 452.035C1183.02 450.844 1183.07 449.764 1183.35 448.794C1183.62 447.824 1184.12 447.025 1184.85 446.398C1185.57 445.765 1186.51 445.365 1187.67 445.197C1189.02 445.001 1190.18 445.189 1191.13 445.759C1192.09 446.325 1192.81 447.167 1193.3 448.285L1192.13 448.775C1191.75 447.89 1191.2 447.224 1190.48 446.778C1189.76 446.332 1188.88 446.185 1187.83 446.336C1186.92 446.468 1186.2 446.785 1185.65 447.288C1185.11 447.79 1184.74 448.435 1184.54 449.223C1184.34 450.005 1184.31 450.882 1184.44 451.853C1184.58 452.824 1184.85 453.657 1185.26 454.351C1185.67 455.045 1186.21 455.558 1186.88 455.89C1187.56 456.216 1188.35 456.313 1189.26 456.181C1190.3 456.029 1191.11 455.638 1191.67 455.006C1192.23 454.369 1192.57 453.575 1192.69 452.623L1193.95 452.762C1193.8 453.972 1193.34 454.987 1192.59 455.806C1191.83 456.62 1190.78 457.124 1189.42 457.32ZM1199.93 455.799C1199.06 455.924 1198.29 455.835 1197.62 455.531C1196.95 455.226 1196.4 454.75 1195.97 454.103C1195.54 453.456 1195.26 452.682 1195.13 451.782C1195 450.866 1195.05 450.039 1195.28 449.301C1195.52 448.563 1195.91 447.958 1196.47 447.487C1197.03 447.009 1197.74 446.708 1198.59 446.585C1199.47 446.459 1200.24 446.548 1200.91 446.852C1201.59 447.15 1202.14 447.623 1202.56 448.272C1202.99 448.914 1203.27 449.685 1203.4 450.584C1203.53 451.5 1203.48 452.33 1203.25 453.072C1203.03 453.81 1202.63 454.417 1202.07 454.895C1201.5 455.373 1200.79 455.674 1199.93 455.799ZM1199.76 454.659C1200.73 454.519 1201.41 454.094 1201.79 453.384C1202.17 452.668 1202.29 451.796 1202.14 450.767C1201.98 449.711 1201.62 448.905 1201.05 448.35C1200.49 447.793 1199.72 447.585 1198.76 447.725C1198.11 447.819 1197.59 448.045 1197.21 448.403C1196.83 448.755 1196.57 449.208 1196.44 449.761C1196.31 450.308 1196.29 450.921 1196.39 451.599C1196.54 452.65 1196.91 453.458 1197.48 454.024C1198.06 454.584 1198.82 454.796 1199.76 454.659ZM1216.22 453.191L1215.4 447.459C1215.3 446.786 1215.04 446.285 1214.61 445.957C1214.18 445.623 1213.68 445.498 1213.1 445.581C1212.77 445.629 1212.46 445.751 1212.17 445.947C1211.88 446.143 1211.66 446.423 1211.5 446.787C1211.35 447.15 1211.31 447.6 1211.39 448.139L1210.66 448.039C1210.55 447.416 1210.59 446.852 1210.78 446.346C1210.98 445.839 1211.29 445.423 1211.71 445.098C1212.14 444.767 1212.64 444.559 1213.22 444.475C1214.1 444.347 1214.84 444.518 1215.45 444.985C1216.05 445.448 1216.42 446.14 1216.56 447.061L1217.41 453.019L1216.22 453.191ZM1205.81 454.7L1204.54 445.971L1205.61 445.816L1205.92 447.966L1206.05 447.948L1207 454.527L1205.81 454.7ZM1211.03 453.944L1210.22 448.293C1210.12 447.598 1209.85 447.078 1209.42 446.733C1209 446.382 1208.48 446.25 1207.88 446.338C1207.28 446.425 1206.82 446.703 1206.51 447.172C1206.19 447.635 1206.09 448.209 1206.19 448.893L1205.42 448.608C1205.34 448.048 1205.4 447.528 1205.6 447.048C1205.8 446.562 1206.11 446.16 1206.53 445.84C1206.95 445.515 1207.45 445.31 1208.03 445.226C1208.59 445.146 1209.1 445.193 1209.56 445.368C1210.03 445.541 1210.43 445.837 1210.74 446.253C1211.05 446.67 1211.26 447.202 1211.35 447.848L1212.2 453.774L1211.03 453.944ZM1223.47 452.389C1222.67 452.505 1221.96 452.401 1221.35 452.078C1220.73 451.748 1220.23 451.257 1219.85 450.603C1219.46 449.944 1219.2 449.181 1219.08 448.313C1218.95 447.43 1218.98 446.622 1219.16 445.891C1219.35 445.154 1219.7 444.545 1220.2 444.066C1220.71 443.586 1221.37 443.286 1222.19 443.168C1222.98 443.052 1223.7 443.155 1224.33 443.477C1224.96 443.798 1225.47 444.284 1225.87 444.936C1226.28 445.586 1226.55 446.345 1226.67 447.213C1226.8 448.086 1226.76 448.892 1226.55 449.632C1226.35 450.371 1225.99 450.987 1225.47 451.48C1224.95 451.968 1224.28 452.271 1223.47 452.389ZM1220.07 456.595L1218.24 443.986L1219.31 443.832L1220.26 450.403L1220.39 450.384L1221.27 456.421L1220.07 456.595ZM1223.19 451.299C1223.8 451.211 1224.28 450.984 1224.64 450.618C1225 450.252 1225.24 449.791 1225.37 449.234C1225.49 448.671 1225.51 448.058 1225.41 447.396C1225.32 446.738 1225.13 446.16 1224.86 445.661C1224.58 445.162 1224.22 444.788 1223.76 444.54C1223.31 444.292 1222.78 444.213 1222.15 444.303C1221.54 444.391 1221.06 444.613 1220.7 444.968C1220.34 445.322 1220.1 445.777 1219.98 446.334C1219.85 446.886 1219.84 447.504 1219.94 448.188C1220.04 448.862 1220.23 449.451 1220.5 449.955C1220.78 450.454 1221.14 450.826 1221.59 451.069C1222.04 451.312 1222.57 451.389 1223.19 451.299ZM1231.61 451.209C1230.96 451.304 1230.39 451.266 1229.91 451.093C1229.43 450.92 1229.05 450.653 1228.78 450.292C1228.5 449.93 1228.33 449.518 1228.26 449.055C1228.19 448.581 1228.23 448.163 1228.37 447.801C1228.51 447.434 1228.73 447.118 1229.03 446.855C1229.33 446.591 1229.69 446.371 1230.11 446.195C1230.54 446.023 1231.01 445.858 1231.53 445.7C1232.06 445.536 1232.58 445.387 1233.08 445.254C1233.59 445.114 1234.03 444.987 1234.41 444.871L1234.03 445.191C1233.92 444.326 1233.66 443.712 1233.25 443.348C1232.84 442.983 1232.2 442.864 1231.33 442.99C1230.73 443.077 1230.25 443.285 1229.87 443.614C1229.5 443.943 1229.27 444.41 1229.19 445.016L1227.99 444.844C1228.07 444.034 1228.39 443.37 1228.93 442.851C1229.47 442.333 1230.22 442.004 1231.19 441.864C1231.98 441.749 1232.68 441.801 1233.28 442.023C1233.88 442.238 1234.34 442.612 1234.66 443.144C1234.8 443.382 1234.91 443.654 1234.99 443.962C1235.07 444.27 1235.13 444.586 1235.17 444.909L1235.96 450.332L1234.9 450.485L1234.58 448.295L1234.91 448.38C1234.72 449.172 1234.34 449.81 1233.78 450.294C1233.21 450.777 1232.49 451.083 1231.61 451.209ZM1231.6 450.163C1232.16 450.082 1232.63 449.912 1233.02 449.653C1233.4 449.393 1233.7 449.073 1233.9 448.691C1234.1 448.305 1234.21 447.887 1234.22 447.44C1234.25 447.15 1234.24 446.838 1234.19 446.503C1234.15 446.163 1234.12 445.91 1234.09 445.742L1234.58 445.911C1234.18 446.024 1233.75 446.141 1233.28 446.264C1232.82 446.386 1232.37 446.515 1231.92 446.651C1231.48 446.787 1231.08 446.929 1230.73 447.08C1230.49 447.185 1230.26 447.32 1230.05 447.483C1229.84 447.64 1229.67 447.835 1229.55 448.067C1229.44 448.298 1229.4 448.57 1229.45 448.883C1229.48 449.136 1229.58 449.372 1229.74 449.591C1229.9 449.81 1230.14 449.977 1230.44 450.092C1230.75 450.207 1231.13 450.231 1231.6 450.163ZM1244.37 449.114L1243.72 444.661C1243.65 444.176 1243.54 443.738 1243.39 443.347C1243.24 442.951 1243.04 442.617 1242.79 442.345C1242.55 442.066 1242.25 441.867 1241.91 441.747C1241.56 441.626 1241.16 441.599 1240.71 441.665C1240.29 441.726 1239.93 441.852 1239.62 442.045C1239.33 442.236 1239.09 442.485 1238.91 442.792C1238.73 443.093 1238.61 443.445 1238.56 443.85C1238.5 444.254 1238.51 444.704 1238.58 445.2L1237.71 445.136C1237.58 444.241 1237.63 443.467 1237.85 442.813C1238.08 442.159 1238.44 441.635 1238.95 441.243C1239.45 440.851 1240.06 440.604 1240.77 440.501C1241.29 440.425 1241.76 440.44 1242.17 440.545C1242.59 440.65 1242.95 440.82 1243.26 441.056C1243.57 441.291 1243.84 441.574 1244.06 441.906C1244.28 442.232 1244.45 442.589 1244.59 442.976C1244.72 443.359 1244.81 443.747 1244.87 444.14L1245.56 448.941L1244.37 449.114ZM1238.06 450.028L1236.79 441.3L1237.87 441.144L1238.18 443.294L1238.3 443.276L1239.25 449.855L1238.06 450.028ZM1246.32 438.228L1246.13 436.894L1247.31 436.722L1247.51 438.056L1246.32 438.228ZM1247.82 448.614L1246.56 439.885L1247.75 439.713L1249.01 448.442L1247.82 448.614ZM1255.16 447.798C1254.31 447.921 1253.55 447.84 1252.87 447.553C1252.19 447.266 1251.63 446.805 1251.19 446.17C1250.75 445.536 1250.46 444.758 1250.32 443.837C1250.19 442.883 1250.24 442.034 1250.47 441.29C1250.71 440.546 1251.11 439.94 1251.67 439.474C1252.24 439.007 1252.94 438.713 1253.78 438.591C1254.64 438.466 1255.41 438.559 1256.07 438.87C1256.74 439.175 1257.28 439.674 1257.7 440.367C1258.12 441.06 1258.39 441.92 1258.51 442.948L1257.3 443.123L1257.24 442.703C1257.05 441.575 1256.69 440.756 1256.13 440.247C1255.59 439.738 1254.87 439.548 1253.97 439.678C1253.03 439.813 1252.36 440.222 1251.95 440.904C1251.54 441.584 1251.42 442.488 1251.58 443.614C1251.74 444.713 1252.11 445.531 1252.69 446.068C1253.28 446.599 1254.03 446.798 1254.95 446.665C1255.58 446.575 1256.1 446.353 1256.52 446.001C1256.95 445.642 1257.26 445.171 1257.45 444.587L1258.62 444.855C1258.38 445.665 1257.96 446.329 1257.34 446.847C1256.74 447.358 1256.01 447.675 1255.16 447.798ZM1251.21 444.006L1251.06 443.012L1257.73 442.046L1257.87 443.04L1251.21 444.006ZM1264.18 446.484C1263.16 446.632 1262.28 446.533 1261.56 446.187C1260.83 445.841 1260.34 445.285 1260.08 444.52L1261.26 444.142C1261.46 444.619 1261.81 444.973 1262.31 445.203C1262.82 445.427 1263.41 445.489 1264.09 445.391C1264.75 445.295 1265.26 445.082 1265.6 444.752C1265.94 444.416 1266.08 444.009 1266.01 443.529C1265.97 443.26 1265.87 443.05 1265.73 442.901C1265.58 442.746 1265.31 442.623 1264.92 442.531C1264.53 442.439 1263.95 442.347 1263.18 442.255C1262.36 442.154 1261.71 442.028 1261.23 441.878C1260.75 441.727 1260.4 441.525 1260.17 441.272C1259.94 441.014 1259.79 440.68 1259.73 440.271C1259.66 439.775 1259.74 439.321 1259.97 438.908C1260.19 438.491 1260.54 438.143 1261 437.867C1261.47 437.585 1262.03 437.396 1262.69 437.301C1263.34 437.206 1263.95 437.229 1264.5 437.369C1265.05 437.504 1265.51 437.739 1265.89 438.076C1266.26 438.412 1266.51 438.829 1266.64 439.327L1265.46 439.721C1265.31 439.221 1264.99 438.854 1264.52 438.62C1264.05 438.38 1263.49 438.302 1262.83 438.387C1262.21 438.46 1261.72 438.652 1261.37 438.961C1261.02 439.265 1260.87 439.625 1260.93 440.039C1260.96 440.271 1261.06 440.46 1261.23 440.607C1261.39 440.749 1261.67 440.865 1262.05 440.958C1262.45 441.049 1263 441.132 1263.71 441.205C1264.54 441.294 1265.2 441.418 1265.69 441.578C1266.18 441.738 1266.55 441.957 1266.78 442.236C1267.02 442.515 1267.18 442.881 1267.24 443.334C1267.36 444.158 1267.15 444.852 1266.6 445.415C1266.06 445.972 1265.25 446.328 1264.18 446.484Z" fill="white"/>
</g>
<defs>
<radialGradient id="paint0_radial_1_2488" cx="0" cy="0" r="1" gradientUnits="userSpaceOnUse" gradientTransform="translate(747.916 204.815) rotate(90) scale(332.37 1172.44)">
<stop stop-color="#013281"/>
<stop offset="1" stop-color="#013281" stop-opacity="0"/>
</radialGradient>
<clipPath id="clip0_1_2488">
<rect x="0.333008" y="0.333008" width="1493.33" height="466.667" rx="28" fill="white"/>
</clipPath>
</defs>
</svg>
