<svg width="201" height="94" viewBox="0 0 201 94" fill="none" xmlns="http://www.w3.org/2000/svg">
<path d="M193.543 89.5882C195.642 89.5882 197.344 87.8863 197.344 85.7868C197.344 83.6874 195.642 81.9855 193.543 81.9855C191.444 81.9855 189.742 83.6874 189.742 85.7868C189.742 87.8863 191.444 89.5882 193.543 89.5882Z" fill="url(#paint0_linear_1_472)"/>
<path d="M171.458 33.2805C173.558 33.2805 175.26 31.5785 175.26 29.4791C175.26 27.3797 173.558 25.6777 171.458 25.6777C169.359 25.6777 167.657 27.3797 167.657 29.4791C167.657 31.5785 169.359 33.2805 171.458 33.2805Z" fill="url(#paint1_linear_1_472)"/>
<path opacity="0.05" d="M136.355 41.3252H132.261V50.3936H136.355V41.3252Z" fill="#EC008C"/>
<path d="M189.228 46.4719C186.148 46.4719 183.639 48.9722 183.626 52.0499C183.621 53.3013 182.636 54.4065 181.387 54.5083C179.95 54.6259 178.741 53.4894 178.741 52.076V43.0389C178.741 39.8385 176.447 36.9829 173.273 36.5753C169.432 36.0815 166.148 39.0756 166.148 42.8195V65.949C166.148 67.0934 165.328 68.1358 164.191 68.2534C162.885 68.3866 161.777 67.3598 161.777 66.0797V18.496C161.777 15.2589 159.457 12.3694 156.243 11.9566C152.359 11.4576 149.035 14.4856 149.035 18.2739V51.0545C149.035 52.1779 148.231 53.2047 147.112 53.3196C145.827 53.4502 144.737 52.4418 144.737 51.1825V39.6086C144.737 36.3715 142.415 33.4846 139.204 33.0744C135.319 32.578 131.996 35.6034 131.996 39.3917V52.8467C131.996 53.8813 131.154 54.7226 130.107 54.7226H130.008C129.083 54.7226 128.356 53.978 128.356 53.0296V52.8676C128.356 51.5927 128.051 50.3203 127.39 49.2309C126.039 47.0075 123.753 45.743 121.279 45.743H121.276H114.097C113.927 45.743 113.786 45.6019 113.786 45.4321C113.786 22.7963 132.427 4.38257 155.342 4.37212L155.358 4.37474C156.001 4.44005 156.648 4.15788 156.993 3.61185C158.004 2.0077 156.878 0.333008 155.358 0.333008C129.817 0.333008 109.112 21.1974 109.76 46.5947C109.804 48.3765 111.299 49.7821 113.08 49.7821H121.274C122.217 49.7821 123.092 50.208 123.685 50.9682C124.119 51.5273 124.315 52.2354 124.315 52.9408V53.027C124.315 56.1883 126.867 58.7591 130.018 58.7591H130.117C133.391 58.7304 136.03 56.0707 136.03 52.7971V39.4858C136.03 38.3571 136.79 37.3225 137.895 37.1057C139.384 36.8157 140.693 37.9548 140.693 39.3917V50.9682C140.693 54.1138 142.948 56.9172 146.067 57.3195C149.84 57.8029 153.069 54.8637 153.069 51.1851V18.3706C153.069 17.2419 153.829 16.2073 154.937 15.9931C156.426 15.7031 157.735 16.8422 157.735 18.2791V65.868C157.735 69.0319 160.003 71.8536 163.141 72.2559C166.937 72.7418 170.184 69.787 170.184 66.0849V42.9161C170.184 41.8241 170.921 40.8208 171.992 40.6118C173.435 40.3323 174.702 41.4348 174.702 42.8273V51.8356C174.702 55.2634 177.259 58.2836 180.679 58.5422C184.47 58.8296 187.647 55.8356 187.66 52.11C187.663 51.2347 188.35 50.5189 189.225 50.5189H196.883C195.822 72.2611 177.735 89.6272 155.661 89.6272H155.481C154.422 89.622 153.456 90.3823 153.349 91.4352C153.226 92.6448 154.172 93.6663 155.358 93.6663H155.661C180.638 93.6663 200.964 73.4133 200.972 48.515C200.964 47.3916 200.049 46.4824 198.926 46.4824L189.228 46.4719Z" fill="url(#paint2_linear_1_472)"/>
<path d="M21.016 80.9889C21.2669 80.7355 21.3949 80.2835 21.3949 79.6251V69.9663H23.2002V79.6591C23.2002 80.9079 22.9259 81.8093 22.3798 82.3684C21.8338 82.9275 20.9664 83.207 19.7855 83.207H4.11238C2.73292 83.207 1.74796 82.9327 1.15489 82.3867C0.56444 81.8406 0.266602 80.9079 0.266602 79.5938V72.0694H2.07454V79.6251C2.07454 80.26 2.19994 80.7094 2.45075 80.9733C2.70156 81.2345 3.1013 81.3678 3.64995 81.3678H19.7803C20.3524 81.3651 20.7626 81.2397 21.016 80.9889ZM10.913 68.6835H8.54861V66.0552H10.913V68.6835ZM15.1194 68.6835H12.7549V66.0552H15.1194V68.6835Z" fill="#808285"/>
<path d="M27.6025 79.6233V63.4434H29.4105V79.6233C29.4105 80.2817 29.5516 80.7363 29.8389 80.9871C30.1237 81.2379 30.5391 81.3633 31.0878 81.3633H32.7311C33.6063 81.3633 34.0453 81.669 34.0453 82.283C34.0453 82.7219 33.9408 82.9832 33.7344 83.072C33.5254 83.1608 33.1909 83.2026 32.7311 83.2026H31.4509C30.0715 83.2026 29.0865 82.9231 28.4934 82.364C27.8978 81.8101 27.6025 80.8957 27.6025 79.6233Z" fill="#808285"/>
<path d="M32.7292 83.205C32.2694 83.205 31.935 83.1449 31.7286 83.0247C31.5195 82.9046 31.415 82.625 31.415 82.1861C31.415 81.8804 31.5248 81.6662 31.7442 81.546C31.9637 81.4258 32.2929 81.3657 32.7292 81.3657H37.3274C36.9538 80.7518 36.6664 80.0411 36.4574 79.2312C36.2484 78.4213 36.1465 77.4677 36.1465 76.373C36.1465 74.0295 36.6769 72.279 37.7402 71.1164C38.8009 69.9564 40.1987 69.3764 41.9282 69.3764C45.7818 69.3764 47.71 71.7095 47.71 76.373C47.71 78.8054 47.2214 80.5506 46.2469 81.6139C45.2724 82.6773 43.8328 83.2076 41.9256 83.2076H32.7292V83.205ZM41.9256 71.2157C40.6324 71.2157 39.6605 71.6703 39.0021 72.5795C38.3463 73.4887 38.0171 74.6983 38.0171 76.211C38.0171 78.0059 38.3228 79.3148 38.9368 80.1352C39.5507 80.9555 40.5462 81.3683 41.9256 81.3683C43.3051 81.3683 44.3083 80.9843 44.9327 80.2188C45.5572 79.4533 45.8681 78.2045 45.8681 76.4723C45.8681 74.8525 45.5546 73.5697 44.9327 72.6291C44.3083 71.686 43.3077 71.2157 41.9256 71.2157ZM40.9407 66.7455H38.5762V64.1172H40.9407V66.7455ZM45.147 66.7455H42.7826V64.1172H45.147V66.7455Z" fill="#808285"/>
<path d="M52.207 79.6233V63.4434H54.015V79.6233C54.015 80.2817 54.156 80.7363 54.4434 80.9871C54.7282 81.2379 55.1436 81.3633 55.6923 81.3633H57.3356C58.2108 81.3633 62.9449 81.669 62.9449 82.283C62.9449 82.7219 62.8404 82.9832 62.634 83.072C62.425 83.1608 57.7954 83.2026 57.3356 83.2026H56.0554C54.676 83.2026 53.691 82.9231 53.0979 82.364C52.5023 81.8101 52.207 80.8957 52.207 79.6233Z" fill="#808285"/>
<path d="M82.3597 81.2015C82.1167 81.6614 81.8162 82.0297 81.4557 82.3014C81.0952 82.5758 80.6719 82.7769 80.1912 82.9076C79.7105 83.0382 79.1514 83.1218 78.5165 83.1531C77.8816 83.1845 77.1684 83.2028 76.382 83.2028H66.5925C66.4175 83.2028 66.232 83.1819 66.0334 83.1375C65.8348 83.0931 65.6729 83.0173 65.5396 82.9076C65.3202 83.0173 65.0798 83.0931 64.8159 83.1375C64.552 83.1819 64.2124 83.2028 63.797 83.2028H57.3308C56.8918 83.2028 56.5653 83.1479 56.3458 83.0382C56.1289 82.9285 56.0166 82.6777 56.0166 82.2832C56.0166 81.6692 56.4555 81.3635 57.3308 81.3635H63.6298C64.0034 81.3635 64.3143 81.3243 64.5651 81.2486C64.8159 81.1728 65.0145 81.0239 65.1556 80.8044C65.2966 80.5849 65.3959 80.295 65.4508 79.9344C65.5056 79.5739 65.5318 79.1088 65.5318 78.5366V63.4409H67.3711V71.6054C68.4893 70.9914 69.725 70.4663 71.0836 70.0273C72.4422 69.5884 73.8425 69.3716 75.2899 69.3716C76.9333 69.3716 78.2579 69.6067 79.2637 70.077C80.2696 70.5499 81.0534 71.156 81.6125 71.9006C82.1716 72.6452 82.5426 73.476 82.7281 74.3956C82.9135 75.3153 83.0076 76.214 83.0076 77.0893C83.0076 77.4394 83.0024 77.7685 82.9919 78.0742C82.9789 78.3799 82.9763 78.6542 82.9763 78.8946C82.9763 79.728 83.2663 80.3446 83.8463 80.7521C84.4263 81.1571 85.1996 81.3609 86.161 81.3609H86.3256C86.7646 81.3609 87.0911 81.421 87.3106 81.5412C87.5301 81.6613 88.4993 81.8756 88.4993 82.1813C88.4993 82.6855 87.5353 82.9807 87.3289 83.0669C87.1199 83.1558 86.7881 83.1976 86.3282 83.1976C85.3851 83.1976 84.5412 83.0669 83.7992 82.8031C83.0599 82.5496 82.5765 82.0114 82.3597 81.2015ZM77.2337 81.3661C77.9339 81.3661 78.5243 81.3269 79.0077 81.2512C79.4884 81.1754 79.8777 80.9899 80.1729 80.6921C80.4681 80.3942 80.6824 79.9632 80.813 79.3936C80.9436 78.824 81.009 78.0481 81.009 77.0605C81.009 76.1618 80.9201 75.3519 80.7477 74.6282C80.5726 73.9045 80.2722 73.2931 79.8437 72.7889C79.4179 72.2846 78.8457 71.898 78.1351 71.6236C77.4218 71.3493 76.5309 71.2135 75.4571 71.2135C74.7334 71.2135 73.9993 71.284 73.2547 71.4277C72.5101 71.5714 71.7864 71.7517 71.0862 71.9685C70.3834 72.188 69.7172 72.4414 69.0823 72.7236C68.4475 73.0083 67.8779 73.2827 67.3737 73.5439V79.2943C67.3737 79.6235 67.3423 79.9893 67.2744 80.3942C67.2091 80.7992 67.1202 81.1231 67.0131 81.3635H77.2337V81.3661Z" fill="#808285"/>
<path d="M86.3376 83.2054C85.8987 83.2054 85.5695 83.1505 85.3526 83.0408C85.1332 82.9311 85.0234 82.6907 85.0234 82.3171C85.0234 81.9017 85.1279 81.6378 85.3343 81.5281C85.5433 81.4184 85.8778 81.3635 86.3376 81.3635H89.5955C90.1416 81.3635 90.5648 81.2329 90.86 80.969C91.1553 80.7051 91.3042 80.2584 91.3042 79.6209V63.4409H93.1121V79.0618C93.1121 79.762 93.0573 80.3759 92.9475 80.9011C92.8378 81.4262 92.6418 81.8599 92.3571 82.1996C92.0723 82.5392 91.683 82.79 91.1918 82.9546C90.7007 83.1192 90.058 83.2002 89.2716 83.2002H86.3376V83.2054Z" fill="#808285"/>
<path d="M99.841 63.4434V83.2052H98.0356V63.4434H99.841Z" fill="#808285"/>
<path d="M113.443 81.4972C113.114 81.0583 112.84 80.5227 112.623 79.8878C112.403 79.253 112.294 78.5632 112.294 77.8186C112.294 77.3588 112.37 76.8441 112.524 76.2746C112.678 75.705 112.95 75.1694 113.344 74.6652C113.739 74.161 114.264 73.7403 114.919 73.4007C115.578 73.0611 116.419 72.8912 117.448 72.8912C118.217 72.8912 118.927 73.0219 119.583 73.2857C120.241 73.547 120.766 73.9859 121.161 74.5999C121.271 74.7749 121.307 74.8899 121.276 74.9448C121.242 74.9996 121.205 75.0493 121.161 75.0911L120.307 75.7155C120.176 75.8252 120.077 75.8644 120.011 75.8304C119.946 75.7991 119.868 75.7364 119.782 75.6502C119.473 75.3445 119.113 75.0858 118.697 74.8794C118.282 74.6704 117.788 74.5659 117.219 74.5659C116.67 74.5659 116.2 74.66 115.805 74.8455C115.411 75.031 115.081 75.2739 114.82 75.5692C114.556 75.8644 114.366 76.2093 114.245 76.6038C114.125 76.9983 114.065 77.4032 114.065 77.8186C114.065 78.6521 114.256 79.394 114.64 80.0524C115.024 80.7082 115.434 81.1915 115.873 81.4972H121.294C121.514 81.4972 121.623 81.6174 121.623 81.8578V82.8427C121.623 83.0857 121.514 83.2032 121.294 83.2032H111.374C111.155 83.2032 111.045 83.0831 111.045 82.8427V81.8578C111.045 81.6174 111.155 81.4972 111.374 81.4972H113.443Z" fill="#808285"/>
<path d="M124.875 79.6233V63.4434H126.683V79.6233C126.683 80.2817 126.825 80.7363 127.109 80.9871C127.394 81.2379 127.809 81.3633 128.358 81.3633H133.437C134.312 81.3633 134.751 81.669 134.751 82.283C134.751 82.7219 134.647 82.9832 134.44 83.072C134.231 83.1608 133.897 83.2026 133.437 83.2026H128.719C127.339 83.2026 126.354 82.9231 125.761 82.364C125.171 81.8101 124.875 80.8957 124.875 79.6233Z" fill="#808285"/>
<path d="M139.352 78.902C139.352 79.7355 139.642 80.352 140.222 80.7596C140.802 81.1646 141.575 81.3683 142.539 81.3683H142.735C143.174 81.3683 143.503 81.4284 143.72 81.5486C143.94 81.6688 144.049 81.9039 144.049 82.254C144.049 82.6041 143.95 82.8497 143.754 82.9934C143.556 83.1371 143.216 83.2076 142.735 83.2076C141.816 83.2076 141.027 83.1031 140.371 82.8941C139.715 82.6851 139.232 82.2096 138.926 81.465C138.662 81.9901 138.312 82.4134 137.876 82.7295C137.437 83.0482 136.802 83.205 135.971 83.205H133.442C133.027 83.205 129.267 83.1449 129.037 83.0247C128.807 82.9046 128.692 82.6694 128.692 82.3193C128.692 81.9483 128.802 81.6949 129.022 81.5643C129.241 81.4337 133.006 81.3657 133.445 81.3657H135.778C136.193 81.3657 136.522 81.3109 136.763 81.2011C137.003 81.0914 137.178 80.9216 137.288 80.6917C137.398 80.4618 137.468 80.1717 137.502 79.8217C137.536 79.4716 137.552 79.0666 137.552 78.6068V69.9669H139.357V78.902H139.352ZM139.417 66.7455H137.445V64.1172H139.417V66.7455Z" fill="#808285"/>
<path d="M142.735 83.2058C142.296 83.2058 141.97 83.1509 141.75 83.0412C141.531 82.9315 141.421 82.6911 141.421 82.3175C141.421 81.9021 141.525 81.6382 141.732 81.5285C141.941 81.4188 142.275 81.3639 142.735 81.3639H145.133C145.679 81.3639 146.103 81.2333 146.398 80.9694C146.693 80.7055 146.842 80.2588 146.842 79.6213V69.9624H148.647V79.0622C148.647 79.7624 148.593 80.3763 148.483 80.9015C148.373 81.4266 148.177 81.8603 147.892 82.1999C147.608 82.5396 147.218 82.7904 146.727 82.955C146.233 83.1196 145.593 83.2006 144.804 83.2006H142.735V83.2058ZM147.992 88.4624H145.627V85.8341H147.992V88.4624Z" fill="#808285"/>
<defs>
<linearGradient id="paint0_linear_1_472" x1="195.909" y1="88.7518" x2="130.973" y2="7.43462" gradientUnits="userSpaceOnUse">
<stop stop-color="#39B8B2"/>
<stop offset="0.508" stop-color="#3279C1"/>
<stop offset="1" stop-color="#033E51"/>
</linearGradient>
<linearGradient id="paint1_linear_1_472" x1="209.881" y1="77.5944" x2="144.944" y2="-3.72288" gradientUnits="userSpaceOnUse">
<stop stop-color="#39B8B2"/>
<stop offset="0.508" stop-color="#3279C1"/>
<stop offset="1" stop-color="#033E51"/>
</linearGradient>
<linearGradient id="paint2_linear_1_472" x1="191.163" y1="92.5425" x2="126.227" y2="11.2252" gradientUnits="userSpaceOnUse">
<stop stop-color="#39B8B2"/>
<stop offset="0.508" stop-color="#3279C1"/>
<stop offset="1" stop-color="#033E51"/>
</linearGradient>
</defs>
</svg>
