<svg width="909" height="762" viewBox="0 0 909 762" fill="none" xmlns="http://www.w3.org/2000/svg">
<mask id="mask0_1_1670" style="mask-type:alpha" maskUnits="userSpaceOnUse" x="0" y="-143" width="909" height="1051">
<rect x="0.166016" y="-142.5" width="908.833" height="1050" fill="url(#paint0_radial_1_1670)"/>
</mask>
<g mask="url(#mask0_1_1670)">
<rect x="0.749349" y="-25.2497" width="115.5" height="115.5" stroke="white" stroke-opacity="0.15" stroke-width="1.16667" stroke-dasharray="11.67 11.67"/>
<rect x="117.416" y="-25.2497" width="115.5" height="115.5" stroke="white" stroke-opacity="0.15" stroke-width="1.16667" stroke-dasharray="11.67 11.67"/>
<rect x="234.082" y="-25.2497" width="115.5" height="115.5" stroke="white" stroke-opacity="0.15" stroke-width="1.16667" stroke-dasharray="11.67 11.67"/>
<rect x="350.749" y="-25.2497" width="115.5" height="115.5" stroke="white" stroke-opacity="0.15" stroke-width="1.16667" stroke-dasharray="11.67 11.67"/>
<rect x="467.416" y="-25.2497" width="115.5" height="115.5" stroke="white" stroke-opacity="0.15" stroke-width="1.16667" stroke-dasharray="11.67 11.67"/>
<rect x="584.082" y="-25.2497" width="115.5" height="115.5" stroke="white" stroke-opacity="0.15" stroke-width="1.16667" stroke-dasharray="11.67 11.67"/>
<rect x="700.749" y="-25.2497" width="115.5" height="115.5" stroke="white" stroke-opacity="0.15" stroke-width="1.16667" stroke-dasharray="11.67 11.67"/>
<rect x="817.416" y="-25.2497" width="115.5" height="115.5" stroke="white" stroke-opacity="0.15" stroke-width="1.16667" stroke-dasharray="11.67 11.67"/>
<rect x="0.749349" y="91.4168" width="115.5" height="115.5" stroke="white" stroke-opacity="0.15" stroke-width="1.16667" stroke-dasharray="11.67 11.67"/>
<rect x="117.416" y="91.4168" width="115.5" height="115.5" stroke="white" stroke-opacity="0.15" stroke-width="1.16667" stroke-dasharray="11.67 11.67"/>
<rect x="234.082" y="91.4168" width="115.5" height="115.5" stroke="white" stroke-opacity="0.15" stroke-width="1.16667" stroke-dasharray="11.67 11.67"/>
<rect x="350.749" y="91.4168" width="115.5" height="115.5" stroke="white" stroke-opacity="0.15" stroke-width="1.16667" stroke-dasharray="11.67 11.67"/>
<rect x="467.416" y="91.4168" width="115.5" height="115.5" stroke="white" stroke-opacity="0.15" stroke-width="1.16667" stroke-dasharray="11.67 11.67"/>
<rect x="584.082" y="91.4168" width="115.5" height="115.5" stroke="white" stroke-opacity="0.15" stroke-width="1.16667" stroke-dasharray="11.67 11.67"/>
<rect x="700.749" y="91.4168" width="115.5" height="115.5" stroke="white" stroke-opacity="0.15" stroke-width="1.16667" stroke-dasharray="11.67 11.67"/>
<rect x="817.416" y="91.4168" width="115.5" height="115.5" stroke="white" stroke-opacity="0.15" stroke-width="1.16667" stroke-dasharray="11.67 11.67"/>
<rect x="0.749349" y="208.083" width="115.5" height="115.5" stroke="white" stroke-opacity="0.15" stroke-width="1.16667" stroke-dasharray="11.67 11.67"/>
<rect x="117.416" y="208.083" width="115.5" height="115.5" stroke="white" stroke-opacity="0.15" stroke-width="1.16667" stroke-dasharray="11.67 11.67"/>
<rect x="234.082" y="208.083" width="115.5" height="115.5" stroke="white" stroke-opacity="0.15" stroke-width="1.16667" stroke-dasharray="11.67 11.67"/>
<rect x="350.749" y="208.083" width="115.5" height="115.5" stroke="white" stroke-opacity="0.15" stroke-width="1.16667" stroke-dasharray="11.67 11.67"/>
<rect x="467.416" y="208.083" width="115.5" height="115.5" stroke="white" stroke-opacity="0.15" stroke-width="1.16667" stroke-dasharray="11.67 11.67"/>
<rect x="584.082" y="208.083" width="115.5" height="115.5" stroke="white" stroke-opacity="0.15" stroke-width="1.16667" stroke-dasharray="11.67 11.67"/>
<rect x="700.749" y="208.083" width="115.5" height="115.5" stroke="white" stroke-opacity="0.15" stroke-width="1.16667" stroke-dasharray="11.67 11.67"/>
<rect x="817.416" y="208.083" width="115.5" height="115.5" stroke="white" stroke-opacity="0.15" stroke-width="1.16667" stroke-dasharray="11.67 11.67"/>
<rect x="0.749349" y="324.75" width="115.5" height="115.5" stroke="white" stroke-opacity="0.15" stroke-width="1.16667" stroke-dasharray="11.67 11.67"/>
<rect x="117.416" y="324.75" width="115.5" height="115.5" stroke="white" stroke-opacity="0.15" stroke-width="1.16667" stroke-dasharray="11.67 11.67"/>
<rect x="234.082" y="324.75" width="115.5" height="115.5" stroke="white" stroke-opacity="0.15" stroke-width="1.16667" stroke-dasharray="11.67 11.67"/>
<rect x="350.749" y="324.75" width="115.5" height="115.5" stroke="white" stroke-opacity="0.15" stroke-width="1.16667" stroke-dasharray="11.67 11.67"/>
<rect x="467.416" y="324.75" width="115.5" height="115.5" stroke="white" stroke-opacity="0.15" stroke-width="1.16667" stroke-dasharray="11.67 11.67"/>
<rect x="584.082" y="324.75" width="115.5" height="115.5" stroke="white" stroke-opacity="0.15" stroke-width="1.16667" stroke-dasharray="11.67 11.67"/>
<rect x="700.749" y="324.75" width="115.5" height="115.5" stroke="white" stroke-opacity="0.15" stroke-width="1.16667" stroke-dasharray="11.67 11.67"/>
<rect x="817.416" y="324.75" width="115.5" height="115.5" stroke="white" stroke-opacity="0.15" stroke-width="1.16667" stroke-dasharray="11.67 11.67"/>
<rect x="0.749349" y="441.417" width="115.5" height="115.5" stroke="white" stroke-opacity="0.15" stroke-width="1.16667" stroke-dasharray="11.67 11.67"/>
<rect x="117.416" y="441.417" width="115.5" height="115.5" stroke="white" stroke-opacity="0.15" stroke-width="1.16667" stroke-dasharray="11.67 11.67"/>
<rect x="234.082" y="441.417" width="115.5" height="115.5" stroke="white" stroke-opacity="0.15" stroke-width="1.16667" stroke-dasharray="11.67 11.67"/>
<rect x="350.749" y="441.417" width="115.5" height="115.5" stroke="white" stroke-opacity="0.15" stroke-width="1.16667" stroke-dasharray="11.67 11.67"/>
<rect x="467.416" y="441.417" width="115.5" height="115.5" stroke="white" stroke-opacity="0.15" stroke-width="1.16667" stroke-dasharray="11.67 11.67"/>
<rect x="584.082" y="441.417" width="115.5" height="115.5" stroke="white" stroke-opacity="0.15" stroke-width="1.16667" stroke-dasharray="11.67 11.67"/>
<rect x="700.749" y="441.417" width="115.5" height="115.5" stroke="white" stroke-opacity="0.15" stroke-width="1.16667" stroke-dasharray="11.67 11.67"/>
<rect x="817.416" y="441.417" width="115.5" height="115.5" stroke="white" stroke-opacity="0.15" stroke-width="1.16667" stroke-dasharray="11.67 11.67"/>
<rect x="0.749349" y="558.083" width="115.5" height="115.5" stroke="white" stroke-opacity="0.15" stroke-width="1.16667" stroke-dasharray="11.67 11.67"/>
<rect x="117.416" y="558.083" width="115.5" height="115.5" stroke="white" stroke-opacity="0.15" stroke-width="1.16667" stroke-dasharray="11.67 11.67"/>
<rect x="234.082" y="558.083" width="115.5" height="115.5" stroke="white" stroke-opacity="0.15" stroke-width="1.16667" stroke-dasharray="11.67 11.67"/>
<rect x="350.749" y="558.083" width="115.5" height="115.5" stroke="white" stroke-opacity="0.15" stroke-width="1.16667" stroke-dasharray="11.67 11.67"/>
<rect x="467.416" y="558.083" width="115.5" height="115.5" stroke="white" stroke-opacity="0.15" stroke-width="1.16667" stroke-dasharray="11.67 11.67"/>
<rect x="584.082" y="558.083" width="115.5" height="115.5" stroke="white" stroke-opacity="0.15" stroke-width="1.16667" stroke-dasharray="11.67 11.67"/>
<rect x="700.749" y="558.083" width="115.5" height="115.5" stroke="white" stroke-opacity="0.15" stroke-width="1.16667" stroke-dasharray="11.67 11.67"/>
<rect x="817.416" y="558.083" width="115.5" height="115.5" stroke="white" stroke-opacity="0.15" stroke-width="1.16667" stroke-dasharray="11.67 11.67"/>
<rect x="0.749349" y="674.75" width="115.5" height="115.5" stroke="white" stroke-opacity="0.15" stroke-width="1.16667" stroke-dasharray="11.67 11.67"/>
<rect x="117.416" y="674.75" width="115.5" height="115.5" stroke="white" stroke-opacity="0.15" stroke-width="1.16667" stroke-dasharray="11.67 11.67"/>
<rect x="234.082" y="674.75" width="115.5" height="115.5" stroke="white" stroke-opacity="0.15" stroke-width="1.16667" stroke-dasharray="11.67 11.67"/>
<rect x="350.749" y="674.75" width="115.5" height="115.5" stroke="white" stroke-opacity="0.15" stroke-width="1.16667" stroke-dasharray="11.67 11.67"/>
<rect x="467.416" y="674.75" width="115.5" height="115.5" stroke="white" stroke-opacity="0.15" stroke-width="1.16667" stroke-dasharray="11.67 11.67"/>
<rect x="584.082" y="674.75" width="115.5" height="115.5" stroke="white" stroke-opacity="0.15" stroke-width="1.16667" stroke-dasharray="11.67 11.67"/>
<rect x="700.749" y="674.75" width="115.5" height="115.5" stroke="white" stroke-opacity="0.15" stroke-width="1.16667" stroke-dasharray="11.67 11.67"/>
<rect x="817.416" y="674.75" width="115.5" height="115.5" stroke="white" stroke-opacity="0.15" stroke-width="1.16667" stroke-dasharray="11.67 11.67"/>
</g>
<defs>
<radialGradient id="paint0_radial_1_1670" cx="0" cy="0" r="1" gradientUnits="userSpaceOnUse" gradientTransform="translate(454.583 318.333) rotate(90) scale(747.833 647.291)">
<stop stop-color="#013281"/>
<stop offset="1" stop-color="#013281" stop-opacity="0"/>
</radialGradient>
</defs>
</svg>
