<svg width="909" height="762" viewBox="0 0 909 762" fill="none" xmlns="http://www.w3.org/2000/svg">
<mask id="mask0_0_1" style="mask-type:alpha" maskUnits="userSpaceOnUse" x="0" y="-143" width="909" height="1051">
<rect x="0.166016" y="-142.5" width="908.833" height="1050" fill="url(#paint0_radial_0_1)"/>
</mask>
<g mask="url(#mask0_0_1)">
<rect x="0.749349" y="-25.2497" width="115.5" height="115.5" stroke="white" stroke-opacity="0.15" stroke-width="1.16667" stroke-dasharray="11.67 11.67"/>
<rect x="117.416" y="-25.2497" width="115.5" height="115.5" stroke="white" stroke-opacity="0.15" stroke-width="1.16667" stroke-dasharray="11.67 11.67"/>
<rect x="234.082" y="-25.2497" width="115.5" height="115.5" stroke="white" stroke-opacity="0.15" stroke-width="1.16667" stroke-dasharray="11.67 11.67"/>
<rect x="350.749" y="-25.2497" width="115.5" height="115.5" stroke="white" stroke-opacity="0.15" stroke-width="1.16667" stroke-dasharray="11.67 11.67"/>
<rect x="467.416" y="-25.2497" width="115.5" height="115.5" stroke="white" stroke-opacity="0.15" stroke-width="1.16667" stroke-dasharray="11.67 11.67"/>
<rect x="584.082" y="-25.2497" width="115.5" height="115.5" stroke="white" stroke-opacity="0.15" stroke-width="1.16667" stroke-dasharray="11.67 11.67"/>
<rect x="700.749" y="-25.2497" width="115.5" height="115.5" stroke="white" stroke-opacity="0.15" stroke-width="1.16667" stroke-dasharray="11.67 11.67"/>
<rect x="817.416" y="-25.2497" width="115.5" height="115.5" stroke="white" stroke-opacity="0.15" stroke-width="1.16667" stroke-dasharray="11.67 11.67"/>
<rect x="0.749349" y="91.4168" width="115.5" height="115.5" stroke="white" stroke-opacity="0.15" stroke-width="1.16667" stroke-dasharray="11.67 11.67"/>
<rect x="117.416" y="91.4168" width="115.5" height="115.5" stroke="white" stroke-opacity="0.15" stroke-width="1.16667" stroke-dasharray="11.67 11.67"/>
<rect x="234.082" y="91.4168" width="115.5" height="115.5" stroke="white" stroke-opacity="0.15" stroke-width="1.16667" stroke-dasharray="11.67 11.67"/>
<rect x="350.749" y="91.4168" width="115.5" height="115.5" stroke="white" stroke-opacity="0.15" stroke-width="1.16667" stroke-dasharray="11.67 11.67"/>
<rect x="467.416" y="91.4168" width="115.5" height="115.5" stroke="white" stroke-opacity="0.15" stroke-width="1.16667" stroke-dasharray="11.67 11.67"/>
<rect x="584.082" y="91.4168" width="115.5" height="115.5" stroke="white" stroke-opacity="0.15" stroke-width="1.16667" stroke-dasharray="11.67 11.67"/>
<rect x="700.749" y="91.4168" width="115.5" height="115.5" stroke="white" stroke-opacity="0.15" stroke-width="1.16667" stroke-dasharray="11.67 11.67"/>
<rect x="817.416" y="91.4168" width="115.5" height="115.5" stroke="white" stroke-opacity="0.15" stroke-width="1.16667" stroke-dasharray="11.67 11.67"/>
<rect x="0.749349" y="208.083" width="115.5" height="115.5" stroke="white" stroke-opacity="0.15" stroke-width="1.16667" stroke-dasharray="11.67 11.67"/>
<rect x="117.416" y="208.083" width="115.5" height="115.5" stroke="white" stroke-opacity="0.15" stroke-width="1.16667" stroke-dasharray="11.67 11.67"/>
<rect x="234.082" y="208.083" width="115.5" height="115.5" stroke="white" stroke-opacity="0.15" stroke-width="1.16667" stroke-dasharray="11.67 11.67"/>
<rect x="350.749" y="208.083" width="115.5" height="115.5" stroke="white" stroke-opacity="0.15" stroke-width="1.16667" stroke-dasharray="11.67 11.67"/>
<rect x="467.416" y="208.083" width="115.5" height="115.5" stroke="white" stroke-opacity="0.15" stroke-width="1.16667" stroke-dasharray="11.67 11.67"/>
<rect x="584.082" y="208.083" width="115.5" height="115.5" stroke="white" stroke-opacity="0.15" stroke-width="1.16667" stroke-dasharray="11.67 11.67"/>
<rect x="700.749" y="208.083" width="115.5" height="115.5" stroke="white" stroke-opacity="0.15" stroke-width="1.16667" stroke-dasharray="11.67 11.67"/>
<rect x="817.416" y="208.083" width="115.5" height="115.5" stroke="white" stroke-opacity="0.15" stroke-width="1.16667" stroke-dasharray="11.67 11.67"/>
<rect x="0.749349" y="324.75" width="115.5" height="115.5" stroke="white" stroke-opacity="0.15" stroke-width="1.16667" stroke-dasharray="11.67 11.67"/>
<rect x="117.416" y="324.75" width="115.5" height="115.5" stroke="white" stroke-opacity="0.15" stroke-width="1.16667" stroke-dasharray="11.67 11.67"/>
<rect x="234.082" y="324.75" width="115.5" height="115.5" stroke="white" stroke-opacity="0.15" stroke-width="1.16667" stroke-dasharray="11.67 11.67"/>
<rect x="350.749" y="324.75" width="115.5" height="115.5" stroke="white" stroke-opacity="0.15" stroke-width="1.16667" stroke-dasharray="11.67 11.67"/>
<rect x="467.416" y="324.75" width="115.5" height="115.5" stroke="white" stroke-opacity="0.15" stroke-width="1.16667" stroke-dasharray="11.67 11.67"/>
<rect x="584.082" y="324.75" width="115.5" height="115.5" stroke="white" stroke-opacity="0.15" stroke-width="1.16667" stroke-dasharray="11.67 11.67"/>
<rect x="700.749" y="324.75" width="115.5" height="115.5" stroke="white" stroke-opacity="0.15" stroke-width="1.16667" stroke-dasharray="11.67 11.67"/>
<rect x="817.416" y="324.75" width="115.5" height="115.5" stroke="white" stroke-opacity="0.15" stroke-width="1.16667" stroke-dasharray="11.67 11.67"/>
<rect x="0.749349" y="441.417" width="115.5" height="115.5" stroke="white" stroke-opacity="0.15" stroke-width="1.16667" stroke-dasharray="11.67 11.67"/>
<rect x="117.416" y="441.417" width="115.5" height="115.5" stroke="white" stroke-opacity="0.15" stroke-width="1.16667" stroke-dasharray="11.67 11.67"/>
<rect x="234.082" y="441.417" width="115.5" height="115.5" stroke="white" stroke-opacity="0.15" stroke-width="1.16667" stroke-dasharray="11.67 11.67"/>
<rect x="350.749" y="441.417" width="115.5" height="115.5" stroke="white" stroke-opacity="0.15" stroke-width="1.16667" stroke-dasharray="11.67 11.67"/>
<rect x="467.416" y="441.417" width="115.5" height="115.5" stroke="white" stroke-opacity="0.15" stroke-width="1.16667" stroke-dasharray="11.67 11.67"/>
<rect x="584.082" y="441.417" width="115.5" height="115.5" stroke="white" stroke-opacity="0.15" stroke-width="1.16667" stroke-dasharray="11.67 11.67"/>
<rect x="700.749" y="441.417" width="115.5" height="115.5" stroke="white" stroke-opacity="0.15" stroke-width="1.16667" stroke-dasharray="11.67 11.67"/>
<rect x="817.416" y="441.417" width="115.5" height="115.5" stroke="white" stroke-opacity="0.15" stroke-width="1.16667" stroke-dasharray="11.67 11.67"/>
<rect x="0.749349" y="558.083" width="115.5" height="115.5" stroke="white" stroke-opacity="0.15" stroke-width="1.16667" stroke-dasharray="11.67 11.67"/>
<rect x="117.416" y="558.083" width="115.5" height="115.5" stroke="white" stroke-opacity="0.15" stroke-width="1.16667" stroke-dasharray="11.67 11.67"/>
<rect x="234.082" y="558.083" width="115.5" height="115.5" stroke="white" stroke-opacity="0.15" stroke-width="1.16667" stroke-dasharray="11.67 11.67"/>
<rect x="350.749" y="558.083" width="115.5" height="115.5" stroke="white" stroke-opacity="0.15" stroke-width="1.16667" stroke-dasharray="11.67 11.67"/>
<rect x="467.416" y="558.083" width="115.5" height="115.5" stroke="white" stroke-opacity="0.15" stroke-width="1.16667" stroke-dasharray="11.67 11.67"/>
<rect x="584.082" y="558.083" width="115.5" height="115.5" stroke="white" stroke-opacity="0.15" stroke-width="1.16667" stroke-dasharray="11.67 11.67"/>
<rect x="700.749" y="558.083" width="115.5" height="115.5" stroke="white" stroke-opacity="0.15" stroke-width="1.16667" stroke-dasharray="11.67 11.67"/>
<rect x="817.416" y="558.083" width="115.5" height="115.5" stroke="white" stroke-opacity="0.15" stroke-width="1.16667" stroke-dasharray="11.67 11.67"/>
<rect x="0.749349" y="674.75" width="115.5" height="115.5" stroke="white" stroke-opacity="0.15" stroke-width="1.16667" stroke-dasharray="11.67 11.67"/>
<rect x="117.416" y="674.75" width="115.5" height="115.5" stroke="white" stroke-opacity="0.15" stroke-width="1.16667" stroke-dasharray="11.67 11.67"/>
<rect x="234.082" y="674.75" width="115.5" height="115.5" stroke="white" stroke-opacity="0.15" stroke-width="1.16667" stroke-dasharray="11.67 11.67"/>
<rect x="350.749" y="674.75" width="115.5" height="115.5" stroke="white" stroke-opacity="0.15" stroke-width="1.16667" stroke-dasharray="11.67 11.67"/>
<rect x="467.416" y="674.75" width="115.5" height="115.5" stroke="white" stroke-opacity="0.15" stroke-width="1.16667" stroke-dasharray="11.67 11.67"/>
<rect x="584.082" y="674.75" width="115.5" height="115.5" stroke="white" stroke-opacity="0.15" stroke-width="1.16667" stroke-dasharray="11.67 11.67"/>
<rect x="700.749" y="674.75" width="115.5" height="115.5" stroke="white" stroke-opacity="0.15" stroke-width="1.16667" stroke-dasharray="11.67 11.67"/>
<rect x="817.416" y="674.75" width="115.5" height="115.5" stroke="white" stroke-opacity="0.15" stroke-width="1.16667" stroke-dasharray="11.67 11.67"/>
</g>
<g opacity="0.3">
<path d="M807.499 498.722V485.558L803.862 483.534C802.838 489.757 795.521 493.848 789.402 494.697L747.743 519.046L729.559 525.617L671.523 495.698L672.873 494.914C667.908 492.608 665.251 487.298 662.551 482.468L658.653 484.796L656.323 485.449V498.94C656.323 501.529 658.021 504.097 661.419 506.055L719.563 539.609C726.379 543.525 737.442 543.525 744.258 539.609L802.403 506.055C805.757 504.119 807.455 501.595 807.499 499.049C807.499 498.94 807.499 498.831 807.499 498.701V498.722Z" fill="url(#paint1_linear_0_1)"/>
<path opacity="0.3" d="M789.402 494.697L747.743 519.046L731.911 524.747V542.546C736.375 542.546 740.861 541.567 744.259 539.609L802.403 506.055C805.757 504.119 807.455 501.595 807.499 499.049C807.499 498.94 807.499 498.831 807.499 498.701V485.536L804.167 483.687H803.819C802.686 489.801 795.456 493.827 789.381 494.675L789.402 494.697Z" fill="#0F054C"/>
<path d="M719.564 526.227L661.419 492.673C654.603 488.735 654.603 482.359 661.419 478.421L719.564 444.867C726.38 440.951 737.442 440.951 744.259 444.867L802.403 478.421C809.219 482.359 809.219 488.735 802.403 492.673L744.259 526.227C737.442 530.143 726.38 530.143 719.564 526.227Z" fill="url(#paint2_linear_0_1)"/>
<g opacity="0.3">
<path d="M719.564 526.227L661.419 492.673C654.603 488.735 654.603 482.359 661.419 478.421L719.564 444.867C726.38 440.951 737.442 440.951 744.259 444.867L802.403 478.421C809.219 482.359 809.219 488.735 802.403 492.673L744.259 526.227C737.442 530.143 726.38 530.143 719.564 526.227Z" fill="#0F054C"/>
</g>
</g>
<path d="M731.911 483.838C727.948 483.838 723.963 482.968 720.957 481.227L662.813 447.674C659.786 445.933 658.131 443.583 658.131 441.059C658.131 438.535 659.786 436.185 662.813 434.444L720.957 400.89C727.011 397.409 736.833 397.409 742.887 400.89L801.031 434.444C804.058 436.185 805.713 438.535 805.713 441.059C805.713 443.583 804.058 445.933 801.031 447.674L742.887 481.227C739.86 482.968 735.896 483.838 731.933 483.838H731.911ZM721.458 480.335C727.229 483.643 736.593 483.664 742.364 480.335L800.509 446.782C803.209 445.237 804.69 443.191 804.69 441.059C804.69 438.926 803.209 436.881 800.509 435.314L742.364 401.761C736.593 398.432 727.229 398.432 721.458 401.761L663.314 435.314C660.613 436.859 659.132 438.905 659.132 441.059C659.132 443.213 660.613 445.237 663.314 446.803L721.458 480.357V480.335Z" fill="#42E8E0"/>
<path opacity="0.4" d="M807.499 428.177V408.289L803.862 406.265C802.838 412.489 795.521 416.58 789.402 417.428L747.743 441.777L729.559 448.349L671.523 418.429L672.873 417.646C667.908 415.339 665.251 410.03 662.551 405.199L658.653 407.527L656.323 408.18V428.417C656.323 431.006 658.021 433.574 661.419 435.532L719.563 469.086C726.379 473.002 737.442 473.024 744.258 469.086L802.403 435.532C805.757 433.596 807.455 431.071 807.499 428.526C807.499 428.417 807.499 428.308 807.499 428.177Z" fill="#42E8E0"/>
<path d="M807.499 410.486V397.322L803.862 395.298C802.838 401.521 795.521 405.612 789.402 406.461L747.743 430.81L729.559 437.381L671.523 407.462L672.873 406.678C667.908 404.372 665.251 399.063 662.551 394.232L658.653 396.56L656.323 397.213V410.704C656.323 413.293 658.021 415.861 661.419 417.819L719.563 451.373C726.379 455.29 737.442 455.311 744.258 451.373L802.403 417.819C805.757 415.883 807.455 413.359 807.499 410.813C807.499 410.704 807.499 410.595 807.499 410.465V410.486Z" fill="url(#paint3_linear_0_1)"/>
<path opacity="0.3" d="M789.402 406.461L747.743 430.81L731.911 436.511V454.311C736.375 454.311 740.861 453.331 744.259 451.373L802.403 417.82C805.757 415.883 807.456 413.359 807.499 410.813C807.499 410.704 807.499 410.595 807.499 410.465V397.3L804.167 395.451H803.819C802.686 401.565 795.456 405.591 789.381 406.439L789.402 406.461Z" fill="#23706D"/>
<path d="M719.564 437.991L661.419 404.437C654.603 400.499 654.603 394.123 661.419 390.185L719.564 356.631C726.38 352.715 737.442 352.715 744.259 356.631L802.403 390.185C809.219 394.102 809.219 400.499 802.403 404.437L744.259 437.991C737.442 441.929 726.38 441.929 719.564 437.991Z" fill="url(#paint4_linear_0_1)"/>
<path d="M731.911 430.919C728.426 430.919 724.92 430.157 722.263 428.612L678.274 403.241C675.595 401.696 674.115 399.607 674.115 397.344C674.115 395.081 675.595 392.992 678.274 391.447L722.263 366.075C727.577 363.007 736.223 363.007 741.536 366.075L785.526 391.447C788.204 392.992 789.685 395.081 789.685 397.344C789.685 399.607 788.204 401.696 785.526 403.241L741.536 428.612C738.879 430.157 735.395 430.919 731.911 430.919ZM731.911 364.922C728.644 364.922 725.356 365.64 722.873 367.076L678.884 392.448C676.575 393.775 675.312 395.516 675.312 397.322C675.312 399.128 676.575 400.869 678.884 402.196L722.873 427.568C727.86 430.44 735.983 430.44 740.97 427.568L784.959 402.196C787.268 400.869 788.531 399.128 788.531 397.322C788.531 395.516 787.268 393.775 784.959 392.448L740.97 367.076C738.466 365.64 735.199 364.922 731.911 364.922Z" fill="#42E8E0"/>
<path d="M802.404 404.459L744.259 438.013C737.443 441.951 726.38 441.951 719.564 438.013L661.419 404.459C658.371 402.697 656.694 400.455 656.367 398.149C655.975 400.999 657.652 403.915 661.419 406.091L719.564 439.645C726.38 443.561 737.443 443.561 744.259 439.645L802.404 406.091C806.171 403.915 807.848 400.999 807.456 398.149C807.129 400.455 805.452 402.697 802.404 404.459Z" fill="white"/>
<path style="mix-blend-mode:lighten" opacity="0.5" d="M707.543 259.496L674.921 278.318C665.122 283.975 656.389 281.865 653.166 273.03L588.619 96.8856C581.258 76.7579 551.141 94.949 544.76 123.367L505.039 300.665C502.143 313.612 493.149 326.537 482.957 332.434L473.462 337.918C464.251 343.227 455.91 341.704 452.273 334.023L439.12 306.192C430.975 288.937 403.82 305.213 396.415 331.781C392.996 344.032 384.438 355.761 374.9 361.266L366.603 366.053C356.542 371.841 347.657 369.469 344.63 360.156L332.652 323.382C325.901 302.623 295.697 319.901 288.772 348.493L249.007 512.626C245.893 525.53 236.855 538.194 226.751 543.851L180.845 569.528L707.521 259.517L707.543 259.496Z" fill="url(#paint5_linear_0_1)"/>
<path d="M222.461 586.348L221.916 585.391L261.333 563.348C271.372 557.734 280.213 545.331 283.328 532.493L323.092 368.36C327.97 348.189 343.802 334.154 355.497 333.697C361.551 333.436 365.949 336.852 368.018 343.206L379.996 379.979C381.28 383.918 383.654 386.638 386.899 387.878C390.884 389.401 395.958 388.575 401.163 385.572L409.46 380.785C418.824 375.388 427.382 363.66 430.736 351.627C436.093 332.391 451.119 319.488 461.942 318.574C467.561 318.117 471.982 320.728 474.464 325.95L487.617 353.781C489.098 356.914 491.45 359.047 494.39 359.982C498.245 361.179 503.101 360.287 508.023 357.436L517.517 351.953C527.513 346.187 536.507 333.261 539.36 320.532L579.081 143.234C583.545 123.324 599.617 108.593 611.245 107.831C617.256 107.461 621.742 110.595 623.985 116.687L688.51 292.854C689.86 296.531 692.234 299.077 695.392 300.23C699.333 301.666 704.342 300.818 709.481 297.858L734.939 283.171L735.483 284.128L710.026 298.816C704.603 301.949 699.268 302.82 695 301.275C691.537 300.013 688.924 297.249 687.465 293.245L622.94 117.079C620.849 111.4 616.864 108.614 611.311 108.941C600.074 109.681 584.503 124.042 580.148 143.495L540.427 320.793C537.465 334.001 528.493 346.905 518.083 352.91L508.589 358.394C503.384 361.397 498.245 362.332 494.085 361.027C490.819 360.004 488.249 357.676 486.638 354.26L473.484 326.429C471.198 321.576 467.256 319.27 462.051 319.683C451.577 320.576 437.03 333.153 431.803 351.953C428.384 364.247 419.63 376.237 410.026 381.764L401.729 386.551C396.219 389.728 390.797 390.576 386.507 388.944C382.957 387.574 380.344 384.614 378.95 380.349L366.973 343.576C365.035 337.635 361.071 334.567 355.518 334.828C344.434 335.263 328.82 349.255 324.138 368.664L284.373 532.798C281.193 545.919 272.134 558.605 261.834 564.349L222.417 586.392L222.461 586.348Z" fill="#42E8E0"/>
<path d="M583.251 89.2364L582.708 90.1797L617.825 110.349L618.368 109.406L583.251 89.2364Z" fill="#42E8E0"/>
<path d="M469.674 321.598L434.155 301.122L434.7 300.187L470.24 320.662L469.674 321.598Z" fill="#42E8E0"/>
<path d="M326.09 314.635L325.548 315.579L362.588 336.818L363.13 335.874L326.09 314.635Z" fill="#42E8E0"/>
<path d="M349.639 662.137C346.329 662.137 342.997 661.31 340.013 659.613L221.351 593.224C219.979 592.463 219.151 591.048 219.151 589.482C219.151 587.915 219.979 586.5 221.351 585.739L261.355 563.348C271.416 557.712 280.257 545.309 283.372 532.449L323.136 368.316C325.771 357.393 331.629 348.275 338.271 342.139L332.195 323.448C330.257 317.486 326.25 314.483 320.719 314.679C309.635 315.114 293.999 329.105 289.295 348.537L249.53 512.67C246.351 525.769 237.313 538.455 227.013 544.221L124.334 601.776L123.833 600.884L226.512 543.351C236.573 537.715 245.414 525.312 248.528 512.452L288.293 348.319C293.171 328.148 308.981 314.135 320.675 313.678C326.708 313.416 331.107 316.811 333.175 323.165L339.121 341.421C344.543 336.678 350.423 333.892 355.519 333.697C361.529 333.457 365.95 336.83 368.019 343.184L373.898 361.244L374.682 360.787C384.047 355.391 392.605 343.641 395.958 331.608C401.316 312.394 416.32 299.49 427.143 298.576C432.762 298.119 437.161 300.709 439.621 305.931L448.441 324.623C453.036 321.054 457.827 318.943 461.986 318.595C467.539 318.117 472.004 320.728 474.465 325.95L478.471 334.436L482.74 331.977C492.757 326.211 501.729 313.286 504.582 300.535L544.303 123.237C548.746 103.349 564.795 88.639 576.424 87.8774C582.369 87.4422 586.877 90.6191 589.12 96.7118L595.893 115.208C601.032 110.834 606.52 108.201 611.268 107.896C617.191 107.505 621.742 110.638 623.964 116.731L681.542 273.944L703.602 261.215C706.041 259.801 709.068 259.801 711.529 261.215L735.745 275.119C737.356 276.033 738.315 277.687 738.315 279.537C738.315 281.386 737.356 283.04 735.767 283.954L710.048 298.794C704.625 301.927 699.29 302.798 695.065 301.253C691.603 299.991 689.011 297.227 687.552 293.245L681.019 275.424L675.205 278.775C669.782 281.908 664.469 282.779 660.222 281.234C656.781 279.972 654.168 277.208 652.709 273.226L595.457 116.927C588.641 123.128 582.609 132.506 580.148 143.495L540.427 320.793C537.465 333.979 528.493 346.883 518.084 352.889L508.589 358.372C503.406 361.375 498.245 362.31 494.107 361.005C490.863 359.982 488.293 357.654 486.681 354.259L478.014 335.916L473.746 338.375C468.563 341.356 463.402 342.292 459.264 341.008C456.019 339.985 453.45 337.657 451.838 334.262L448.049 326.255C441.211 331.89 434.874 340.834 431.76 351.931C428.341 364.225 419.587 376.193 410.005 381.72L401.708 386.507C396.198 389.684 390.797 390.533 386.529 388.901C382.979 387.552 380.388 384.571 378.994 380.327L373.289 362.811L366.864 366.51C361.355 369.687 355.954 370.536 351.686 368.904C348.136 367.555 345.545 364.573 344.151 360.33L338.641 343.401C332.261 349.451 326.621 358.263 324.116 368.643L284.351 532.776C281.172 545.875 272.135 558.561 261.834 564.306L221.83 586.696C220.784 587.284 220.153 588.35 220.153 589.547C220.153 590.744 220.784 591.81 221.83 592.397L340.493 658.786C346.285 662.05 353.406 661.963 359.112 658.569L568.41 535.365L568.933 536.236L359.634 659.439C356.564 661.267 353.08 662.181 349.617 662.181L349.639 662.137ZM374.203 362.245L379.974 379.979C381.259 383.918 383.655 386.66 386.899 387.9C390.884 389.423 395.98 388.618 401.207 385.572L409.504 380.784C418.868 375.366 427.426 363.638 430.78 351.605C433.959 340.203 440.514 331.02 447.613 325.254L438.685 306.345C436.377 301.47 432.435 299.142 427.208 299.577C416.712 300.469 402.165 313.068 396.917 331.869C393.498 344.163 384.743 356.131 375.161 361.658L374.182 362.223L374.203 362.245ZM339.491 342.596L345.153 359.982C346.438 363.921 348.833 366.662 352.078 367.903C356.063 369.448 361.137 368.599 366.385 365.596L372.984 361.788L367.039 343.532C365.101 337.57 361.137 334.61 355.562 334.763C350.641 334.959 344.848 337.809 339.491 342.618V342.596ZM478.885 335.35L487.596 353.781C489.077 356.914 491.429 359.068 494.39 360.004C498.267 361.223 503.123 360.309 508.045 357.458L517.539 351.975C527.557 346.208 536.529 333.261 539.382 320.532L579.103 143.234C581.651 131.897 587.944 122.236 595.044 115.882L588.14 97.0164C586.05 91.3154 582.043 88.5084 576.468 88.8566C565.209 89.5964 549.617 103.98 545.262 123.433L505.54 300.731C502.579 313.939 493.607 326.82 483.197 332.826L478.863 335.328L478.885 335.35ZM448.855 325.558L452.731 333.784C454.212 336.917 456.564 339.071 459.526 340.007C463.402 341.225 468.258 340.311 473.18 337.461L477.535 334.959L473.485 326.407C471.176 321.533 467.235 319.183 462.008 319.64C457.958 319.988 453.319 322.077 448.811 325.58L448.855 325.558ZM681.869 274.88L688.445 292.875C689.795 296.574 692.191 299.12 695.348 300.274C699.312 301.71 704.321 300.861 709.482 297.88L735.2 283.04C736.485 282.3 737.247 280.973 737.247 279.493C737.247 278.013 736.485 276.686 735.2 275.946L710.984 262.042C708.85 260.823 706.215 260.823 704.081 262.042L681.869 274.858V274.88ZM596.241 116.187L653.624 272.856C654.974 276.556 657.369 279.101 660.527 280.255C664.49 281.691 669.499 280.842 674.66 277.861L680.627 274.423L622.984 117.057C620.893 111.356 616.821 108.527 611.311 108.897C606.651 109.202 601.272 111.835 596.241 116.187Z" fill="#42E8E0"/>
<path style="mix-blend-mode:lighten" opacity="0.5" d="M735.201 283.127L709.743 297.815C699.944 303.472 691.211 301.362 687.988 292.527L623.463 116.361C616.102 96.2333 585.985 114.424 579.604 142.842L539.883 320.14C536.987 333.087 527.993 346.013 517.801 351.91L508.306 357.393C499.095 362.702 490.754 361.179 487.117 353.498L473.964 325.667C465.819 308.412 438.663 324.688 431.259 351.257C427.84 363.507 419.282 375.236 409.744 380.741L401.447 385.528C391.386 391.316 382.501 388.944 379.474 379.631L367.496 342.857C360.745 322.099 330.541 339.376 323.616 367.968L283.851 532.101C280.737 545.005 271.699 557.669 261.595 563.327L215.689 589.003L735.179 283.149L735.201 283.127Z" fill="url(#paint6_linear_0_1)"/>
<g opacity="0.3">
<path d="M683.698 568.005V554.818L680.039 552.795C679.016 559.018 671.677 563.109 665.558 563.958L623.855 588.328L605.649 594.9L547.548 564.937L548.898 564.153C543.933 561.825 541.255 556.537 538.576 551.685L534.656 554.013L532.326 554.666V568.179C532.326 570.768 534.025 573.336 537.444 575.316L595.653 608.891C602.47 612.83 613.554 612.83 620.37 608.891L678.58 575.316C681.934 573.379 683.632 570.855 683.698 568.309C683.698 568.201 683.698 568.092 683.698 567.961V568.005Z" fill="url(#paint7_linear_0_1)"/>
<path opacity="0.3" d="M665.579 563.979L623.876 588.35L608.023 594.073V611.894C612.509 611.894 616.973 610.915 620.392 608.935L678.602 575.36C681.956 573.423 683.654 570.899 683.72 568.353C683.72 568.244 683.72 568.135 683.72 568.005V554.819L680.388 552.969H680.039C678.907 559.083 671.655 563.131 665.601 563.958L665.579 563.979Z" fill="#0F054C"/>
<path d="M595.654 595.553L537.444 561.977C530.628 558.039 530.628 551.642 537.444 547.725L595.654 514.15C602.47 510.211 613.555 510.211 620.371 514.15L678.581 547.725C685.397 551.663 685.397 558.061 678.581 561.977L620.371 595.553C613.555 599.491 602.47 599.491 595.654 595.553Z" fill="url(#paint8_linear_0_1)"/>
<g opacity="0.3">
<path d="M595.654 595.553L537.444 561.977C530.628 558.039 530.628 551.642 537.444 547.725L595.654 514.15C602.47 510.211 613.555 510.211 620.371 514.15L678.581 547.725C685.397 551.663 685.397 558.061 678.581 561.977L620.371 595.553C613.555 599.491 602.47 599.491 595.654 595.553Z" fill="#0F054C"/>
</g>
</g>
<path d="M608.023 555.319C604.06 555.319 600.075 554.449 597.048 552.708L538.838 519.133C535.811 517.392 534.156 515.042 534.156 512.518C534.156 509.993 535.811 507.643 538.838 505.903L597.048 472.327C603.102 468.846 612.945 468.846 618.999 472.327L677.209 505.903C680.236 507.643 681.891 509.993 681.891 512.518C681.891 515.042 680.236 517.392 677.209 519.133L618.999 552.708C615.972 554.449 612.008 555.319 608.023 555.319ZM597.549 551.816C603.319 555.145 612.705 555.145 618.476 551.816L676.686 518.24C679.386 516.695 680.867 514.65 680.867 512.496C680.867 510.342 679.386 508.318 676.686 506.751L618.476 473.176C612.705 469.847 603.319 469.847 597.549 473.176L539.339 506.751C536.638 508.296 535.158 510.342 535.158 512.496C535.158 514.65 536.638 516.674 539.339 518.24L597.549 551.816Z" fill="#42E8E0"/>
<path opacity="0.4" d="M683.698 499.592V479.682L680.039 477.659C679.016 483.882 671.677 487.973 665.558 488.821L623.855 513.192L605.649 519.764L547.548 489.8L548.898 489.017C543.933 486.689 541.255 481.401 538.576 476.571L534.656 478.899L532.326 479.552V499.81C532.326 502.399 534.025 504.967 537.444 506.947L595.653 540.522C602.47 544.461 613.554 544.461 620.37 540.522L678.58 506.947C681.934 505.01 683.632 502.486 683.698 499.94C683.698 499.832 683.698 499.723 683.698 499.592Z" fill="#42E8E0"/>
<path d="M683.698 481.88V468.693L680.039 466.67C679.016 472.893 671.677 476.984 665.558 477.833L623.855 502.203L605.649 508.775L547.548 478.812L548.898 478.028C543.933 475.7 541.255 470.412 538.576 465.56L534.656 467.888L532.326 468.541V482.054C532.326 484.643 534.025 487.211 537.444 489.191L595.653 522.766C602.47 526.705 613.554 526.705 620.37 522.766L678.58 489.191C681.934 487.254 683.632 484.73 683.698 482.184C683.698 482.076 683.698 481.967 683.698 481.836V481.88Z" fill="url(#paint9_linear_0_1)"/>
<path opacity="0.3" d="M665.579 477.854L623.876 502.225L608.023 507.948V525.769C612.509 525.769 616.973 524.79 620.392 522.81L678.602 489.235C681.956 487.298 683.654 484.774 683.72 482.228C683.72 482.119 683.72 482.01 683.72 481.88V468.694L680.388 466.844H680.039C678.907 472.958 671.655 477.006 665.601 477.833L665.579 477.854Z" fill="#42E8E0"/>
<path d="M548.899 478.05L604.06 446.216C606.237 444.954 609.787 444.954 611.987 446.216L666.189 477.485L665.58 477.833C671.699 476.984 679.038 472.893 680.061 466.67L619.238 432.856L601.534 428.177L587.117 436.642L538.576 465.582C541.255 470.413 543.933 475.722 548.899 478.05Z" fill="url(#paint10_linear_0_1)"/>
<path opacity="0.3" d="M608.023 429.918L601.534 428.199L587.117 436.663L538.576 465.604C541.255 470.435 543.933 475.744 548.899 478.072L604.06 446.238C605.149 445.607 606.586 445.302 608.023 445.302V429.94V429.918Z" fill="#0F054C"/>
<path d="M595.654 509.428L537.444 475.852C530.628 471.914 530.628 465.517 537.444 461.6L595.654 428.025C602.47 424.086 613.555 424.086 620.371 428.025L678.581 461.6C685.397 465.538 685.397 471.936 678.581 475.852L620.371 509.428C613.555 513.366 602.47 513.366 595.654 509.428ZM611.965 432.855C609.787 431.593 606.237 431.593 604.038 432.855L545.828 466.431C543.65 467.693 543.65 469.738 545.828 471L604.038 504.575C606.216 505.837 609.765 505.837 611.965 504.575L670.175 471C672.352 469.738 672.352 467.693 670.175 466.431L611.965 432.855Z" fill="url(#paint11_linear_0_1)"/>
<path d="M670.173 466.431L611.964 432.856C609.786 431.594 606.236 431.594 604.037 432.856L545.827 466.431C544.368 467.28 543.889 468.455 544.368 469.543C544.607 468.999 545.086 468.498 545.827 468.085L604.037 434.509C606.214 433.247 609.764 433.247 611.964 434.509L670.173 468.085C670.892 468.498 671.371 469.02 671.633 469.543C672.112 468.476 671.633 467.28 670.173 466.431Z" fill="white"/>
<path d="M678.579 475.853L620.369 509.428C613.553 513.366 602.469 513.366 595.653 509.428L537.443 475.853C534.394 474.09 532.717 471.849 532.39 469.542C531.999 472.393 533.675 475.331 537.443 477.485L595.653 511.06C602.469 514.998 613.553 514.998 620.369 511.06L678.579 477.485C682.347 475.309 684.024 472.371 683.632 469.542C683.305 471.849 681.628 474.09 678.579 475.853Z" fill="white"/>
<path d="M597.286 508.47L539.076 474.895C533.175 471.479 533.175 465.93 539.076 462.536L597.286 428.96C603.188 425.544 612.813 425.544 618.715 428.96L676.925 462.536C682.826 465.952 682.826 471.501 676.925 474.895L618.715 508.47C612.813 511.887 603.188 511.887 597.286 508.47ZM613.619 431.898C610.527 430.114 605.496 430.114 602.426 431.898L544.216 465.473C541.123 467.257 541.123 470.151 544.216 471.936L602.426 505.511C605.518 507.295 610.548 507.295 613.641 505.511L671.851 471.936C674.943 470.151 674.943 467.257 671.851 465.473L613.641 431.898H613.619Z" fill="url(#paint12_linear_0_1)"/>
<path opacity="0.4" d="M611.964 432.855C609.787 431.593 606.237 431.593 604.038 432.855L545.828 466.431C543.65 467.693 543.65 469.738 545.828 471L604.038 504.575C606.215 505.837 609.765 505.837 611.964 504.575L670.174 471C672.352 469.738 672.352 467.693 670.174 466.431L611.964 432.855Z" fill="#42E8E0"/>
<path style="mix-blend-mode:lighten" opacity="0.5" d="M671.808 468.672V261.215H544.194V468.672C544.194 469.521 544.717 470.369 545.828 471L604.038 504.575C606.215 505.837 609.765 505.837 611.964 504.575L670.174 471C671.285 470.369 671.829 469.521 671.808 468.672Z" fill="url(#paint13_linear_0_1)"/>
<path d="M547.874 402.871C541.668 409.203 525.335 417.667 520.261 412.706C515.187 407.745 523.332 391.251 529.538 384.919C535.745 378.587 544.869 377.477 549.943 382.438C555.017 387.4 554.081 396.539 547.874 402.871Z" fill="url(#paint14_radial_0_1)"/>
<path style="mix-blend-mode:lighten" d="M547.874 402.871C541.668 409.203 525.335 417.667 520.261 412.706C515.187 407.745 523.332 391.251 529.538 384.919C535.745 378.587 544.869 377.477 549.943 382.438C555.017 387.4 554.081 396.539 547.874 402.871Z" fill="url(#paint15_linear_0_1)"/>
<path d="M548.594 385.68C548.202 385.68 547.832 385.615 547.44 385.441C545.915 384.81 545.197 383.069 545.85 381.546L555.062 359.547C555.693 358.024 557.435 357.306 558.96 357.958C560.484 358.589 561.203 360.33 560.549 361.853L551.338 383.852C550.859 385.006 549.748 385.68 548.594 385.68Z" fill="#42E8E0"/>
<path d="M665.673 377.673L660.142 379.91L679.24 427.069L684.771 424.833L665.673 377.673Z" fill="#42E8E0"/>
<path d="M582.086 353.019C580.105 363.051 570.349 369.578 560.309 367.577C550.27 365.596 543.737 355.848 545.741 345.817C547.722 335.786 557.478 329.258 567.518 331.26C577.557 333.24 584.09 342.988 582.086 353.019Z" fill="url(#paint16_radial_0_1)"/>
<g style="mix-blend-mode:lighten">
<path d="M573.855 333.805C582.478 339.289 585.026 350.734 579.538 359.373C574.051 367.99 562.596 370.536 553.951 365.052C545.327 359.569 542.779 348.123 548.267 339.484C553.755 330.868 565.209 328.322 573.855 333.805Z" fill="url(#paint17_linear_0_1)"/>
</g>
<path d="M656.302 383.048C656.302 418.995 634.874 448.131 608.458 448.131C582.043 448.131 560.614 418.995 560.614 383.048C560.614 347.101 582.043 336.33 608.458 336.33C634.874 336.33 656.302 347.101 656.302 383.048Z" fill="url(#paint18_radial_0_1)"/>
<g style="mix-blend-mode:lighten">
<path d="M656.302 383.048C656.302 418.995 634.874 448.131 608.458 448.131C582.043 448.131 560.614 418.995 560.614 383.048C560.614 347.101 582.043 336.33 608.458 336.33C634.874 336.33 656.302 347.101 656.302 383.048Z" fill="url(#paint19_linear_0_1)"/>
</g>
<path d="M631.564 368.991C618.802 376.346 598.136 376.346 585.396 368.991C572.635 361.636 572.635 349.712 585.396 342.357C598.158 335.002 618.824 335.002 631.564 342.357C644.325 349.712 644.325 361.636 631.564 368.991Z" fill="#042726"/>
<path d="M585.375 347.362C598.136 340.007 618.803 340.007 631.542 347.362C636.812 350.408 639.905 354.216 640.819 358.176C642.126 352.562 639.034 346.665 631.542 342.357C618.781 335.002 598.115 335.002 585.375 342.357C577.884 346.665 574.813 352.562 576.098 358.176C577.013 354.216 580.105 350.408 585.375 347.362Z" fill="#42E8E0"/>
<path d="M594.217 286.065C594.217 294.834 588.054 305.518 580.453 309.892C572.853 314.287 566.69 310.718 566.69 301.949C566.69 293.18 572.853 282.496 580.453 278.122C588.054 273.727 594.217 277.295 594.217 286.065Z" fill="#BCBEFF"/>
<path d="M610.353 359.46C637.306 359.46 659.155 337.628 659.155 310.697C659.155 283.765 637.306 261.933 610.353 261.933C583.4 261.933 561.551 283.765 561.551 310.697C561.551 337.628 583.4 359.46 610.353 359.46Z" fill="url(#paint20_radial_0_1)"/>
<g style="mix-blend-mode:lighten">
<path d="M610.353 359.46C637.306 359.46 659.155 337.628 659.155 310.697C659.155 283.765 637.306 261.933 610.353 261.933C583.4 261.933 561.551 283.765 561.551 310.697C561.551 337.628 583.4 359.46 610.353 359.46Z" fill="url(#paint21_linear_0_1)"/>
</g>
<path d="M595.131 333.805C593.89 343.401 586.638 346.404 578.951 340.529C571.264 334.654 566.037 322.12 567.278 312.524C568.52 302.928 575.771 299.926 583.459 305.801C591.146 311.676 596.372 324.209 595.131 333.805Z" fill="#042726"/>
<path d="M588.794 325.493C588.337 328.975 585.702 330.063 582.914 327.93C580.127 325.798 578.232 321.25 578.668 317.747C579.125 314.265 581.76 313.177 584.548 315.31C587.335 317.442 589.23 321.99 588.794 325.493Z" fill="#42E8E0"/>
<path d="M582.653 339.136C574.966 333.261 569.739 320.728 570.98 311.132C571.481 307.215 572.984 304.408 575.118 302.841C571.089 303.211 568.062 306.628 567.278 312.524C566.037 322.12 571.264 334.654 578.951 340.529C583.502 344.011 587.901 344.359 590.994 342.096C588.489 342.335 585.593 341.399 582.653 339.136Z" fill="#42E8E0"/>
<path d="M579.626 340.203C571.939 334.328 566.712 321.794 567.953 312.198C568.541 307.759 570.392 304.735 572.984 303.342C570.044 304.561 567.91 307.694 567.278 312.503C566.037 322.099 571.264 334.632 578.951 340.508C583.088 343.663 587.074 344.25 590.079 342.64C587.161 343.837 583.437 343.141 579.604 340.203H579.626Z" fill="#42E8E0"/>
<path d="M681.085 382.351C679.103 392.383 669.347 398.91 659.308 396.909C649.268 394.928 642.735 385.18 644.739 375.149C646.72 365.118 656.477 358.59 666.516 360.592C676.555 362.572 683.088 372.32 681.085 382.351Z" fill="url(#paint22_radial_0_1)"/>
<g style="mix-blend-mode:lighten">
<path d="M681.085 382.351C679.103 392.383 669.347 398.91 659.308 396.909C649.268 394.928 642.735 385.18 644.739 375.149C646.72 365.118 656.477 358.59 666.516 360.592C676.555 362.572 683.088 372.32 681.085 382.351Z" fill="url(#paint23_linear_0_1)"/>
</g>
<path d="M692.452 440.101C691.407 448.892 683.632 465.56 676.576 464.733C669.542 463.885 665.906 445.868 666.951 437.077C667.996 428.286 674.551 421.823 681.607 422.672C688.641 423.52 693.497 431.332 692.452 440.123V440.101Z" fill="url(#paint24_radial_0_1)"/>
<path style="mix-blend-mode:lighten" d="M692.452 440.101C691.407 448.892 683.632 465.56 676.576 464.733C669.542 463.885 665.906 445.868 666.951 437.077C667.996 428.286 674.551 421.823 681.607 422.672C688.641 423.52 693.497 431.332 692.452 440.123V440.101Z" fill="url(#paint25_linear_0_1)"/>
<g opacity="0.3">
<path d="M807.499 642.51V629.345L803.862 627.321C802.838 633.545 795.521 637.635 789.402 638.484L747.743 662.833L729.559 669.405L671.523 639.485L672.873 638.702C667.908 636.395 665.251 631.086 662.551 626.255L658.653 628.583L656.323 629.236V642.727C656.323 645.317 658.021 647.884 661.419 649.843L719.563 683.396C726.379 687.313 737.442 687.313 744.258 683.396L802.403 649.843C805.757 647.906 807.455 645.382 807.499 642.836C807.499 642.727 807.499 642.618 807.499 642.488V642.51Z" fill="url(#paint26_linear_0_1)"/>
<path opacity="0.3" d="M789.402 638.484L747.743 662.833L731.911 668.534V686.334C736.375 686.334 740.861 685.354 744.259 683.396L802.403 649.843C805.757 647.906 807.455 645.382 807.499 642.836C807.499 642.727 807.499 642.618 807.499 642.488V629.323L804.167 627.474H803.819C802.686 633.588 795.456 637.614 789.381 638.462L789.402 638.484Z" fill="#0F054C"/>
<path d="M719.564 670.014L661.419 636.46C654.603 632.522 654.603 626.146 661.419 622.208L719.564 588.654C726.38 584.738 737.442 584.738 744.259 588.654L802.403 622.208C809.219 626.125 809.219 632.522 802.403 636.46L744.259 670.014C737.442 673.931 726.38 673.931 719.564 670.014Z" fill="url(#paint27_linear_0_1)"/>
<g opacity="0.3">
<path d="M719.564 670.014L661.419 636.46C654.603 632.522 654.603 626.146 661.419 622.208L719.564 588.654C726.38 584.738 737.442 584.738 744.259 588.654L802.403 622.208C809.219 626.125 809.219 632.522 802.403 636.46L744.259 670.014C737.442 673.931 726.38 673.931 719.564 670.014Z" fill="#0F054C"/>
</g>
</g>
<path d="M731.911 627.604C727.948 627.604 723.963 626.734 720.957 624.993L662.813 591.44C659.786 589.699 658.131 587.349 658.131 584.825C658.131 582.301 659.786 579.951 662.813 578.21L720.957 544.657C727.011 541.175 736.833 541.175 742.887 544.657L801.031 578.21C804.058 579.951 805.713 582.301 805.713 584.825C805.713 587.349 804.058 589.699 801.031 591.44L742.887 624.993C739.86 626.734 735.896 627.604 731.933 627.604H731.911ZM731.911 543.068C728.122 543.068 724.333 543.895 721.458 545.549L663.314 579.102C660.613 580.647 659.132 582.693 659.132 584.847C659.132 587.001 660.613 589.025 663.314 590.591L721.458 624.145C727.229 627.474 736.593 627.474 742.364 624.145L800.509 590.591C803.209 589.046 804.69 587.001 804.69 584.847C804.69 582.693 803.209 580.669 800.509 579.102L742.364 545.549C739.49 543.895 735.7 543.068 731.911 543.068Z" fill="#42E8E0"/>
<path opacity="0.4" d="M807.499 571.965V552.077L803.862 550.053C802.838 556.276 795.521 560.367 789.402 561.216L747.743 585.565L729.559 592.136L671.523 562.217L672.873 561.433C667.908 559.127 665.251 553.817 662.551 548.987L658.653 551.315L656.323 551.968V572.204C656.323 574.794 658.021 577.361 661.419 579.32L719.563 612.873C726.379 616.79 737.442 616.79 744.258 612.873L802.403 579.32C805.757 577.383 807.455 574.859 807.499 572.313C807.499 572.204 807.499 572.096 807.499 571.965Z" fill="#42E8E0"/>
<path d="M807.499 554.274V541.11L803.862 539.086C802.838 545.309 795.521 549.4 789.402 550.249L747.743 574.598L729.559 581.169L671.523 551.25L672.873 550.466C667.908 548.16 665.251 542.85 662.551 538.02L658.653 540.348L656.323 541.001V554.492C656.323 557.081 658.021 559.649 661.419 561.607L719.563 595.161C726.379 599.077 737.442 599.077 744.258 595.161L802.403 561.607C805.757 559.671 807.455 557.147 807.499 554.601C807.499 554.492 807.499 554.383 807.499 554.253V554.274Z" fill="url(#paint28_linear_0_1)"/>
<path opacity="0.3" d="M789.402 550.249L747.743 574.598L731.911 580.299V598.098C736.375 598.098 740.861 597.119 744.259 595.161L802.403 561.607C805.757 559.671 807.456 557.146 807.499 554.601C807.499 554.492 807.499 554.383 807.499 554.252V541.088L804.167 539.238H803.819C802.686 545.353 795.456 549.378 789.381 550.227L789.402 550.249Z" fill="#23706D"/>
<path d="M719.564 581.778L661.419 548.225C654.603 544.287 654.603 537.911 661.419 533.972L719.564 500.419C726.38 496.502 737.442 496.502 744.259 500.419L802.403 533.972C809.219 537.889 809.219 544.287 802.403 548.225L744.259 581.778C737.442 585.717 726.38 585.695 719.564 581.778Z" fill="url(#paint29_linear_0_1)"/>
<path d="M802.404 548.247L744.259 581.8C737.443 585.739 726.38 585.717 719.564 581.8L661.419 548.247C658.371 546.485 656.694 544.243 656.367 541.937C655.975 544.787 657.652 547.703 661.419 549.879L719.564 583.432C726.38 587.349 737.443 587.371 744.259 583.432L802.404 549.879C806.171 547.703 807.848 544.787 807.456 541.937C807.129 544.243 805.452 546.485 802.404 548.247Z" fill="white"/>
<defs>
<radialGradient id="paint0_radial_0_1" cx="0" cy="0" r="1" gradientUnits="userSpaceOnUse" gradientTransform="translate(454.583 318.333) rotate(90) scale(747.833 647.291)">
<stop stop-color="#013281"/>
<stop offset="1" stop-color="#013281" stop-opacity="0"/>
</radialGradient>
<linearGradient id="paint1_linear_0_1" x1="671.349" y1="459.403" x2="791.271" y2="528.681" gradientUnits="userSpaceOnUse">
<stop stop-color="#153C3B"/>
<stop offset="0.23" stop-color="#153C3B"/>
<stop offset="0.68" stop-color="#153C3B"/>
<stop offset="1" stop-color="#153C3B"/>
</linearGradient>
<linearGradient id="paint2_linear_0_1" x1="656.301" y1="485.558" x2="807.499" y2="485.558" gradientUnits="userSpaceOnUse">
<stop stop-color="#E9E9FD"/>
<stop offset="0.36" stop-color="#D2D2F9"/>
<stop offset="0.71" stop-color="#C4C3F6"/>
<stop offset="1" stop-color="#C0BFF6"/>
</linearGradient>
<linearGradient id="paint3_linear_0_1" x1="671.349" y1="371.167" x2="791.271" y2="440.467" gradientUnits="userSpaceOnUse">
<stop stop-color="#BCBEFF"/>
<stop offset="0.23" stop-color="#AAADF7"/>
<stop offset="0.68" stop-color="#7B82E5"/>
<stop offset="1" stop-color="#5761D7"/>
</linearGradient>
<linearGradient id="paint4_linear_0_1" x1="123.832" y1="397.322" x2="126.01" y2="397.322" gradientUnits="userSpaceOnUse">
<stop stop-color="#E9E9FD"/>
<stop offset="0.36" stop-color="#D2D2F9"/>
<stop offset="0.71" stop-color="#C4C3F6"/>
<stop offset="1" stop-color="#C0BFF6"/>
</linearGradient>
<linearGradient id="paint5_linear_0_1" x1="707.543" y1="328.931" x2="180.867" y2="328.931" gradientUnits="userSpaceOnUse">
<stop stop-color="#42E8E0"/>
<stop offset="0.11" stop-color="#36B5BF"/>
<stop offset="0.22" stop-color="#2C87A0"/>
<stop offset="0.34" stop-color="#235F86"/>
<stop offset="0.46" stop-color="#1B3E71"/>
<stop offset="0.58" stop-color="#162560"/>
<stop offset="0.71" stop-color="#121355"/>
<stop offset="0.85" stop-color="#0F084E"/>
<stop offset="1" stop-color="#0F054C"/>
</linearGradient>
<linearGradient id="paint6_linear_0_1" x1="735.201" y1="348.428" x2="215.689" y2="348.428" gradientUnits="userSpaceOnUse">
<stop stop-color="#42E8E0"/>
<stop offset="0.11" stop-color="#36B5BF"/>
<stop offset="0.22" stop-color="#2C87A0"/>
<stop offset="0.34" stop-color="#235F86"/>
<stop offset="0.46" stop-color="#1B3E71"/>
<stop offset="0.58" stop-color="#162560"/>
<stop offset="0.71" stop-color="#121355"/>
<stop offset="0.85" stop-color="#0F084E"/>
<stop offset="1" stop-color="#0F054C"/>
</linearGradient>
<linearGradient id="paint7_linear_0_1" x1="547.396" y1="528.642" x2="667.448" y2="598.007" gradientUnits="userSpaceOnUse">
<stop stop-color="#42E8E0"/>
<stop offset="0.23" stop-color="#42E8E0"/>
<stop offset="0.68" stop-color="#153C3B"/>
<stop offset="1" stop-color="#153C3B"/>
</linearGradient>
<linearGradient id="paint8_linear_0_1" x1="532.326" y1="554.84" x2="683.698" y2="554.84" gradientUnits="userSpaceOnUse">
<stop stop-color="#E9E9FD"/>
<stop offset="0.36" stop-color="#D2D2F9"/>
<stop offset="0.71" stop-color="#C4C3F6"/>
<stop offset="1" stop-color="#C0BFF6"/>
</linearGradient>
<linearGradient id="paint9_linear_0_1" x1="547.396" y1="442.517" x2="682.578" y2="570.426" gradientUnits="userSpaceOnUse">
<stop stop-color="#42E8E0"/>
<stop offset="0.23" stop-color="#42E8E0"/>
<stop offset="0.68" stop-color="#153C3B"/>
<stop offset="1" stop-color="#153C3B"/>
</linearGradient>
<linearGradient id="paint10_linear_0_1" x1="554.604" y1="437.86" x2="661.661" y2="499.71" gradientUnits="userSpaceOnUse">
<stop offset="0.24" stop-color="#5761D7"/>
<stop offset="0.39" stop-color="#7A81E5"/>
<stop offset="0.55" stop-color="#979BF0"/>
<stop offset="0.7" stop-color="#ABAEF8"/>
<stop offset="0.85" stop-color="#B7BAFD"/>
<stop offset="1" stop-color="#BCBEFF"/>
</linearGradient>
<linearGradient id="paint11_linear_0_1" x1="532.326" y1="468.715" x2="683.698" y2="468.715" gradientUnits="userSpaceOnUse">
<stop stop-color="#E9E9FD"/>
<stop offset="0.36" stop-color="#D2D2F9"/>
<stop offset="0.71" stop-color="#C4C3F6"/>
<stop offset="1" stop-color="#C0BFF6"/>
</linearGradient>
<linearGradient id="paint12_linear_0_1" x1="534.656" y1="468.715" x2="681.367" y2="468.715" gradientUnits="userSpaceOnUse">
<stop stop-color="#E9E9FD"/>
<stop offset="0.36" stop-color="#D2D2F9"/>
<stop offset="0.71" stop-color="#C4C3F6"/>
<stop offset="1" stop-color="#C0BFF6"/>
</linearGradient>
<linearGradient id="paint13_linear_0_1" x1="608.001" y1="505.511" x2="608.001" y2="261.215" gradientUnits="userSpaceOnUse">
<stop stop-color="#42E8E0"/>
<stop offset="0.11" stop-color="#36B5BF"/>
<stop offset="0.22" stop-color="#2C87A0"/>
<stop offset="0.34" stop-color="#235F86"/>
<stop offset="0.46" stop-color="#1B3E71"/>
<stop offset="0.58" stop-color="#162560"/>
<stop offset="0.71" stop-color="#121355"/>
<stop offset="0.85" stop-color="#0F084E"/>
<stop offset="1" stop-color="#0F054C"/>
</linearGradient>
<radialGradient id="paint14_radial_0_1" cx="0" cy="0" r="1" gradientUnits="userSpaceOnUse" gradientTransform="translate(546.636 374.416) rotate(44.3772) scale(32.9445 54.071)">
<stop stop-color="#C0BFF6"/>
<stop offset="1" stop-color="#393091"/>
</radialGradient>
<linearGradient id="paint15_linear_0_1" x1="543.462" y1="381.758" x2="514.152" y2="383.031" gradientUnits="userSpaceOnUse">
<stop stop-color="#41E6DF"/>
<stop offset="0.14" stop-color="#3FB6CA"/>
<stop offset="0.27" stop-color="#3D8CB8"/>
<stop offset="0.41" stop-color="#3B6BAA"/>
<stop offset="0.55" stop-color="#3A519F"/>
<stop offset="0.69" stop-color="#393E97"/>
<stop offset="0.84" stop-color="#393392"/>
<stop offset="1" stop-color="#393091"/>
</linearGradient>
<radialGradient id="paint16_radial_0_1" cx="0" cy="0" r="1" gradientUnits="userSpaceOnUse" gradientTransform="translate(652.571 290.291) rotate(11.1913) scale(106.965 106.887)">
<stop stop-color="#C0BFF6"/>
<stop offset="1" stop-color="#393091"/>
</radialGradient>
<linearGradient id="paint17_linear_0_1" x1="554.093" y1="365.102" x2="573.98" y2="333.849" gradientUnits="userSpaceOnUse">
<stop stop-color="#41E6DF"/>
<stop offset="0.14" stop-color="#3FB6CA"/>
<stop offset="0.27" stop-color="#3D8CB8"/>
<stop offset="0.41" stop-color="#3B6BAA"/>
<stop offset="0.55" stop-color="#3A519F"/>
<stop offset="0.69" stop-color="#393E97"/>
<stop offset="0.84" stop-color="#393392"/>
<stop offset="1" stop-color="#393091"/>
</linearGradient>
<radialGradient id="paint18_radial_0_1" cx="0" cy="0" r="1" gradientUnits="userSpaceOnUse" gradientTransform="translate(640.252 373.711) scale(82.4163 111.913)">
<stop stop-color="#C0BFF6"/>
<stop offset="1" stop-color="#393091"/>
</radialGradient>
<linearGradient id="paint19_linear_0_1" x1="611.953" y1="448.604" x2="611.953" y2="336.714" gradientUnits="userSpaceOnUse">
<stop stop-color="#41E6DF"/>
<stop offset="0.14" stop-color="#3FB6CA"/>
<stop offset="0.27" stop-color="#3D8CB8"/>
<stop offset="0.41" stop-color="#3B6BAA"/>
<stop offset="0.55" stop-color="#3A519F"/>
<stop offset="0.69" stop-color="#393E97"/>
<stop offset="0.84" stop-color="#393392"/>
<stop offset="1" stop-color="#393091"/>
</linearGradient>
<radialGradient id="paint20_radial_0_1" cx="0" cy="0" r="1" gradientUnits="userSpaceOnUse" gradientTransform="translate(640.819 303.473) scale(82.4695 82.4039)">
<stop stop-color="#C0BFF6"/>
<stop offset="1" stop-color="#393091"/>
</radialGradient>
<linearGradient id="paint21_linear_0_1" x1="603.58" y1="359.003" x2="617.126" y2="262.409" gradientUnits="userSpaceOnUse">
<stop stop-color="#41E6DF"/>
<stop offset="0.14" stop-color="#3FB6CA"/>
<stop offset="0.27" stop-color="#3D8CB8"/>
<stop offset="0.41" stop-color="#3B6BAA"/>
<stop offset="0.55" stop-color="#3A519F"/>
<stop offset="0.69" stop-color="#393E97"/>
<stop offset="0.84" stop-color="#393392"/>
<stop offset="1" stop-color="#393091"/>
</linearGradient>
<radialGradient id="paint22_radial_0_1" cx="0" cy="0" r="1" gradientUnits="userSpaceOnUse" gradientTransform="translate(673.909 366.671) rotate(11.1913) scale(38.653 38.6246)">
<stop stop-color="#C0BFF6"/>
<stop offset="1" stop-color="#393091"/>
</radialGradient>
<linearGradient id="paint23_linear_0_1" x1="647.936" y1="389.637" x2="677.897" y2="367.84" gradientUnits="userSpaceOnUse">
<stop stop-color="#41E6DF"/>
<stop offset="0.14" stop-color="#3FB6CA"/>
<stop offset="0.27" stop-color="#3D8CB8"/>
<stop offset="0.41" stop-color="#3B6BAA"/>
<stop offset="0.55" stop-color="#3A519F"/>
<stop offset="0.69" stop-color="#393E97"/>
<stop offset="0.84" stop-color="#393392"/>
<stop offset="1" stop-color="#393091"/>
</linearGradient>
<radialGradient id="paint24_radial_0_1" cx="0" cy="0" r="1" gradientUnits="userSpaceOnUse" gradientTransform="translate(697.697 432.628) rotate(6.79465) scale(32.9569 54.0506)">
<stop stop-color="#C0BFF6"/>
<stop offset="1" stop-color="#393091"/>
</radialGradient>
<linearGradient id="paint25_linear_0_1" x1="666.86" y1="443.214" x2="692.423" y2="446.265" gradientUnits="userSpaceOnUse">
<stop stop-color="#41E6DF"/>
<stop offset="0.14" stop-color="#3FB6CA"/>
<stop offset="0.27" stop-color="#3D8CB8"/>
<stop offset="0.41" stop-color="#3B6BAA"/>
<stop offset="0.55" stop-color="#3A519F"/>
<stop offset="0.69" stop-color="#393E97"/>
<stop offset="0.84" stop-color="#393392"/>
<stop offset="1" stop-color="#393091"/>
</linearGradient>
<linearGradient id="paint26_linear_0_1" x1="671.349" y1="603.19" x2="791.271" y2="672.468" gradientUnits="userSpaceOnUse">
<stop stop-color="#153C3B"/>
<stop offset="0.23" stop-color="#153C3B"/>
<stop offset="0.68" stop-color="#153C3B"/>
<stop offset="1" stop-color="#153C3B"/>
</linearGradient>
<linearGradient id="paint27_linear_0_1" x1="123.832" y1="629.345" x2="126.01" y2="629.345" gradientUnits="userSpaceOnUse">
<stop stop-color="#E9E9FD"/>
<stop offset="0.36" stop-color="#D2D2F9"/>
<stop offset="0.71" stop-color="#C4C3F6"/>
<stop offset="1" stop-color="#C0BFF6"/>
</linearGradient>
<linearGradient id="paint28_linear_0_1" x1="671.349" y1="514.955" x2="791.271" y2="584.255" gradientUnits="userSpaceOnUse">
<stop stop-color="#BCBEFF"/>
<stop offset="0.23" stop-color="#AAADF7"/>
<stop offset="0.68" stop-color="#7B82E5"/>
<stop offset="1" stop-color="#5761D7"/>
</linearGradient>
<linearGradient id="paint29_linear_0_1" x1="123.832" y1="541.11" x2="126.01" y2="541.11" gradientUnits="userSpaceOnUse">
<stop stop-color="#E9E9FD"/>
<stop offset="0.36" stop-color="#D2D2F9"/>
<stop offset="0.71" stop-color="#C4C3F6"/>
<stop offset="1" stop-color="#C0BFF6"/>
</linearGradient>
</defs>
</svg>
