<svg width="684" height="599" viewBox="0 0 684 599" fill="none" xmlns="http://www.w3.org/2000/svg">
<g opacity="0.3">
<path d="M683.665 410.889V397.724L680.029 395.701C679.005 401.924 671.688 406.015 665.569 406.863L623.909 431.212L605.725 437.784L547.69 407.864L549.04 407.081C544.075 404.774 541.418 399.465 538.718 394.634L534.82 396.963L532.49 397.615V411.106C532.49 413.696 534.188 416.263 537.585 418.222L595.73 451.775C602.546 455.692 613.609 455.692 620.425 451.775L678.57 418.222C681.923 416.285 683.622 413.761 683.665 411.215C683.665 411.106 683.665 410.998 683.665 410.867V410.889Z" fill="url(#paint0_linear_1_2361)"/>
<path opacity="0.3" d="M665.569 406.863L623.91 431.213L608.078 436.914V454.713C612.542 454.713 617.028 453.734 620.425 451.775L678.57 418.222C681.924 416.285 683.622 413.761 683.666 411.215C683.666 411.107 683.666 410.998 683.666 410.867V397.703L680.334 395.853H679.985C678.853 401.967 671.623 405.993 665.547 406.842L665.569 406.863Z" fill="#0F054C"/>
<path d="M595.73 438.393L537.586 404.84C530.77 400.901 530.77 394.526 537.586 390.587L595.73 357.034C602.547 353.117 613.609 353.117 620.425 357.034L678.57 390.587C685.386 394.526 685.386 400.901 678.57 404.84L620.425 438.393C613.609 442.31 602.547 442.31 595.73 438.393Z" fill="url(#paint1_linear_1_2361)"/>
<g opacity="0.3">
<path d="M595.73 438.393L537.586 404.84C530.77 400.901 530.77 394.526 537.586 390.587L595.73 357.034C602.547 353.117 613.609 353.117 620.425 357.034L678.57 390.587C685.386 394.526 685.386 400.901 678.57 404.84L620.425 438.393C613.609 442.31 602.547 442.31 595.73 438.393Z" fill="#0F054C"/>
</g>
</g>
<path d="M608.078 396.005C604.115 396.005 600.129 395.134 597.124 393.394L538.98 359.84C535.953 358.1 534.298 355.749 534.298 353.225C534.298 350.701 535.953 348.351 538.98 346.61L597.124 313.057C603.178 309.575 613 309.575 619.054 313.057L677.198 346.61C680.225 348.351 681.88 350.701 681.88 353.225C681.88 355.749 680.225 358.1 677.198 359.84L619.054 393.394C616.027 395.134 612.063 396.005 608.1 396.005H608.078ZM597.625 392.502C603.396 395.809 612.76 395.831 618.531 392.502L676.676 358.948C679.376 357.403 680.857 355.358 680.857 353.225C680.857 351.093 679.376 349.047 676.676 347.481L618.531 313.927C612.76 310.598 603.396 310.598 597.625 313.927L539.481 347.481C536.78 349.026 535.299 351.071 535.299 353.225C535.299 355.38 536.78 357.403 539.481 358.97L597.625 392.523V392.502Z" fill="#42E8E0"/>
<path opacity="0.4" d="M683.666 340.344V320.456L680.029 318.432C679.005 324.655 671.688 328.746 665.569 329.595L623.91 353.944L605.726 360.515L547.69 330.596L549.04 329.812C544.075 327.506 541.418 322.196 538.718 317.366L534.82 319.694L532.49 320.347V340.583C532.49 343.173 534.188 345.74 537.586 347.699L595.73 381.252C602.546 385.169 613.609 385.191 620.425 381.252L678.57 347.699C681.923 345.762 683.622 343.238 683.666 340.692C683.666 340.583 683.666 340.474 683.666 340.344Z" fill="#42E8E0"/>
<path d="M683.666 322.653V309.488L680.029 307.465C679.005 313.688 671.688 317.779 665.569 318.627L623.91 342.976L605.726 349.548L547.69 319.628L549.04 318.845C544.075 316.538 541.418 311.229 538.718 306.398L534.82 308.727L532.49 309.38V322.871C532.49 325.46 534.188 328.028 537.586 329.986L595.73 363.539C602.546 367.456 613.609 367.478 620.425 363.539L678.57 329.986C681.923 328.049 683.622 325.525 683.666 322.979C683.666 322.871 683.666 322.762 683.666 322.631V322.653Z" fill="url(#paint2_linear_1_2361)"/>
<path opacity="0.3" d="M665.569 318.628L623.91 342.977L608.078 348.678V366.477C612.542 366.477 617.028 365.498 620.425 363.54L678.57 329.986C681.924 328.05 683.622 325.525 683.666 322.98C683.666 322.871 683.666 322.762 683.666 322.631V309.467L680.334 307.617H679.985C678.853 313.732 671.623 317.757 665.547 318.606L665.569 318.628Z" fill="#23706D"/>
<path d="M595.73 350.157L537.586 316.604C530.77 312.665 530.77 306.29 537.586 302.351L595.73 268.798C602.547 264.881 613.609 264.881 620.425 268.798L678.57 302.351C685.386 306.268 685.386 312.665 678.57 316.604L620.425 350.157C613.609 354.096 602.547 354.096 595.73 350.157Z" fill="url(#paint3_linear_1_2361)"/>
<path d="M608.077 343.085C604.593 343.085 601.087 342.324 598.43 340.779L554.441 315.407C551.762 313.862 550.281 311.773 550.281 309.51C550.281 307.247 551.762 305.158 554.441 303.613L598.43 278.242C603.744 275.173 612.389 275.173 617.703 278.242L661.692 303.613C664.371 305.158 665.852 307.247 665.852 309.51C665.852 311.773 664.371 313.862 661.692 315.407L617.703 340.779C615.046 342.324 611.562 343.085 608.077 343.085ZM608.077 277.088C604.811 277.088 601.522 277.806 599.04 279.242L555.05 304.614C552.742 305.942 551.479 307.682 551.479 309.488C551.479 311.294 552.742 313.035 555.05 314.363L599.04 339.734C604.027 342.607 612.15 342.607 617.137 339.734L661.126 314.363C663.434 313.035 664.698 311.294 664.698 309.488C664.698 307.682 663.434 305.942 661.126 304.614L617.137 279.242C614.632 277.806 611.366 277.088 608.077 277.088Z" fill="#42E8E0"/>
<path d="M678.57 316.626L620.426 350.179C613.61 354.118 602.547 354.118 595.731 350.179L537.586 316.626C534.537 314.863 532.861 312.622 532.534 310.315C532.142 313.166 533.819 316.082 537.586 318.258L595.731 351.811C602.547 355.728 613.61 355.728 620.426 351.811L678.57 318.258C682.338 316.082 684.015 313.166 683.623 310.315C683.296 312.622 681.619 314.863 678.57 316.626Z" fill="white"/>
<path style="mix-blend-mode:lighten" opacity="0.5" d="M583.71 171.662L551.088 190.484C541.288 196.142 532.556 194.031 529.333 185.197L464.786 9.05213C457.425 -11.0756 427.308 7.11551 420.927 35.5337L381.206 212.832C378.309 225.779 369.315 238.704 359.124 244.601L349.629 250.084C340.417 255.393 332.077 253.87 328.44 246.189L315.287 218.358C307.142 201.103 279.986 217.379 272.582 243.948C269.163 256.199 260.605 267.927 251.066 273.432L242.769 278.219C232.708 284.007 223.823 281.636 220.796 272.323L208.819 235.549C202.068 214.79 171.864 232.067 164.938 260.659L125.174 424.793C122.06 437.696 113.022 450.36 102.918 456.018L57.0117 481.694L583.688 171.684L583.71 171.662Z" fill="url(#paint4_linear_1_2361)"/>
<path d="M98.6276 498.515L98.0831 497.557L137.499 475.515C147.539 469.901 156.38 457.498 159.494 444.66L199.259 280.526C204.137 260.355 219.969 246.32 231.663 245.863C237.717 245.602 242.116 249.018 244.185 255.372L256.162 292.146C257.447 296.084 259.821 298.804 263.066 300.045C267.051 301.568 272.125 300.741 277.329 297.738L285.627 292.951C294.991 287.555 303.549 275.826 306.903 263.793C312.26 244.558 327.286 231.654 338.109 230.74C343.727 230.283 348.148 232.894 350.631 238.117L363.784 265.947C365.265 269.081 367.617 271.213 370.557 272.149C374.411 273.346 379.268 272.453 384.189 269.603L393.684 264.12C403.68 258.353 412.673 245.428 415.526 232.699L455.247 55.4006C459.712 35.4905 475.783 20.7592 487.412 19.9976C493.422 19.6277 497.909 22.7611 500.152 28.8538L564.677 205.02C566.027 208.698 568.401 211.243 571.558 212.397C575.5 213.833 580.509 212.984 585.648 210.025L611.105 195.337L611.65 196.295L586.192 210.982C580.77 214.116 575.435 214.986 571.166 213.441C567.704 212.179 565.091 209.416 563.632 205.412L499.106 29.2455C497.016 23.5662 493.03 20.781 487.477 21.1074C476.24 21.8472 460.67 36.2086 456.315 55.6618L416.593 232.96C413.632 246.168 404.66 259.071 394.25 265.077L384.755 270.56C379.551 273.563 374.411 274.499 370.252 273.193C366.985 272.171 364.416 269.842 362.804 266.426L349.651 238.595C347.364 233.743 343.423 231.436 338.218 231.85C327.743 232.742 313.196 245.319 307.97 264.12C304.551 276.414 295.796 288.403 286.193 293.93L277.896 298.717C272.386 301.894 266.964 302.743 262.674 301.111C259.124 299.74 256.511 296.781 255.117 292.516L243.14 255.742C241.201 249.802 237.238 246.734 231.685 246.995C220.6 247.43 204.986 261.421 200.304 280.831L160.54 444.964C157.36 458.085 148.301 470.771 138 476.516L98.584 498.558L98.6276 498.515Z" fill="#42E8E0"/>
<path d="M459.417 1.40293L458.875 2.34619L493.992 22.5154L494.535 21.5721L459.417 1.40293Z" fill="#42E8E0"/>
<path d="M345.84 233.765L310.322 213.289L310.866 212.353L346.407 232.829L345.84 233.765Z" fill="#42E8E0"/>
<path d="M202.257 226.802L201.715 227.746L238.754 248.984L239.296 248.041L202.257 226.802Z" fill="#42E8E0"/>
<path d="M225.806 574.304C222.495 574.304 219.164 573.477 216.18 571.779L97.5173 505.391C96.1454 504.629 95.3179 503.215 95.3179 501.648C95.3179 500.081 96.1454 498.667 97.5173 497.905L137.522 475.515C147.583 469.879 156.424 457.476 159.538 444.616L199.303 280.483C201.938 269.559 207.796 260.442 214.438 254.306L208.362 235.614C206.424 229.652 202.417 226.649 196.886 226.845C185.801 227.28 170.165 241.272 165.462 260.703L125.697 424.836C122.517 437.936 113.48 450.622 103.179 456.388L0.500871 513.942L0 513.05L102.678 455.518C112.739 449.882 121.581 437.479 124.695 424.619L164.46 260.486C169.338 240.314 185.148 226.301 196.842 225.844C202.874 225.583 207.273 228.977 209.342 235.331L215.287 253.588C220.71 248.844 226.59 246.059 231.685 245.863C237.696 245.624 242.117 248.996 244.185 255.35L250.065 273.411L250.849 272.954C260.213 267.557 268.772 255.807 272.125 243.774C277.482 224.56 292.487 211.657 303.31 210.743C308.928 210.286 313.327 212.875 315.788 218.098L324.608 236.789C329.203 233.221 333.994 231.11 338.153 230.762C343.706 230.283 348.17 232.894 350.631 238.117L354.638 246.603L358.906 244.144C368.924 238.378 377.896 225.452 380.749 212.701L420.47 35.4034C424.913 15.515 440.962 0.805462 452.591 0.0438728C458.536 -0.391321 463.044 2.78559 465.287 8.8783L472.06 27.374C477.199 23.0003 482.687 20.3674 487.434 20.0628C493.358 19.6711 497.909 22.8045 500.13 28.8972L557.709 186.111L579.769 173.382C582.208 171.967 585.235 171.967 587.695 173.382L611.911 187.286C613.523 188.2 614.481 189.854 614.481 191.703C614.481 193.553 613.523 195.206 611.933 196.12L586.215 210.96C580.792 214.094 575.457 214.964 571.232 213.419C567.77 212.157 565.178 209.394 563.719 205.412L557.186 187.591L551.371 190.942C545.949 194.075 540.635 194.945 536.389 193.4C532.948 192.138 530.335 189.375 528.876 185.393L471.624 29.093C464.808 35.2946 458.776 44.673 456.315 55.6616L416.594 232.96C413.632 246.146 404.66 259.049 394.25 265.055L384.756 270.538C379.573 273.541 374.412 274.477 370.274 273.171C367.029 272.149 364.46 269.82 362.848 266.426L354.181 248.082L349.913 250.541C344.73 253.522 339.569 254.458 335.431 253.174C332.186 252.152 329.616 249.823 328.005 246.429L324.216 238.421C317.378 244.057 311.041 253 307.927 264.098C304.508 276.392 295.753 288.36 286.171 293.887L277.874 298.674C272.365 301.851 266.964 302.699 262.696 301.067C259.146 299.718 256.555 296.737 255.161 292.494L249.455 274.977L243.031 278.677C237.522 281.854 232.121 282.702 227.853 281.07C224.303 279.721 221.711 276.74 220.318 272.497L214.808 255.568C208.428 261.617 202.787 270.43 200.283 280.809L160.518 444.942C157.339 458.042 148.301 470.728 138.001 476.472L97.9964 498.863C96.9511 499.45 96.3196 500.517 96.3196 501.713C96.3196 502.91 96.9511 503.976 97.9964 504.564L216.659 570.953C222.452 574.217 229.573 574.13 235.279 570.735L444.577 447.532L445.1 448.402L235.801 571.605C232.731 573.433 229.246 574.347 225.784 574.347L225.806 574.304ZM250.37 274.412L256.141 292.146C257.426 296.084 259.821 298.826 263.066 300.066C267.051 301.59 272.147 300.784 277.373 297.738L285.67 292.951C295.035 287.533 303.593 275.804 306.947 263.771C310.126 252.369 316.681 243.187 323.78 237.42L314.852 218.511C312.543 213.637 308.602 211.309 303.375 211.744C292.879 212.636 278.332 225.235 273.083 244.035C269.664 256.329 260.91 268.297 251.328 273.824L250.348 274.39L250.37 274.412ZM215.657 254.763L221.319 272.149C222.604 276.087 225 278.829 228.245 280.069C232.23 281.614 237.304 280.766 242.552 277.763L249.15 273.955L243.205 255.698C241.267 249.736 237.304 246.777 231.729 246.929C226.807 247.125 221.015 249.976 215.657 254.784V254.763ZM355.052 247.517L363.763 265.947C365.244 269.081 367.595 271.235 370.557 272.17C374.433 273.389 379.29 272.475 384.211 269.625L393.706 264.141C403.723 258.375 412.696 245.428 415.548 232.698L455.27 55.4005C457.818 44.0637 464.111 34.4024 471.21 28.0486L464.307 9.18294C462.216 3.4819 458.21 0.674904 452.635 1.02306C441.376 1.76289 425.784 16.146 421.428 35.5992L381.707 212.897C378.745 226.105 369.773 238.987 359.364 244.993L355.03 247.495L355.052 247.517ZM325.021 237.725L328.898 245.95C330.379 249.083 332.731 251.238 335.692 252.173C339.568 253.392 344.425 252.478 349.346 249.627L353.702 247.125L349.651 238.574C347.343 233.699 343.401 231.349 338.175 231.806C334.124 232.154 329.486 234.243 324.978 237.747L325.021 237.725ZM558.035 187.047L564.612 205.042C565.962 208.741 568.357 211.287 571.515 212.44C575.479 213.876 580.487 213.028 585.648 210.047L611.367 195.206C612.652 194.467 613.414 193.139 613.414 191.66C613.414 190.18 612.652 188.853 611.367 188.113L587.151 174.208C585.017 172.99 582.382 172.99 580.248 174.208L558.035 187.025V187.047ZM472.408 28.3532L529.79 185.023C531.141 188.722 533.536 191.268 536.694 192.421C540.657 193.857 545.666 193.009 550.827 190.028L556.794 186.59L499.15 29.2236C497.06 23.5226 492.987 20.6938 487.478 21.0637C482.818 21.3684 477.439 24.0013 472.408 28.3532Z" fill="#42E8E0"/>
<path style="mix-blend-mode:lighten" opacity="0.5" d="M611.367 195.294L585.91 209.981C576.11 215.639 567.378 213.528 564.155 204.694L499.63 28.5275C492.269 8.39976 462.151 26.5909 455.771 55.009L416.05 232.307C413.153 245.254 404.159 258.179 393.968 264.076L384.473 269.559C375.261 274.869 366.921 273.346 363.284 265.664L350.131 237.834C341.986 220.578 314.83 236.855 307.426 263.423C304.007 275.674 295.449 287.402 285.91 292.908L277.613 297.695C267.552 303.483 258.667 301.111 255.64 291.798L243.663 255.024C236.912 234.265 206.707 251.542 199.782 280.135L160.018 444.268C156.903 457.171 147.866 469.836 137.761 475.493L91.8556 501.169L611.346 195.315L611.367 195.294Z" fill="url(#paint5_linear_1_2361)"/>
<g opacity="0.3">
<path d="M559.865 480.171V466.985L556.206 464.961C555.182 471.185 547.844 475.275 541.724 476.124L500.021 500.495L481.816 507.066L423.715 477.103L425.065 476.32C420.1 473.992 417.421 468.704 414.743 463.852L410.823 466.18L408.493 466.833V480.345C408.493 482.935 410.191 485.502 413.61 487.483L471.82 521.058C478.636 524.996 489.721 524.996 496.537 521.058L554.747 487.483C558.101 485.546 559.799 483.022 559.865 480.476C559.865 480.367 559.865 480.258 559.865 480.128V480.171Z" fill="url(#paint6_linear_1_2361)"/>
<path opacity="0.3" d="M541.746 476.146L500.043 500.517L484.189 506.24V524.061C488.676 524.061 493.14 523.082 496.559 521.101L554.769 487.526C558.122 485.59 559.821 483.065 559.886 480.52C559.886 480.411 559.886 480.302 559.886 480.171V466.985L556.554 465.135H556.206C555.074 471.25 547.822 475.297 541.768 476.124L541.746 476.146Z" fill="#0F054C"/>
<path d="M471.821 507.719L413.611 474.144C406.794 470.205 406.794 463.808 413.611 459.891L471.821 426.316C478.637 422.378 489.721 422.378 496.537 426.316L554.747 459.891C561.564 463.83 561.564 470.227 554.747 474.144L496.537 507.719C489.721 511.658 478.637 511.658 471.821 507.719Z" fill="url(#paint7_linear_1_2361)"/>
<g opacity="0.3">
<path d="M471.821 507.719L413.611 474.144C406.794 470.205 406.794 463.808 413.611 459.891L471.821 426.316C478.637 422.378 489.721 422.378 496.537 426.316L554.747 459.891C561.564 463.83 561.564 470.227 554.747 474.144L496.537 507.719C489.721 511.658 478.637 511.658 471.821 507.719Z" fill="#0F054C"/>
</g>
</g>
<path d="M484.19 467.485C480.227 467.485 476.241 466.615 473.214 464.874L415.005 431.299C411.978 429.558 410.323 427.208 410.323 424.684C410.323 422.16 411.978 419.81 415.005 418.069L473.214 384.494C479.268 381.012 489.112 381.012 495.166 384.494L553.376 418.069C556.403 419.81 558.058 422.16 558.058 424.684C558.058 427.208 556.403 429.558 553.376 431.299L495.166 464.874C492.139 466.615 488.175 467.485 484.19 467.485ZM473.715 463.982C479.486 467.311 488.872 467.311 494.643 463.982L552.853 430.407C555.553 428.862 557.034 426.817 557.034 424.662C557.034 422.508 555.553 420.485 552.853 418.918L494.643 385.343C488.872 382.013 479.486 382.013 473.715 385.343L415.505 418.918C412.805 420.463 411.324 422.508 411.324 424.662C411.324 426.817 412.805 428.84 415.505 430.407L473.715 463.982Z" fill="#42E8E0"/>
<path opacity="0.4" d="M559.865 411.759V391.849L556.206 389.825C555.182 396.048 547.844 400.139 541.724 400.988L500.021 425.359L481.816 431.93L423.715 401.967L425.065 401.184C420.1 398.855 417.421 393.568 414.743 388.737L410.823 391.065L408.493 391.718V411.976C408.493 414.566 410.191 417.133 413.61 419.114L471.82 452.689C478.636 456.627 489.721 456.627 496.537 452.689L554.747 419.114C558.101 417.177 559.799 414.653 559.865 412.107C559.865 411.998 559.865 411.889 559.865 411.759Z" fill="#42E8E0"/>
<path d="M559.865 394.046V380.86L556.206 378.836C555.182 385.06 547.844 389.15 541.724 389.999L500.021 414.37L481.816 420.941L423.715 390.978L425.065 390.195C420.1 387.867 417.421 382.579 414.743 377.727L410.823 380.055L408.493 380.708V394.22C408.493 396.81 410.191 399.377 413.61 401.358L471.82 434.933C478.636 438.871 489.721 438.871 496.537 434.933L554.747 401.358C558.101 399.421 559.799 396.897 559.865 394.351C559.865 394.242 559.865 394.133 559.865 394.003V394.046Z" fill="url(#paint8_linear_1_2361)"/>
<path opacity="0.3" d="M541.746 390.021L500.043 414.392L484.189 420.115V437.936C488.676 437.936 493.14 436.957 496.559 434.976L554.769 401.401C558.122 399.465 559.821 396.94 559.886 394.395C559.886 394.286 559.886 394.177 559.886 394.046V380.86L556.554 379.01H556.206C555.074 385.125 547.822 389.172 541.768 389.999L541.746 390.021Z" fill="#42E8E0"/>
<path d="M425.065 390.217L480.226 358.383C482.404 357.12 485.954 357.12 488.153 358.383L542.356 389.651L541.746 389.999C547.866 389.151 555.204 385.06 556.228 378.837L495.405 345.022L477.7 340.344L463.284 348.808L414.743 377.749C417.421 382.579 420.1 387.889 425.065 390.217Z" fill="url(#paint9_linear_1_2361)"/>
<path opacity="0.3" d="M484.19 342.085L477.7 340.365L463.284 348.83L414.743 377.77C417.421 382.601 420.1 387.91 425.065 390.239L480.226 358.404C481.315 357.773 482.752 357.469 484.19 357.469V342.106V342.085Z" fill="#0F054C"/>
<path d="M471.821 421.594L413.611 388.019C406.794 384.08 406.794 377.683 413.611 373.766L471.821 340.191C478.637 336.253 489.721 336.253 496.537 340.191L554.747 373.766C561.564 377.705 561.564 384.102 554.747 388.019L496.537 421.594C489.721 425.533 478.637 425.533 471.821 421.594ZM488.132 345.022C485.954 343.76 482.404 343.76 480.205 345.022L421.995 378.597C419.817 379.859 419.817 381.904 421.995 383.167L480.205 416.742C482.382 418.004 485.932 418.004 488.132 416.742L546.341 383.167C548.519 381.904 548.519 379.859 546.341 378.597L488.132 345.022Z" fill="url(#paint10_linear_1_2361)"/>
<path d="M546.34 378.597L488.13 345.022C485.953 343.76 482.403 343.76 480.203 345.022L421.994 378.597C420.535 379.446 420.055 380.621 420.535 381.709C420.774 381.165 421.253 380.665 421.994 380.251L480.203 346.676C482.381 345.414 485.931 345.414 488.13 346.676L546.34 380.251C547.059 380.665 547.538 381.187 547.799 381.709C548.278 380.643 547.799 379.446 546.34 378.597Z" fill="white"/>
<path d="M554.746 388.019L496.536 421.594C489.72 425.533 478.635 425.533 471.819 421.594L413.609 388.019C410.561 386.257 408.884 384.016 408.557 381.709C408.165 384.56 409.842 387.497 413.609 389.651L471.819 423.226C478.635 427.165 489.72 427.165 496.536 423.226L554.746 389.651C558.513 387.475 560.19 384.538 559.798 381.709C559.472 384.016 557.795 386.257 554.746 388.019Z" fill="white"/>
<path d="M473.453 420.637L415.243 387.062C409.342 383.645 409.342 378.097 415.243 374.702L473.453 341.127C479.355 337.711 488.98 337.711 494.882 341.127L553.091 374.702C558.993 378.118 558.993 383.667 553.091 387.062L494.882 420.637C488.98 424.053 479.355 424.053 473.453 420.637ZM489.786 344.064C486.693 342.28 481.663 342.28 478.592 344.064L420.382 377.64C417.29 379.424 417.29 382.318 420.382 384.102L478.592 417.677C481.685 419.462 486.715 419.462 489.807 417.677L548.017 384.102C551.11 382.318 551.11 379.424 548.017 377.64L489.807 344.064H489.786Z" fill="url(#paint11_linear_1_2361)"/>
<path opacity="0.4" d="M488.131 345.022C485.953 343.76 482.404 343.76 480.204 345.022L421.994 378.597C419.817 379.859 419.817 381.905 421.994 383.167L480.204 416.742C482.382 418.004 485.932 418.004 488.131 416.742L546.341 383.167C548.519 381.905 548.519 379.859 546.341 378.597L488.131 345.022Z" fill="#42E8E0"/>
<path style="mix-blend-mode:lighten" opacity="0.5" d="M547.974 380.838V173.382H420.361V380.838C420.361 381.687 420.884 382.536 421.994 383.167L480.204 416.742C482.382 418.004 485.932 418.004 488.131 416.742L546.341 383.167C547.452 382.536 547.996 381.687 547.974 380.838Z" fill="url(#paint12_linear_1_2361)"/>
<path d="M424.041 315.037C417.835 321.369 401.502 329.834 396.428 324.873C391.354 319.911 399.498 303.418 405.705 297.086C411.911 290.753 421.036 289.644 426.11 294.605C431.184 299.566 430.247 308.705 424.041 315.037Z" fill="url(#paint13_radial_1_2361)"/>
<path style="mix-blend-mode:lighten" d="M424.041 315.037C417.835 321.369 401.502 329.834 396.428 324.873C391.354 319.911 399.498 303.418 405.705 297.086C411.911 290.753 421.036 289.644 426.11 294.605C431.184 299.566 430.247 308.705 424.041 315.037Z" fill="url(#paint14_linear_1_2361)"/>
<path d="M424.76 297.847C424.368 297.847 423.998 297.782 423.606 297.607C422.082 296.976 421.363 295.236 422.016 293.712L431.228 271.713C431.86 270.19 433.602 269.472 435.126 270.125C436.651 270.756 437.369 272.497 436.716 274.02L427.504 296.019C427.025 297.172 425.915 297.847 424.76 297.847Z" fill="#42E8E0"/>
<path d="M541.84 289.84L536.309 292.076L555.406 339.236L560.938 337L541.84 289.84Z" fill="#42E8E0"/>
<path d="M458.253 265.186C456.271 275.217 446.515 281.745 436.476 279.743C426.437 277.763 419.904 268.015 421.907 257.983C423.889 247.952 433.645 241.424 443.684 243.426C453.724 245.406 460.257 255.155 458.253 265.186Z" fill="url(#paint15_radial_1_2361)"/>
<g style="mix-blend-mode:lighten">
<path d="M450.021 245.972C458.645 251.455 461.193 262.901 455.705 271.539C450.217 280.156 438.763 282.702 430.117 277.219C421.494 271.735 418.946 260.29 424.433 251.651C429.921 243.034 441.376 240.488 450.021 245.972Z" fill="url(#paint16_linear_1_2361)"/>
</g>
<path d="M532.469 295.214C532.469 331.161 511.04 360.297 484.625 360.297C458.21 360.297 436.781 331.161 436.781 295.214C436.781 259.267 458.21 248.496 484.625 248.496C511.04 248.496 532.469 259.267 532.469 295.214Z" fill="url(#paint17_radial_1_2361)"/>
<g style="mix-blend-mode:lighten">
<path d="M532.469 295.214C532.469 331.161 511.04 360.297 484.625 360.297C458.21 360.297 436.781 331.161 436.781 295.214C436.781 259.267 458.21 248.496 484.625 248.496C511.04 248.496 532.469 259.267 532.469 295.214Z" fill="url(#paint18_linear_1_2361)"/>
</g>
<path d="M507.73 281.157C494.969 288.512 474.303 288.512 461.563 281.157C448.802 273.802 448.802 261.878 461.563 254.523C474.324 247.169 494.991 247.169 507.73 254.523C520.492 261.878 520.492 273.802 507.73 281.157Z" fill="#042726"/>
<path d="M461.542 259.528C474.303 252.173 494.97 252.173 507.709 259.528C512.979 262.574 516.072 266.382 516.986 270.343C518.293 264.729 515.201 258.832 507.709 254.523C494.948 247.169 474.282 247.169 461.542 254.523C454.051 258.832 450.98 264.729 452.265 270.343C453.18 266.382 456.272 262.574 461.542 259.528Z" fill="#42E8E0"/>
<path d="M470.383 198.231C470.383 207 464.22 217.684 456.62 222.058C449.02 226.453 442.857 222.885 442.857 214.116C442.857 205.347 449.02 194.663 456.62 190.289C464.22 185.893 470.383 189.462 470.383 198.231Z" fill="#BCBEFF"/>
<path d="M486.52 271.627C513.472 271.627 535.322 249.795 535.322 222.863C535.322 195.932 513.472 174.1 486.52 174.1C459.567 174.1 437.718 195.932 437.718 222.863C437.718 249.795 459.567 271.627 486.52 271.627Z" fill="url(#paint19_radial_1_2361)"/>
<g style="mix-blend-mode:lighten">
<path d="M486.52 271.627C513.472 271.627 535.322 249.795 535.322 222.863C535.322 195.932 513.472 174.1 486.52 174.1C459.567 174.1 437.718 195.932 437.718 222.863C437.718 249.795 459.567 271.627 486.52 271.627Z" fill="url(#paint20_linear_1_2361)"/>
</g>
<path d="M471.298 245.972C470.057 255.568 462.805 258.571 455.118 252.696C447.43 246.82 442.204 234.287 443.445 224.691C444.686 215.095 451.938 212.092 459.625 217.967C467.313 223.842 472.539 236.376 471.298 245.972Z" fill="#042726"/>
<path d="M464.961 237.66C464.503 241.141 461.868 242.229 459.081 240.097C456.294 237.965 454.399 233.417 454.835 229.913C455.292 226.432 457.927 225.344 460.714 227.476C463.502 229.609 465.396 234.157 464.961 237.66Z" fill="#42E8E0"/>
<path d="M458.82 251.303C451.132 245.428 445.906 232.894 447.147 223.298C447.648 219.382 449.151 216.575 451.285 215.008C447.256 215.378 444.229 218.794 443.445 224.691C442.204 234.287 447.43 246.82 455.118 252.696C459.669 256.177 464.068 256.525 467.16 254.262C464.656 254.502 461.76 253.566 458.82 251.303Z" fill="#42E8E0"/>
<path d="M455.793 252.369C448.105 246.494 442.879 233.961 444.12 224.365C444.708 219.926 446.559 216.901 449.151 215.509C446.211 216.727 444.077 219.86 443.445 224.669C442.204 234.265 447.43 246.799 455.118 252.674C459.255 255.829 463.24 256.417 466.246 254.807C463.327 256.003 459.604 255.307 455.771 252.369H455.793Z" fill="#42E8E0"/>
<path d="M557.251 294.518C555.27 304.549 545.513 311.077 535.474 309.075C525.435 307.095 518.902 297.347 520.905 287.315C522.887 277.284 532.643 270.756 542.682 272.758C552.722 274.738 559.255 284.487 557.251 294.518Z" fill="url(#paint21_radial_1_2361)"/>
<g style="mix-blend-mode:lighten">
<path d="M557.251 294.518C555.27 304.549 545.513 311.077 535.474 309.075C525.435 307.095 518.902 297.347 520.905 287.315C522.887 277.284 532.643 270.756 542.682 272.758C552.722 274.738 559.255 284.487 557.251 294.518Z" fill="url(#paint22_linear_1_2361)"/>
</g>
<path d="M568.619 352.268C567.573 361.059 559.799 377.727 552.743 376.9C545.709 376.051 542.072 358.034 543.118 349.243C544.163 340.452 550.718 333.99 557.774 334.838C564.808 335.687 569.664 343.499 568.619 352.29V352.268Z" fill="url(#paint23_radial_1_2361)"/>
<path style="mix-blend-mode:lighten" d="M568.619 352.268C567.573 361.059 559.799 377.727 552.743 376.9C545.709 376.051 542.072 358.034 543.118 349.243C544.163 340.452 550.718 333.99 557.774 334.838C564.808 335.687 569.664 343.499 568.619 352.29V352.268Z" fill="url(#paint24_linear_1_2361)"/>
<g opacity="0.3">
<path d="M683.665 554.676V541.512L680.029 539.488C679.005 545.711 671.688 549.802 665.569 550.651L623.909 575L605.725 581.571L547.69 551.652L549.04 550.868C544.075 548.562 541.418 543.252 538.718 538.422L534.82 540.75L532.49 541.403V554.894C532.49 557.483 534.188 560.051 537.585 562.009L595.73 595.563C602.546 599.479 613.609 599.479 620.425 595.563L678.57 562.009C681.923 560.073 683.622 557.548 683.665 555.002C683.665 554.894 683.665 554.785 683.665 554.654V554.676Z" fill="url(#paint25_linear_1_2361)"/>
<path opacity="0.3" d="M665.569 550.651L623.91 575L608.078 580.701V598.5C612.542 598.5 617.028 597.521 620.425 595.563L678.57 562.009C681.924 560.072 683.622 557.548 683.666 555.002C683.666 554.894 683.666 554.785 683.666 554.654V541.49L680.334 539.64H679.985C678.853 545.755 671.623 549.78 665.547 550.629L665.569 550.651Z" fill="#0F054C"/>
<path d="M595.73 582.18L537.586 548.627C530.77 544.688 530.77 538.313 537.586 534.374L595.73 500.821C602.547 496.904 613.609 496.904 620.425 500.821L678.57 534.374C685.386 538.291 685.386 544.688 678.57 548.627L620.425 582.18C613.609 586.097 602.547 586.097 595.73 582.18Z" fill="url(#paint26_linear_1_2361)"/>
<g opacity="0.3">
<path d="M595.73 582.18L537.586 548.627C530.77 544.688 530.77 538.313 537.586 534.374L595.73 500.821C602.547 496.904 613.609 496.904 620.425 500.821L678.57 534.374C685.386 538.291 685.386 544.688 678.57 548.627L620.425 582.18C613.609 586.097 602.547 586.097 595.73 582.18Z" fill="#0F054C"/>
</g>
</g>
<path d="M608.078 539.771C604.115 539.771 600.129 538.901 597.124 537.16L538.98 503.606C535.953 501.866 534.298 499.516 534.298 496.991C534.298 494.467 535.953 492.117 538.98 490.377L597.124 456.823C603.178 453.342 613 453.342 619.054 456.823L677.198 490.377C680.225 492.117 681.88 494.467 681.88 496.991C681.88 499.516 680.225 501.866 677.198 503.606L619.054 537.16C616.027 538.901 612.063 539.771 608.1 539.771H608.078ZM608.078 455.235C604.289 455.235 600.5 456.061 597.625 457.715L539.481 491.269C536.78 492.814 535.299 494.859 535.299 497.013C535.299 499.167 536.78 501.191 539.481 502.758L597.625 536.311C603.396 539.64 612.76 539.64 618.531 536.311L676.676 502.758C679.376 501.213 680.857 499.167 680.857 497.013C680.857 494.859 679.376 492.835 676.676 491.269L618.531 457.715C615.656 456.061 611.867 455.235 608.078 455.235Z" fill="#42E8E0"/>
<path opacity="0.4" d="M683.666 484.132V464.243L680.029 462.22C679.005 468.443 671.688 472.534 665.569 473.382L623.91 497.731L605.726 504.303L547.69 474.383L549.04 473.6C544.075 471.293 541.418 465.984 538.718 461.153L534.82 463.482L532.49 464.134V484.371C532.49 486.96 534.188 489.528 537.586 491.486L595.73 525.04C602.546 528.956 613.609 528.956 620.425 525.04L678.57 491.486C681.923 489.55 683.622 487.026 683.666 484.48C683.666 484.371 683.666 484.262 683.666 484.132Z" fill="#42E8E0"/>
<path d="M683.666 466.441V453.276L680.029 451.253C679.005 457.476 671.688 461.567 665.569 462.415L623.91 486.764L605.726 493.336L547.69 463.416L549.04 462.633C544.075 460.326 541.418 455.017 538.718 450.186L534.82 452.515L532.49 453.167V466.658C532.49 469.248 534.188 471.815 537.586 473.774L595.73 507.327C602.546 511.244 613.609 511.244 620.425 507.327L678.57 473.774C681.923 471.837 683.622 469.313 683.666 466.767C683.666 466.658 683.666 466.55 683.666 466.419V466.441Z" fill="url(#paint27_linear_1_2361)"/>
<path opacity="0.3" d="M665.569 462.415L623.91 486.764L608.078 492.465V510.265C612.542 510.265 617.028 509.286 620.425 507.327L678.57 473.774C681.924 471.837 683.622 469.313 683.666 466.767C683.666 466.658 683.666 466.55 683.666 466.419V453.254L680.334 451.405H679.985C678.853 457.519 671.623 461.545 665.547 462.393L665.569 462.415Z" fill="#23706D"/>
<path d="M595.73 493.945L537.586 460.392C530.77 456.453 530.77 450.077 537.586 446.139L595.73 412.586C602.547 408.669 613.609 408.669 620.425 412.586L678.57 446.139C685.386 450.056 685.386 456.453 678.57 460.392L620.425 493.945C613.609 497.883 602.547 497.862 595.73 493.945Z" fill="url(#paint28_linear_1_2361)"/>
<path d="M678.57 460.414L620.426 493.967C613.61 497.905 602.547 497.884 595.731 493.967L537.586 460.414C534.537 458.651 532.861 456.41 532.534 454.103C532.142 456.954 533.819 459.87 537.586 462.046L595.731 495.599C602.547 499.516 613.61 499.537 620.426 495.599L678.57 462.046C682.338 459.87 684.015 456.954 683.623 454.103C683.296 456.41 681.619 458.651 678.57 460.414Z" fill="white"/>
<defs>
<linearGradient id="paint0_linear_1_2361" x1="547.516" y1="371.569" x2="667.437" y2="440.847" gradientUnits="userSpaceOnUse">
<stop stop-color="#153C3B"/>
<stop offset="0.23" stop-color="#153C3B"/>
<stop offset="0.68" stop-color="#153C3B"/>
<stop offset="1" stop-color="#153C3B"/>
</linearGradient>
<linearGradient id="paint1_linear_1_2361" x1="532.468" y1="397.724" x2="683.666" y2="397.724" gradientUnits="userSpaceOnUse">
<stop stop-color="#E9E9FD"/>
<stop offset="0.36" stop-color="#D2D2F9"/>
<stop offset="0.71" stop-color="#C4C3F6"/>
<stop offset="1" stop-color="#C0BFF6"/>
</linearGradient>
<linearGradient id="paint2_linear_1_2361" x1="547.516" y1="283.333" x2="667.438" y2="352.633" gradientUnits="userSpaceOnUse">
<stop stop-color="#BCBEFF"/>
<stop offset="0.23" stop-color="#AAADF7"/>
<stop offset="0.68" stop-color="#7B82E5"/>
<stop offset="1" stop-color="#5761D7"/>
</linearGradient>
<linearGradient id="paint3_linear_1_2361" x1="-0.000940106" y1="309.489" x2="2.17676" y2="309.489" gradientUnits="userSpaceOnUse">
<stop stop-color="#E9E9FD"/>
<stop offset="0.36" stop-color="#D2D2F9"/>
<stop offset="0.71" stop-color="#C4C3F6"/>
<stop offset="1" stop-color="#C0BFF6"/>
</linearGradient>
<linearGradient id="paint4_linear_1_2361" x1="583.71" y1="241.097" x2="57.0335" y2="241.097" gradientUnits="userSpaceOnUse">
<stop stop-color="#42E8E0"/>
<stop offset="0.11" stop-color="#36B5BF"/>
<stop offset="0.22" stop-color="#2C87A0"/>
<stop offset="0.34" stop-color="#235F86"/>
<stop offset="0.46" stop-color="#1B3E71"/>
<stop offset="0.58" stop-color="#162560"/>
<stop offset="0.71" stop-color="#121355"/>
<stop offset="0.85" stop-color="#0F084E"/>
<stop offset="1" stop-color="#0F054C"/>
</linearGradient>
<linearGradient id="paint5_linear_1_2361" x1="611.367" y1="260.594" x2="91.8556" y2="260.594" gradientUnits="userSpaceOnUse">
<stop stop-color="#42E8E0"/>
<stop offset="0.11" stop-color="#36B5BF"/>
<stop offset="0.22" stop-color="#2C87A0"/>
<stop offset="0.34" stop-color="#235F86"/>
<stop offset="0.46" stop-color="#1B3E71"/>
<stop offset="0.58" stop-color="#162560"/>
<stop offset="0.71" stop-color="#121355"/>
<stop offset="0.85" stop-color="#0F084E"/>
<stop offset="1" stop-color="#0F054C"/>
</linearGradient>
<linearGradient id="paint6_linear_1_2361" x1="423.562" y1="440.808" x2="543.615" y2="510.174" gradientUnits="userSpaceOnUse">
<stop stop-color="#42E8E0"/>
<stop offset="0.23" stop-color="#42E8E0"/>
<stop offset="0.68" stop-color="#153C3B"/>
<stop offset="1" stop-color="#153C3B"/>
</linearGradient>
<linearGradient id="paint7_linear_1_2361" x1="408.493" y1="467.007" x2="559.865" y2="467.007" gradientUnits="userSpaceOnUse">
<stop stop-color="#E9E9FD"/>
<stop offset="0.36" stop-color="#D2D2F9"/>
<stop offset="0.71" stop-color="#C4C3F6"/>
<stop offset="1" stop-color="#C0BFF6"/>
</linearGradient>
<linearGradient id="paint8_linear_1_2361" x1="423.562" y1="354.683" x2="558.745" y2="482.593" gradientUnits="userSpaceOnUse">
<stop stop-color="#42E8E0"/>
<stop offset="0.23" stop-color="#42E8E0"/>
<stop offset="0.68" stop-color="#153C3B"/>
<stop offset="1" stop-color="#153C3B"/>
</linearGradient>
<linearGradient id="paint9_linear_1_2361" x1="430.771" y1="350.027" x2="537.827" y2="411.876" gradientUnits="userSpaceOnUse">
<stop offset="0.24" stop-color="#5761D7"/>
<stop offset="0.39" stop-color="#7A81E5"/>
<stop offset="0.55" stop-color="#979BF0"/>
<stop offset="0.7" stop-color="#ABAEF8"/>
<stop offset="0.85" stop-color="#B7BAFD"/>
<stop offset="1" stop-color="#BCBEFF"/>
</linearGradient>
<linearGradient id="paint10_linear_1_2361" x1="408.493" y1="380.882" x2="559.865" y2="380.882" gradientUnits="userSpaceOnUse">
<stop stop-color="#E9E9FD"/>
<stop offset="0.36" stop-color="#D2D2F9"/>
<stop offset="0.71" stop-color="#C4C3F6"/>
<stop offset="1" stop-color="#C0BFF6"/>
</linearGradient>
<linearGradient id="paint11_linear_1_2361" x1="410.822" y1="380.882" x2="557.534" y2="380.882" gradientUnits="userSpaceOnUse">
<stop stop-color="#E9E9FD"/>
<stop offset="0.36" stop-color="#D2D2F9"/>
<stop offset="0.71" stop-color="#C4C3F6"/>
<stop offset="1" stop-color="#C0BFF6"/>
</linearGradient>
<linearGradient id="paint12_linear_1_2361" x1="484.168" y1="417.678" x2="484.168" y2="173.382" gradientUnits="userSpaceOnUse">
<stop stop-color="#42E8E0"/>
<stop offset="0.11" stop-color="#36B5BF"/>
<stop offset="0.22" stop-color="#2C87A0"/>
<stop offset="0.34" stop-color="#235F86"/>
<stop offset="0.46" stop-color="#1B3E71"/>
<stop offset="0.58" stop-color="#162560"/>
<stop offset="0.71" stop-color="#121355"/>
<stop offset="0.85" stop-color="#0F084E"/>
<stop offset="1" stop-color="#0F054C"/>
</linearGradient>
<radialGradient id="paint13_radial_1_2361" cx="0" cy="0" r="1" gradientUnits="userSpaceOnUse" gradientTransform="translate(422.802 286.583) rotate(44.3772) scale(32.9445 54.071)">
<stop stop-color="#C0BFF6"/>
<stop offset="1" stop-color="#393091"/>
</radialGradient>
<linearGradient id="paint14_linear_1_2361" x1="419.628" y1="293.925" x2="390.319" y2="295.198" gradientUnits="userSpaceOnUse">
<stop stop-color="#41E6DF"/>
<stop offset="0.14" stop-color="#3FB6CA"/>
<stop offset="0.27" stop-color="#3D8CB8"/>
<stop offset="0.41" stop-color="#3B6BAA"/>
<stop offset="0.55" stop-color="#3A519F"/>
<stop offset="0.69" stop-color="#393E97"/>
<stop offset="0.84" stop-color="#393392"/>
<stop offset="1" stop-color="#393091"/>
</linearGradient>
<radialGradient id="paint15_radial_1_2361" cx="0" cy="0" r="1" gradientUnits="userSpaceOnUse" gradientTransform="translate(528.738 202.458) rotate(11.1913) scale(106.965 106.887)">
<stop stop-color="#C0BFF6"/>
<stop offset="1" stop-color="#393091"/>
</radialGradient>
<linearGradient id="paint16_linear_1_2361" x1="430.26" y1="277.268" x2="450.146" y2="246.016" gradientUnits="userSpaceOnUse">
<stop stop-color="#41E6DF"/>
<stop offset="0.14" stop-color="#3FB6CA"/>
<stop offset="0.27" stop-color="#3D8CB8"/>
<stop offset="0.41" stop-color="#3B6BAA"/>
<stop offset="0.55" stop-color="#3A519F"/>
<stop offset="0.69" stop-color="#393E97"/>
<stop offset="0.84" stop-color="#393392"/>
<stop offset="1" stop-color="#393091"/>
</linearGradient>
<radialGradient id="paint17_radial_1_2361" cx="0" cy="0" r="1" gradientUnits="userSpaceOnUse" gradientTransform="translate(516.419 285.877) scale(82.4163 111.913)">
<stop stop-color="#C0BFF6"/>
<stop offset="1" stop-color="#393091"/>
</radialGradient>
<linearGradient id="paint18_linear_1_2361" x1="488.12" y1="360.77" x2="488.12" y2="248.881" gradientUnits="userSpaceOnUse">
<stop stop-color="#41E6DF"/>
<stop offset="0.14" stop-color="#3FB6CA"/>
<stop offset="0.27" stop-color="#3D8CB8"/>
<stop offset="0.41" stop-color="#3B6BAA"/>
<stop offset="0.55" stop-color="#3A519F"/>
<stop offset="0.69" stop-color="#393E97"/>
<stop offset="0.84" stop-color="#393392"/>
<stop offset="1" stop-color="#393091"/>
</linearGradient>
<radialGradient id="paint19_radial_1_2361" cx="0" cy="0" r="1" gradientUnits="userSpaceOnUse" gradientTransform="translate(516.986 215.639) scale(82.4695 82.4039)">
<stop stop-color="#C0BFF6"/>
<stop offset="1" stop-color="#393091"/>
</radialGradient>
<linearGradient id="paint20_linear_1_2361" x1="479.747" y1="271.17" x2="493.293" y2="174.576" gradientUnits="userSpaceOnUse">
<stop stop-color="#41E6DF"/>
<stop offset="0.14" stop-color="#3FB6CA"/>
<stop offset="0.27" stop-color="#3D8CB8"/>
<stop offset="0.41" stop-color="#3B6BAA"/>
<stop offset="0.55" stop-color="#3A519F"/>
<stop offset="0.69" stop-color="#393E97"/>
<stop offset="0.84" stop-color="#393392"/>
<stop offset="1" stop-color="#393091"/>
</linearGradient>
<radialGradient id="paint21_radial_1_2361" cx="0" cy="0" r="1" gradientUnits="userSpaceOnUse" gradientTransform="translate(550.076 278.838) rotate(11.1913) scale(38.653 38.6246)">
<stop stop-color="#C0BFF6"/>
<stop offset="1" stop-color="#393091"/>
</radialGradient>
<linearGradient id="paint22_linear_1_2361" x1="524.102" y1="301.804" x2="554.064" y2="280.007" gradientUnits="userSpaceOnUse">
<stop stop-color="#41E6DF"/>
<stop offset="0.14" stop-color="#3FB6CA"/>
<stop offset="0.27" stop-color="#3D8CB8"/>
<stop offset="0.41" stop-color="#3B6BAA"/>
<stop offset="0.55" stop-color="#3A519F"/>
<stop offset="0.69" stop-color="#393E97"/>
<stop offset="0.84" stop-color="#393392"/>
<stop offset="1" stop-color="#393091"/>
</linearGradient>
<radialGradient id="paint23_radial_1_2361" cx="0" cy="0" r="1" gradientUnits="userSpaceOnUse" gradientTransform="translate(573.864 344.795) rotate(6.79465) scale(32.9569 54.0506)">
<stop stop-color="#C0BFF6"/>
<stop offset="1" stop-color="#393091"/>
</radialGradient>
<linearGradient id="paint24_linear_1_2361" x1="543.027" y1="355.381" x2="568.59" y2="358.431" gradientUnits="userSpaceOnUse">
<stop stop-color="#41E6DF"/>
<stop offset="0.14" stop-color="#3FB6CA"/>
<stop offset="0.27" stop-color="#3D8CB8"/>
<stop offset="0.41" stop-color="#3B6BAA"/>
<stop offset="0.55" stop-color="#3A519F"/>
<stop offset="0.69" stop-color="#393E97"/>
<stop offset="0.84" stop-color="#393392"/>
<stop offset="1" stop-color="#393091"/>
</linearGradient>
<linearGradient id="paint25_linear_1_2361" x1="547.516" y1="515.356" x2="667.437" y2="584.635" gradientUnits="userSpaceOnUse">
<stop stop-color="#153C3B"/>
<stop offset="0.23" stop-color="#153C3B"/>
<stop offset="0.68" stop-color="#153C3B"/>
<stop offset="1" stop-color="#153C3B"/>
</linearGradient>
<linearGradient id="paint26_linear_1_2361" x1="-0.000940106" y1="541.511" x2="2.17676" y2="541.511" gradientUnits="userSpaceOnUse">
<stop stop-color="#E9E9FD"/>
<stop offset="0.36" stop-color="#D2D2F9"/>
<stop offset="0.71" stop-color="#C4C3F6"/>
<stop offset="1" stop-color="#C0BFF6"/>
</linearGradient>
<linearGradient id="paint27_linear_1_2361" x1="547.516" y1="427.121" x2="667.438" y2="496.421" gradientUnits="userSpaceOnUse">
<stop stop-color="#BCBEFF"/>
<stop offset="0.23" stop-color="#AAADF7"/>
<stop offset="0.68" stop-color="#7B82E5"/>
<stop offset="1" stop-color="#5761D7"/>
</linearGradient>
<linearGradient id="paint28_linear_1_2361" x1="-0.000940106" y1="453.276" x2="2.17676" y2="453.276" gradientUnits="userSpaceOnUse">
<stop stop-color="#E9E9FD"/>
<stop offset="0.36" stop-color="#D2D2F9"/>
<stop offset="0.71" stop-color="#C4C3F6"/>
<stop offset="1" stop-color="#C0BFF6"/>
</linearGradient>
</defs>
</svg>
