<svg width="1920" height="357" viewBox="0 0 1920 357" fill="none" xmlns="http://www.w3.org/2000/svg">
<g opacity="0.4">
<path d="M0 61.6667H331.034L595.862 1H830.133L1094.96 61.6667H1359.79L1482.02 1H1655.17L1920 61.6667" stroke="#153C3B" stroke-opacity="0.2" stroke-width="1.75"/>
<path d="M0 75.6667H331.034L595.862 15H830.133L1094.96 75.6667H1359.79L1482.02 15H1655.17L1920 75.6667" stroke="#153C3B" stroke-opacity="0.2" stroke-width="1.75"/>
<path d="M0 89.6667H331.034L595.862 29H830.133L1094.96 89.6667H1359.79L1482.02 29H1655.17L1920 89.6667" stroke="#153C3B" stroke-opacity="0.2" stroke-width="1.75"/>
<path d="M0 103.667H331.034L595.862 43H830.133L1094.96 103.667H1359.79L1482.02 43H1655.17L1920 103.667" stroke="#153C3B" stroke-opacity="0.2" stroke-width="1.75"/>
<path d="M0 117.667H331.034L595.862 57H830.133L1094.96 117.667H1359.79L1482.02 57H1655.17L1920 117.667" stroke="#153C3B" stroke-opacity="0.2" stroke-width="1.75"/>
<path d="M0 131.667H331.034L595.862 71H830.133L1094.96 131.667H1359.79L1482.02 71H1655.17L1920 131.667" stroke="#153C3B" stroke-opacity="0.2" stroke-width="1.75"/>
<path d="M0 145.667H331.034L595.862 85H830.133L1094.96 145.667H1359.79L1482.02 85H1655.17L1920 145.667" stroke="#153C3B" stroke-opacity="0.2" stroke-width="1.75"/>
<path d="M0 159.667H331.034L595.862 99H830.133L1094.96 159.667H1359.79L1482.02 99H1655.17L1920 159.667" stroke="#153C3B" stroke-opacity="0.2" stroke-width="1.75"/>
<path d="M0 173.667H331.034L595.862 113H830.133L1094.96 173.667H1359.79L1482.02 113H1655.17L1920 173.667" stroke="#153C3B" stroke-opacity="0.2" stroke-width="1.75"/>
<path d="M0 187.667H331.034L595.862 127H830.133L1094.96 187.667H1359.79L1482.02 127H1655.17L1920 187.667" stroke="#153C3B" stroke-opacity="0.2" stroke-width="1.75"/>
<path d="M0 201.667H331.034L595.862 141H830.133L1094.96 201.667H1359.79L1482.02 141H1655.17L1920 201.667" stroke="#153C3B" stroke-opacity="0.2" stroke-width="1.75"/>
<path d="M0 215.667H331.034L595.862 155H830.133L1094.96 215.667H1359.79L1482.02 155H1655.17L1920 215.667" stroke="#153C3B" stroke-opacity="0.2" stroke-width="1.75"/>
<path d="M0 229.667H331.034L595.862 169H830.133L1094.96 229.667H1359.79L1482.02 169H1655.17L1920 229.667" stroke="#153C3B" stroke-opacity="0.2" stroke-width="1.75"/>
<path d="M0 243.667H331.034L595.862 183H830.133L1094.96 243.667H1359.79L1482.02 183H1655.17L1920 243.667" stroke="#153C3B" stroke-opacity="0.2" stroke-width="1.75"/>
<path d="M0 257.667H331.034L595.862 197H830.133L1094.96 257.667H1359.79L1482.02 197H1655.17L1920 257.667" stroke="#153C3B" stroke-opacity="0.2" stroke-width="1.75"/>
<path d="M0 271.667H331.034L595.862 211H830.133L1094.96 271.667H1359.79L1482.02 211H1655.17L1920 271.667" stroke="#153C3B" stroke-opacity="0.2" stroke-width="1.75"/>
<path d="M0 285.667H331.034L595.862 225H830.133L1094.96 285.667H1359.79L1482.02 225H1655.17L1920 285.667" stroke="#153C3B" stroke-opacity="0.2" stroke-width="1.75"/>
<path d="M0 299.667H331.034L595.862 239H830.133L1094.96 299.667H1359.79L1482.02 239H1655.17L1920 299.667" stroke="#153C3B" stroke-opacity="0.2" stroke-width="1.75"/>
<path d="M0 313.667H331.034L595.862 253H830.133L1094.96 313.667H1359.79L1482.02 253H1655.17L1920 313.667" stroke="#153C3B" stroke-opacity="0.2" stroke-width="1.75"/>
<path d="M0 327.667H331.034L595.862 267H830.133L1094.96 327.667H1359.79L1482.02 267H1655.17L1920 327.667" stroke="#153C3B" stroke-opacity="0.2" stroke-width="1.75"/>
<path d="M0 341.667H331.034L595.862 281H830.133L1094.96 341.667H1359.79L1482.02 281H1655.17L1920 341.667" stroke="#153C3B" stroke-opacity="0.2" stroke-width="1.75"/>
<path d="M0 355.667H331.034L595.862 295H830.133L1094.96 355.667H1359.79L1482.02 295H1655.17L1920 355.667" stroke="#153C3B" stroke-opacity="0.2" stroke-width="1.75"/>
</g>
</svg>
