<svg width="339" height="375" viewBox="0 0 339 375" fill="none" xmlns="http://www.w3.org/2000/svg">
<mask id="mask0_1_498" style="mask-type:alpha" maskUnits="userSpaceOnUse" x="0" y="-1" width="339" height="376">
<rect x="0.000976562" y="-0.00012207" width="338.333" height="374.5" fill="url(#paint0_radial_1_498)"/>
</mask>
<g mask="url(#mask0_1_498)">
<rect x="0.218135" y="0.217037" width="42.9974" height="42.9974" stroke="white" stroke-opacity="0.15" stroke-width="0.434318" stroke-dasharray="4.34 4.34"/>
<rect x="43.6506" y="0.217037" width="42.9974" height="42.9974" stroke="white" stroke-opacity="0.15" stroke-width="0.434318" stroke-dasharray="4.34 4.34"/>
<rect x="87.0816" y="0.217037" width="42.9974" height="42.9974" stroke="white" stroke-opacity="0.15" stroke-width="0.434318" stroke-dasharray="4.34 4.34"/>
<rect x="130.513" y="0.217037" width="42.9974" height="42.9974" stroke="white" stroke-opacity="0.15" stroke-width="0.434318" stroke-dasharray="4.34 4.34"/>
<rect x="173.946" y="0.217037" width="42.9974" height="42.9974" stroke="white" stroke-opacity="0.15" stroke-width="0.434318" stroke-dasharray="4.34 4.34"/>
<rect x="217.377" y="0.217037" width="42.9974" height="42.9974" stroke="white" stroke-opacity="0.15" stroke-width="0.434318" stroke-dasharray="4.34 4.34"/>
<rect x="260.809" y="0.217037" width="42.9974" height="42.9974" stroke="white" stroke-opacity="0.15" stroke-width="0.434318" stroke-dasharray="4.34 4.34"/>
<rect x="304.242" y="0.217037" width="42.9974" height="42.9974" stroke="white" stroke-opacity="0.15" stroke-width="0.434318" stroke-dasharray="4.34 4.34"/>
<rect x="0.218135" y="43.6488" width="42.9974" height="42.9974" stroke="white" stroke-opacity="0.15" stroke-width="0.434318" stroke-dasharray="4.34 4.34"/>
<rect x="43.6506" y="43.6488" width="42.9974" height="42.9974" stroke="white" stroke-opacity="0.15" stroke-width="0.434318" stroke-dasharray="4.34 4.34"/>
<rect x="87.0816" y="43.6488" width="42.9974" height="42.9974" stroke="white" stroke-opacity="0.15" stroke-width="0.434318" stroke-dasharray="4.34 4.34"/>
<rect x="130.513" y="43.6488" width="42.9974" height="42.9974" stroke="white" stroke-opacity="0.15" stroke-width="0.434318" stroke-dasharray="4.34 4.34"/>
<rect x="173.946" y="43.6488" width="42.9974" height="42.9974" stroke="white" stroke-opacity="0.15" stroke-width="0.434318" stroke-dasharray="4.34 4.34"/>
<rect x="217.377" y="43.6488" width="42.9974" height="42.9974" stroke="white" stroke-opacity="0.15" stroke-width="0.434318" stroke-dasharray="4.34 4.34"/>
<rect x="260.809" y="43.6488" width="42.9974" height="42.9974" stroke="white" stroke-opacity="0.15" stroke-width="0.434318" stroke-dasharray="4.34 4.34"/>
<rect x="304.242" y="43.6488" width="42.9974" height="42.9974" stroke="white" stroke-opacity="0.15" stroke-width="0.434318" stroke-dasharray="4.34 4.34"/>
<rect x="0.218135" y="87.0803" width="42.9974" height="42.9974" stroke="white" stroke-opacity="0.15" stroke-width="0.434318" stroke-dasharray="4.34 4.34"/>
<rect x="43.6506" y="87.0803" width="42.9974" height="42.9974" stroke="white" stroke-opacity="0.15" stroke-width="0.434318" stroke-dasharray="4.34 4.34"/>
<rect x="87.0816" y="87.0803" width="42.9974" height="42.9974" stroke="white" stroke-opacity="0.15" stroke-width="0.434318" stroke-dasharray="4.34 4.34"/>
<rect x="130.513" y="87.0803" width="42.9974" height="42.9974" stroke="white" stroke-opacity="0.15" stroke-width="0.434318" stroke-dasharray="4.34 4.34"/>
<rect x="173.946" y="87.0803" width="42.9974" height="42.9974" stroke="white" stroke-opacity="0.15" stroke-width="0.434318" stroke-dasharray="4.34 4.34"/>
<rect x="217.377" y="87.0803" width="42.9974" height="42.9974" stroke="white" stroke-opacity="0.15" stroke-width="0.434318" stroke-dasharray="4.34 4.34"/>
<rect x="260.809" y="87.0803" width="42.9974" height="42.9974" stroke="white" stroke-opacity="0.15" stroke-width="0.434318" stroke-dasharray="4.34 4.34"/>
<rect x="304.242" y="87.0803" width="42.9974" height="42.9974" stroke="white" stroke-opacity="0.15" stroke-width="0.434318" stroke-dasharray="4.34 4.34"/>
<rect x="0.218135" y="130.512" width="42.9974" height="42.9974" stroke="white" stroke-opacity="0.15" stroke-width="0.434318" stroke-dasharray="4.34 4.34"/>
<rect x="43.6506" y="130.512" width="42.9974" height="42.9974" stroke="white" stroke-opacity="0.15" stroke-width="0.434318" stroke-dasharray="4.34 4.34"/>
<rect x="87.0816" y="130.512" width="42.9974" height="42.9974" stroke="white" stroke-opacity="0.15" stroke-width="0.434318" stroke-dasharray="4.34 4.34"/>
<rect x="130.513" y="130.512" width="42.9974" height="42.9974" stroke="white" stroke-opacity="0.15" stroke-width="0.434318" stroke-dasharray="4.34 4.34"/>
<rect x="173.946" y="130.512" width="42.9974" height="42.9974" stroke="white" stroke-opacity="0.15" stroke-width="0.434318" stroke-dasharray="4.34 4.34"/>
<rect x="217.377" y="130.512" width="42.9974" height="42.9974" stroke="white" stroke-opacity="0.15" stroke-width="0.434318" stroke-dasharray="4.34 4.34"/>
<rect x="260.809" y="130.512" width="42.9974" height="42.9974" stroke="white" stroke-opacity="0.15" stroke-width="0.434318" stroke-dasharray="4.34 4.34"/>
<rect x="304.242" y="130.512" width="42.9974" height="42.9974" stroke="white" stroke-opacity="0.15" stroke-width="0.434318" stroke-dasharray="4.34 4.34"/>
<rect x="0.218135" y="173.944" width="42.9974" height="42.9974" stroke="white" stroke-opacity="0.15" stroke-width="0.434318" stroke-dasharray="4.34 4.34"/>
<rect x="43.6506" y="173.944" width="42.9974" height="42.9974" stroke="white" stroke-opacity="0.15" stroke-width="0.434318" stroke-dasharray="4.34 4.34"/>
<rect x="87.0816" y="173.944" width="42.9974" height="42.9974" stroke="white" stroke-opacity="0.15" stroke-width="0.434318" stroke-dasharray="4.34 4.34"/>
<rect x="130.513" y="173.944" width="42.9974" height="42.9974" stroke="white" stroke-opacity="0.15" stroke-width="0.434318" stroke-dasharray="4.34 4.34"/>
<rect x="173.946" y="173.944" width="42.9974" height="42.9974" stroke="white" stroke-opacity="0.15" stroke-width="0.434318" stroke-dasharray="4.34 4.34"/>
<rect x="217.377" y="173.944" width="42.9974" height="42.9974" stroke="white" stroke-opacity="0.15" stroke-width="0.434318" stroke-dasharray="4.34 4.34"/>
<rect x="260.809" y="173.944" width="42.9974" height="42.9974" stroke="white" stroke-opacity="0.15" stroke-width="0.434318" stroke-dasharray="4.34 4.34"/>
<rect x="304.242" y="173.944" width="42.9974" height="42.9974" stroke="white" stroke-opacity="0.15" stroke-width="0.434318" stroke-dasharray="4.34 4.34"/>
<rect x="0.218135" y="217.376" width="42.9974" height="42.9974" stroke="white" stroke-opacity="0.15" stroke-width="0.434318" stroke-dasharray="4.34 4.34"/>
<rect x="43.6506" y="217.376" width="42.9974" height="42.9974" stroke="white" stroke-opacity="0.15" stroke-width="0.434318" stroke-dasharray="4.34 4.34"/>
<rect x="87.0816" y="217.376" width="42.9974" height="42.9974" stroke="white" stroke-opacity="0.15" stroke-width="0.434318" stroke-dasharray="4.34 4.34"/>
<rect x="130.513" y="217.376" width="42.9974" height="42.9974" stroke="white" stroke-opacity="0.15" stroke-width="0.434318" stroke-dasharray="4.34 4.34"/>
<rect x="173.946" y="217.376" width="42.9974" height="42.9974" stroke="white" stroke-opacity="0.15" stroke-width="0.434318" stroke-dasharray="4.34 4.34"/>
<rect x="217.377" y="217.376" width="42.9974" height="42.9974" stroke="white" stroke-opacity="0.15" stroke-width="0.434318" stroke-dasharray="4.34 4.34"/>
<rect x="260.809" y="217.376" width="42.9974" height="42.9974" stroke="white" stroke-opacity="0.15" stroke-width="0.434318" stroke-dasharray="4.34 4.34"/>
<rect x="304.242" y="217.376" width="42.9974" height="42.9974" stroke="white" stroke-opacity="0.15" stroke-width="0.434318" stroke-dasharray="4.34 4.34"/>
<rect x="0.218135" y="260.807" width="42.9974" height="42.9974" stroke="white" stroke-opacity="0.15" stroke-width="0.434318" stroke-dasharray="4.34 4.34"/>
<rect x="43.6506" y="260.807" width="42.9974" height="42.9974" stroke="white" stroke-opacity="0.15" stroke-width="0.434318" stroke-dasharray="4.34 4.34"/>
<rect x="87.0816" y="260.807" width="42.9974" height="42.9974" stroke="white" stroke-opacity="0.15" stroke-width="0.434318" stroke-dasharray="4.34 4.34"/>
<rect x="130.513" y="260.807" width="42.9974" height="42.9974" stroke="white" stroke-opacity="0.15" stroke-width="0.434318" stroke-dasharray="4.34 4.34"/>
<rect x="173.946" y="260.807" width="42.9974" height="42.9974" stroke="white" stroke-opacity="0.15" stroke-width="0.434318" stroke-dasharray="4.34 4.34"/>
<rect x="217.377" y="260.807" width="42.9974" height="42.9974" stroke="white" stroke-opacity="0.15" stroke-width="0.434318" stroke-dasharray="4.34 4.34"/>
<rect x="260.809" y="260.807" width="42.9974" height="42.9974" stroke="white" stroke-opacity="0.15" stroke-width="0.434318" stroke-dasharray="4.34 4.34"/>
<rect x="304.242" y="260.807" width="42.9974" height="42.9974" stroke="white" stroke-opacity="0.15" stroke-width="0.434318" stroke-dasharray="4.34 4.34"/>
<rect x="0.218135" y="304.239" width="42.9974" height="42.9974" stroke="white" stroke-opacity="0.15" stroke-width="0.434318" stroke-dasharray="4.34 4.34"/>
<rect x="43.6506" y="304.24" width="42.9974" height="42.9974" stroke="white" stroke-opacity="0.15" stroke-width="0.434318" stroke-dasharray="4.34 4.34"/>
<rect x="87.0816" y="304.24" width="42.9974" height="42.9974" stroke="white" stroke-opacity="0.15" stroke-width="0.434318" stroke-dasharray="4.34 4.34"/>
<rect x="130.513" y="304.24" width="42.9974" height="42.9974" stroke="white" stroke-opacity="0.15" stroke-width="0.434318" stroke-dasharray="4.34 4.34"/>
<rect x="173.946" y="304.24" width="42.9974" height="42.9974" stroke="white" stroke-opacity="0.15" stroke-width="0.434318" stroke-dasharray="4.34 4.34"/>
<rect x="217.377" y="304.24" width="42.9974" height="42.9974" stroke="white" stroke-opacity="0.15" stroke-width="0.434318" stroke-dasharray="4.34 4.34"/>
<rect x="260.809" y="304.24" width="42.9974" height="42.9974" stroke="white" stroke-opacity="0.15" stroke-width="0.434318" stroke-dasharray="4.34 4.34"/>
<rect x="304.242" y="304.239" width="42.9974" height="42.9974" stroke="white" stroke-opacity="0.15" stroke-width="0.434318" stroke-dasharray="4.34 4.34"/>
<rect x="0.218135" y="347.671" width="42.9974" height="42.9974" stroke="white" stroke-opacity="0.15" stroke-width="0.434318" stroke-dasharray="4.34 4.34"/>
<rect x="43.6506" y="347.671" width="42.9974" height="42.9974" stroke="white" stroke-opacity="0.15" stroke-width="0.434318" stroke-dasharray="4.34 4.34"/>
<rect x="87.0816" y="347.671" width="42.9974" height="42.9974" stroke="white" stroke-opacity="0.15" stroke-width="0.434318" stroke-dasharray="4.34 4.34"/>
<rect x="130.513" y="347.671" width="42.9974" height="42.9974" stroke="white" stroke-opacity="0.15" stroke-width="0.434318" stroke-dasharray="4.34 4.34"/>
<rect x="173.946" y="347.671" width="42.9974" height="42.9974" stroke="white" stroke-opacity="0.15" stroke-width="0.434318" stroke-dasharray="4.34 4.34"/>
<rect x="217.377" y="347.671" width="42.9974" height="42.9974" stroke="white" stroke-opacity="0.15" stroke-width="0.434318" stroke-dasharray="4.34 4.34"/>
<rect x="260.809" y="347.671" width="42.9974" height="42.9974" stroke="white" stroke-opacity="0.15" stroke-width="0.434318" stroke-dasharray="4.34 4.34"/>
<rect x="304.242" y="347.671" width="42.9974" height="42.9974" stroke="white" stroke-opacity="0.15" stroke-width="0.434318" stroke-dasharray="4.34 4.34"/>
</g>
<defs>
<radialGradient id="paint0_radial_1_498" cx="0" cy="0" r="1" gradientUnits="userSpaceOnUse" gradientTransform="translate(169.168 164.364) rotate(90) scale(266.727 240.969)">
<stop stop-color="#013281"/>
<stop offset="1" stop-color="#013281" stop-opacity="0"/>
</radialGradient>
</defs>
</svg>
