<svg width="1920" height="724" viewBox="0 0 1920 724" fill="none" xmlns="http://www.w3.org/2000/svg">
<g opacity="0.4">
<path d="M0 203.667H331.034L595.862 143H830.133L1094.96 203.667H1359.79L1482.02 143H1655.17L1920 203.667" stroke="#153C3B" stroke-opacity="0.2" stroke-width="1.75"/>
<path d="M0 217.667H331.034L595.862 157H830.133L1094.96 217.667H1359.79L1482.02 157H1655.17L1920 217.667" stroke="#153C3B" stroke-opacity="0.2" stroke-width="1.75"/>
<path d="M0 231.667H331.034L595.862 171H830.133L1094.96 231.667H1359.79L1482.02 171H1655.17L1920 231.667" stroke="#153C3B" stroke-opacity="0.2" stroke-width="1.75"/>
<path d="M0 245.667H331.034L595.862 185H830.133L1094.96 245.667H1359.79L1482.02 185H1655.17L1920 245.667" stroke="#153C3B" stroke-opacity="0.2" stroke-width="1.75"/>
<path d="M0 259.667H331.034L595.862 199H830.133L1094.96 259.667H1359.79L1482.02 199H1655.17L1920 259.667" stroke="#153C3B" stroke-opacity="0.2" stroke-width="1.75"/>
<path d="M0 273.667H331.034L595.862 213H830.133L1094.96 273.667H1359.79L1482.02 213H1655.17L1920 273.667" stroke="#153C3B" stroke-opacity="0.2" stroke-width="1.75"/>
<path d="M0 287.667H331.034L595.862 227H830.133L1094.96 287.667H1359.79L1482.02 227H1655.17L1920 287.667" stroke="#153C3B" stroke-opacity="0.2" stroke-width="1.75"/>
<path d="M0 301.667H331.034L595.862 241H830.133L1094.96 301.667H1359.79L1482.02 241H1655.17L1920 301.667" stroke="#153C3B" stroke-opacity="0.2" stroke-width="1.75"/>
<path d="M0 315.667H331.034L595.862 255H830.133L1094.96 315.667H1359.79L1482.02 255H1655.17L1920 315.667" stroke="#153C3B" stroke-opacity="0.2" stroke-width="1.75"/>
<path d="M0 329.667H331.034L595.862 269H830.133L1094.96 329.667H1359.79L1482.02 269H1655.17L1920 329.667" stroke="#153C3B" stroke-opacity="0.2" stroke-width="1.75"/>
<path d="M0 343.667H331.034L595.862 283H830.133L1094.96 343.667H1359.79L1482.02 283H1655.17L1920 343.667" stroke="#153C3B" stroke-opacity="0.2" stroke-width="1.75"/>
<path d="M0 357.667H331.034L595.862 297H830.133L1094.96 357.667H1359.79L1482.02 297H1655.17L1920 357.667" stroke="#153C3B" stroke-opacity="0.2" stroke-width="1.75"/>
<path d="M0 371.667H331.034L595.862 311H830.133L1094.96 371.667H1359.79L1482.02 311H1655.17L1920 371.667" stroke="#153C3B" stroke-opacity="0.2" stroke-width="1.75"/>
<path d="M0 385.667H331.034L595.862 325H830.133L1094.96 385.667H1359.79L1482.02 325H1655.17L1920 385.667" stroke="#153C3B" stroke-opacity="0.2" stroke-width="1.75"/>
<path d="M0 399.667H331.034L595.862 339H830.133L1094.96 399.667H1359.79L1482.02 339H1655.17L1920 399.667" stroke="#153C3B" stroke-opacity="0.2" stroke-width="1.75"/>
<path d="M0 413.667H331.034L595.862 353H830.133L1094.96 413.667H1359.79L1482.02 353H1655.17L1920 413.667" stroke="#153C3B" stroke-opacity="0.2" stroke-width="1.75"/>
<path d="M0 427.667H331.034L595.862 367H830.133L1094.96 427.667H1359.79L1482.02 367H1655.17L1920 427.667" stroke="#153C3B" stroke-opacity="0.2" stroke-width="1.75"/>
<path d="M0 441.667H331.034L595.862 381H830.133L1094.96 441.667H1359.79L1482.02 381H1655.17L1920 441.667" stroke="#153C3B" stroke-opacity="0.2" stroke-width="1.75"/>
<path d="M0 455.667H331.034L595.862 395H830.133L1094.96 455.667H1359.79L1482.02 395H1655.17L1920 455.667" stroke="#153C3B" stroke-opacity="0.2" stroke-width="1.75"/>
<path d="M0 469.667H331.034L595.862 409H830.133L1094.96 469.667H1359.79L1482.02 409H1655.17L1920 469.667" stroke="#153C3B" stroke-opacity="0.2" stroke-width="1.75"/>
<path d="M0 483.667H331.034L595.862 423H830.133L1094.96 483.667H1359.79L1482.02 423H1655.17L1920 483.667" stroke="#153C3B" stroke-opacity="0.2" stroke-width="1.75"/>
<path d="M0 497.667H331.034L595.862 437H830.133L1094.96 497.667H1359.79L1482.02 437H1655.17L1920 497.667" stroke="#153C3B" stroke-opacity="0.2" stroke-width="1.75"/>
</g>
<path fill-rule="evenodd" clip-rule="evenodd" d="M1251.67 328.083H1192.17L1192.17 242.917L1107 242.917V126.25L1552.67 126.25L1552.67 211.417L1644.83 211.417L1644.83 270.917L1706.67 270.916V387.583L1251.67 387.583V328.083Z" fill="#175654"/>
<g filter="url(#filter0_d_0_1)">
<rect x="1165.33" y="52.1667" width="443.333" height="518" rx="36.614" fill="#8BCBCB"/>
<rect x="1165.98" y="52.8113" width="442.044" height="516.711" rx="35.9694" stroke="#8F9092" stroke-opacity="0.24" stroke-width="1.28913"/>
<path d="M1271.75 182.031C1270.61 182.031 1269.52 181.909 1268.47 181.667C1267.42 181.444 1266.49 181.08 1265.68 180.575C1264.87 180.049 1264.23 179.392 1263.77 178.603C1263.3 177.794 1263.07 176.834 1263.07 175.721C1263.07 175.6 1263.07 175.489 1263.07 175.388C1263.09 175.266 1263.1 175.165 1263.1 175.084H1266.5C1266.5 175.145 1266.49 175.236 1266.47 175.357C1266.47 175.479 1266.47 175.58 1266.47 175.661C1266.47 176.409 1266.69 177.046 1267.13 177.572C1267.58 178.097 1268.2 178.492 1268.98 178.755C1269.79 179.018 1270.71 179.149 1271.75 179.149C1272.31 179.149 1272.86 179.119 1273.38 179.058C1273.91 178.977 1274.38 178.866 1274.81 178.724C1275.25 178.563 1275.64 178.37 1275.96 178.148C1276.28 177.905 1276.54 177.622 1276.72 177.299C1276.9 176.975 1276.99 176.601 1276.99 176.176C1276.99 175.529 1276.8 174.993 1276.42 174.569C1276.05 174.144 1275.55 173.79 1274.9 173.507C1274.27 173.224 1273.55 172.971 1272.75 172.749C1271.96 172.526 1271.14 172.304 1270.29 172.081C1269.44 171.859 1268.61 171.596 1267.8 171.293C1267.01 170.989 1266.3 170.625 1265.65 170.201C1265.02 169.756 1264.52 169.21 1264.13 168.563C1263.77 167.895 1263.59 167.086 1263.59 166.136C1263.59 165.226 1263.78 164.417 1264.16 163.709C1264.55 163.002 1265.1 162.415 1265.83 161.95C1266.56 161.465 1267.43 161.101 1268.44 160.858C1269.45 160.615 1270.59 160.494 1271.87 160.494C1272.96 160.494 1273.99 160.615 1274.96 160.858C1275.93 161.08 1276.78 161.434 1277.51 161.92C1278.24 162.405 1278.8 163.022 1279.21 163.77C1279.63 164.518 1279.84 165.408 1279.84 166.439V166.803H1276.48V166.409C1276.48 165.762 1276.28 165.216 1275.9 164.771C1275.52 164.326 1274.98 163.982 1274.29 163.74C1273.61 163.497 1272.81 163.376 1271.9 163.376C1270.82 163.376 1269.93 163.487 1269.2 163.709C1268.47 163.912 1267.91 164.205 1267.53 164.589C1267.16 164.953 1266.98 165.398 1266.98 165.924C1266.98 166.51 1267.17 166.995 1267.56 167.38C1267.94 167.744 1268.45 168.057 1269.08 168.32C1269.72 168.583 1270.44 168.826 1271.23 169.048C1272.04 169.25 1272.86 169.473 1273.69 169.715C1274.54 169.938 1275.35 170.201 1276.14 170.504C1276.95 170.807 1277.67 171.181 1278.3 171.626C1278.94 172.071 1279.46 172.627 1279.84 173.295C1280.23 173.942 1280.42 174.741 1280.42 175.691C1280.42 177.187 1280.05 178.411 1279.3 179.361C1278.55 180.292 1277.52 180.969 1276.2 181.394C1274.91 181.818 1273.42 182.031 1271.75 182.031ZM1287.91 182.031C1287 182.031 1286.28 181.859 1285.76 181.515C1285.25 181.151 1284.89 180.696 1284.66 180.15C1284.46 179.584 1284.36 178.987 1284.36 178.36V168.32H1282.36V165.711H1284.42L1285 161.252H1287.52V165.711H1290.4V168.32H1287.52V177.996C1287.52 178.461 1287.62 178.815 1287.82 179.058C1288.02 179.301 1288.36 179.422 1288.82 179.422H1290.4V181.545C1290.2 181.626 1289.94 181.697 1289.64 181.758C1289.36 181.839 1289.06 181.899 1288.76 181.94C1288.46 182 1288.17 182.031 1287.91 182.031ZM1297.21 182.031C1296.71 182.031 1296.16 181.97 1295.58 181.849C1294.99 181.727 1294.43 181.505 1293.91 181.181C1293.4 180.858 1292.99 180.413 1292.66 179.847C1292.34 179.26 1292.18 178.502 1292.18 177.572C1292.18 176.48 1292.43 175.58 1292.94 174.872C1293.44 174.164 1294.15 173.608 1295.06 173.204C1295.97 172.799 1297.05 172.516 1298.31 172.354C1299.58 172.193 1300.96 172.112 1302.46 172.112V170.534C1302.46 170.009 1302.37 169.543 1302.19 169.139C1302.03 168.735 1301.71 168.421 1301.25 168.199C1300.8 167.976 1300.16 167.865 1299.31 167.865C1298.46 167.865 1297.79 167.976 1297.3 168.199C1296.84 168.401 1296.51 168.664 1296.3 168.987C1296.12 169.291 1296.03 169.624 1296.03 169.988V170.443H1293C1292.98 170.342 1292.97 170.241 1292.97 170.14C1292.97 170.039 1292.97 169.918 1292.97 169.776C1292.97 168.826 1293.23 168.027 1293.76 167.38C1294.3 166.712 1295.06 166.207 1296.03 165.863C1297 165.519 1298.12 165.347 1299.4 165.347C1300.77 165.347 1301.91 165.55 1302.82 165.954C1303.76 166.338 1304.45 166.894 1304.92 167.622C1305.38 168.35 1305.62 169.23 1305.62 170.261V178.36C1305.62 178.745 1305.71 179.018 1305.89 179.179C1306.09 179.341 1306.32 179.422 1306.59 179.422H1307.68V181.545C1307.44 181.646 1307.13 181.748 1306.77 181.849C1306.4 181.95 1305.98 182 1305.49 182C1304.95 182 1304.48 181.899 1304.1 181.697C1303.73 181.515 1303.43 181.252 1303.19 180.908C1302.97 180.544 1302.81 180.14 1302.73 179.695H1302.55C1302.19 180.16 1301.74 180.575 1301.22 180.939C1300.71 181.282 1300.13 181.545 1299.46 181.727C1298.79 181.93 1298.04 182.031 1297.21 182.031ZM1298.09 179.422C1298.72 179.422 1299.3 179.331 1299.82 179.149C1300.37 178.947 1300.83 178.674 1301.22 178.33C1301.6 177.966 1301.9 177.541 1302.13 177.056C1302.35 176.55 1302.46 176.004 1302.46 175.418V174.356C1301.07 174.356 1299.84 174.437 1298.79 174.599C1297.74 174.761 1296.92 175.064 1296.33 175.509C1295.75 175.934 1295.45 176.53 1295.45 177.299C1295.45 177.764 1295.55 178.158 1295.76 178.482C1295.96 178.785 1296.26 179.018 1296.67 179.179C1297.07 179.341 1297.55 179.422 1298.09 179.422ZM1309.86 181.667V165.711H1312.46L1312.74 167.986H1312.95C1313.33 167.4 1313.79 166.915 1314.32 166.53C1314.84 166.146 1315.42 165.853 1316.04 165.651C1316.69 165.448 1317.4 165.347 1318.17 165.347C1319.18 165.347 1320.07 165.529 1320.84 165.893C1321.61 166.237 1322.2 166.803 1322.63 167.592C1323.07 168.381 1323.29 169.442 1323.29 170.777V181.667H1320.14V171.262C1320.14 170.656 1320.06 170.15 1319.9 169.746C1319.76 169.341 1319.54 169.018 1319.26 168.775C1318.98 168.532 1318.64 168.36 1318.26 168.259C1317.87 168.158 1317.45 168.108 1316.98 168.108C1316.26 168.108 1315.59 168.29 1314.98 168.654C1314.4 168.997 1313.92 169.483 1313.56 170.11C1313.19 170.737 1313.01 171.475 1313.01 172.324V181.667H1309.86ZM1332.73 182.031C1331.44 182.031 1330.32 181.737 1329.37 181.151C1328.42 180.565 1327.68 179.655 1327.15 178.421C1326.65 177.187 1326.4 175.59 1326.4 173.628C1326.4 171.707 1326.66 170.14 1327.18 168.927C1327.71 167.713 1328.44 166.813 1329.37 166.227C1330.3 165.641 1331.37 165.347 1332.58 165.347C1333.29 165.347 1333.95 165.428 1334.55 165.59C1335.16 165.752 1335.7 166.005 1336.16 166.348C1336.65 166.692 1337.05 167.127 1337.38 167.653H1337.59V159.736H1340.74V181.667H1338.16L1337.86 179.483H1337.65C1337.12 180.332 1336.43 180.969 1335.56 181.394C1334.71 181.818 1333.77 182.031 1332.73 182.031ZM1333.61 179.301C1334.54 179.301 1335.29 179.098 1335.86 178.694C1336.45 178.269 1336.88 177.663 1337.16 176.874C1337.45 176.065 1337.59 175.084 1337.59 173.932V173.507C1337.59 172.536 1337.5 171.707 1337.32 171.02C1337.13 170.332 1336.87 169.776 1336.53 169.351C1336.18 168.906 1335.77 168.583 1335.28 168.381C1334.8 168.178 1334.25 168.077 1333.64 168.077C1332.71 168.077 1331.96 168.269 1331.37 168.654C1330.78 169.018 1330.35 169.594 1330.07 170.383C1329.8 171.171 1329.67 172.193 1329.67 173.446V173.992C1329.67 175.246 1329.81 176.267 1330.1 177.056C1330.38 177.824 1330.8 178.391 1331.37 178.755C1331.96 179.119 1332.7 179.301 1333.61 179.301ZM1348.85 182.031C1348.34 182.031 1347.79 181.97 1347.21 181.849C1346.62 181.727 1346.06 181.505 1345.54 181.181C1345.03 180.858 1344.62 180.413 1344.3 179.847C1343.97 179.26 1343.81 178.502 1343.81 177.572C1343.81 176.48 1344.06 175.58 1344.57 174.872C1345.07 174.164 1345.78 173.608 1346.69 173.204C1347.6 172.799 1348.68 172.516 1349.94 172.354C1351.21 172.193 1352.6 172.112 1354.09 172.112V170.534C1354.09 170.009 1354 169.543 1353.82 169.139C1353.66 168.735 1353.34 168.421 1352.88 168.199C1352.43 167.976 1351.79 167.865 1350.94 167.865C1350.09 167.865 1349.42 167.976 1348.94 168.199C1348.47 168.401 1348.14 168.664 1347.94 168.987C1347.75 169.291 1347.66 169.624 1347.66 169.988V170.443H1344.63C1344.61 170.342 1344.6 170.241 1344.6 170.14C1344.6 170.039 1344.6 169.918 1344.6 169.776C1344.6 168.826 1344.86 168.027 1345.39 167.38C1345.93 166.712 1346.69 166.207 1347.66 165.863C1348.63 165.519 1349.76 165.347 1351.03 165.347C1352.4 165.347 1353.55 165.55 1354.46 165.954C1355.39 166.338 1356.08 166.894 1356.55 167.622C1357.01 168.35 1357.25 169.23 1357.25 170.261V178.36C1357.25 178.745 1357.34 179.018 1357.52 179.179C1357.72 179.341 1357.96 179.422 1358.22 179.422H1359.31V181.545C1359.07 181.646 1358.76 181.748 1358.4 181.849C1358.04 181.95 1357.61 182 1357.13 182C1356.58 182 1356.11 181.899 1355.73 181.697C1355.37 181.515 1355.06 181.252 1354.82 180.908C1354.6 180.544 1354.45 180.14 1354.37 179.695H1354.18C1353.82 180.16 1353.37 180.575 1352.85 180.939C1352.34 181.282 1351.76 181.545 1351.09 181.727C1350.42 181.93 1349.67 182.031 1348.85 182.031ZM1349.72 179.422C1350.35 179.422 1350.93 179.331 1351.45 179.149C1352 178.947 1352.46 178.674 1352.85 178.33C1353.23 177.966 1353.54 177.541 1353.76 177.056C1353.98 176.55 1354.09 176.004 1354.09 175.418V174.356C1352.7 174.356 1351.47 174.437 1350.42 174.599C1349.37 174.761 1348.55 175.064 1347.97 175.509C1347.38 175.934 1347.09 176.53 1347.09 177.299C1347.09 177.764 1347.19 178.158 1347.39 178.482C1347.59 178.785 1347.89 179.018 1348.3 179.179C1348.7 179.341 1349.18 179.422 1349.72 179.422ZM1361.49 181.667V165.711H1364.1L1364.37 168.29H1364.55C1364.73 167.784 1364.97 167.309 1365.25 166.864C1365.55 166.419 1365.94 166.055 1366.4 165.772C1366.89 165.489 1367.47 165.347 1368.16 165.347C1368.48 165.347 1368.77 165.378 1369.01 165.438C1369.27 165.499 1369.48 165.55 1369.62 165.59V168.563H1368.56C1367.91 168.563 1367.33 168.664 1366.83 168.866C1366.34 169.068 1365.93 169.372 1365.58 169.776C1365.26 170.16 1365.02 170.635 1364.86 171.202C1364.71 171.768 1364.64 172.405 1364.64 173.113V181.667H1361.49ZM1377.17 182.031C1375.87 182.031 1374.75 181.737 1373.8 181.151C1372.85 180.565 1372.11 179.655 1371.59 178.421C1371.08 177.187 1370.83 175.59 1370.83 173.628C1370.83 171.707 1371.09 170.14 1371.62 168.927C1372.14 167.713 1372.87 166.813 1373.8 166.227C1374.73 165.641 1375.8 165.347 1377.02 165.347C1377.72 165.347 1378.38 165.428 1378.99 165.59C1379.6 165.752 1380.13 166.005 1380.6 166.348C1381.08 166.692 1381.49 167.127 1381.81 167.653H1382.02V159.736H1385.18V181.667H1382.6L1382.29 179.483H1382.08C1381.56 180.332 1380.86 180.969 1379.99 181.394C1379.14 181.818 1378.2 182.031 1377.17 182.031ZM1378.05 179.301C1378.98 179.301 1379.73 179.098 1380.29 178.694C1380.88 178.269 1381.31 177.663 1381.6 176.874C1381.88 176.065 1382.02 175.084 1382.02 173.932V173.507C1382.02 172.536 1381.93 171.707 1381.75 171.02C1381.57 170.332 1381.3 169.776 1380.96 169.351C1380.62 168.906 1380.2 168.583 1379.72 168.381C1379.23 168.178 1378.69 168.077 1378.08 168.077C1377.15 168.077 1376.39 168.269 1375.8 168.654C1375.22 169.018 1374.78 169.594 1374.5 170.383C1374.24 171.171 1374.1 172.193 1374.1 173.446V173.992C1374.1 175.246 1374.25 176.267 1374.53 177.056C1374.81 177.824 1375.24 178.391 1375.8 178.755C1376.39 179.119 1377.14 179.301 1378.05 179.301ZM1395.89 181.667V160.858H1406.26C1407.74 160.858 1408.96 161.131 1409.93 161.677C1410.9 162.223 1411.63 162.981 1412.12 163.952C1412.62 164.902 1412.88 166.035 1412.88 167.349C1412.88 168.664 1412.61 169.827 1412.09 170.838C1411.56 171.829 1410.79 172.597 1409.78 173.143C1408.79 173.689 1407.58 173.962 1406.14 173.962H1399.29V181.667H1395.89ZM1399.29 171.05H1405.99C1407.06 171.05 1407.9 170.726 1408.51 170.079C1409.14 169.432 1409.45 168.532 1409.45 167.38C1409.45 166.611 1409.32 165.964 1409.05 165.438C1408.79 164.892 1408.41 164.478 1407.9 164.195C1407.4 163.912 1406.76 163.77 1405.99 163.77H1399.29V171.05ZM1415.7 181.667V165.711H1418.31L1418.58 168.29H1418.76C1418.94 167.784 1419.18 167.309 1419.46 166.864C1419.76 166.419 1420.15 166.055 1420.61 165.772C1421.1 165.489 1421.68 165.347 1422.37 165.347C1422.69 165.347 1422.98 165.378 1423.22 165.438C1423.48 165.499 1423.68 165.55 1423.83 165.59V168.563H1422.76C1422.12 168.563 1421.54 168.664 1421.04 168.866C1420.55 169.068 1420.14 169.372 1419.79 169.776C1419.47 170.16 1419.23 170.635 1419.06 171.202C1418.92 171.768 1418.85 172.405 1418.85 173.113V181.667H1415.7ZM1432.68 182.031C1431.02 182.031 1429.62 181.737 1428.47 181.151C1427.33 180.544 1426.47 179.624 1425.89 178.391C1425.32 177.157 1425.04 175.59 1425.04 173.689C1425.04 171.768 1425.32 170.201 1425.89 168.987C1426.47 167.754 1427.33 166.844 1428.47 166.257C1429.62 165.651 1431.02 165.347 1432.68 165.347C1434.38 165.347 1435.8 165.651 1436.93 166.257C1438.06 166.844 1438.91 167.754 1439.48 168.987C1440.06 170.201 1440.36 171.768 1440.36 173.689C1440.36 175.59 1440.06 177.157 1439.48 178.391C1438.91 179.624 1438.06 180.544 1436.93 181.151C1435.8 181.737 1434.38 182.031 1432.68 182.031ZM1432.68 179.422C1433.69 179.422 1434.52 179.23 1435.17 178.846C1435.82 178.441 1436.29 177.835 1436.59 177.026C1436.92 176.217 1437.08 175.196 1437.08 173.962V173.416C1437.08 172.182 1436.92 171.161 1436.59 170.352C1436.29 169.543 1435.82 168.947 1435.17 168.563C1434.52 168.158 1433.69 167.956 1432.68 167.956C1431.69 167.956 1430.87 168.158 1430.22 168.563C1429.58 168.947 1429.09 169.543 1428.77 170.352C1428.47 171.161 1428.31 172.182 1428.31 173.416V173.962C1428.31 175.196 1428.47 176.217 1428.77 177.026C1429.09 177.835 1429.58 178.441 1430.22 178.846C1430.87 179.23 1431.69 179.422 1432.68 179.422ZM1446.24 187.187C1445.51 187.187 1444.83 187.036 1444.18 186.732C1443.55 186.429 1443.05 185.994 1442.66 185.428C1442.28 184.862 1442.09 184.174 1442.09 183.365C1442.09 182.476 1442.33 181.758 1442.81 181.212C1443.32 180.645 1443.91 180.221 1444.57 179.938C1444.09 179.715 1443.69 179.392 1443.39 178.967C1443.11 178.542 1442.97 178.057 1442.97 177.511C1442.97 176.763 1443.24 176.156 1443.78 175.691C1444.33 175.226 1444.97 174.923 1445.7 174.781C1444.99 174.316 1444.43 173.729 1444.03 173.022C1443.64 172.314 1443.45 171.515 1443.45 170.625C1443.45 169.554 1443.7 168.633 1444.21 167.865C1444.71 167.076 1445.46 166.46 1446.45 166.015C1447.46 165.57 1448.69 165.347 1450.12 165.347C1450.75 165.347 1451.34 165.398 1451.88 165.499C1452.45 165.58 1452.95 165.701 1453.4 165.863C1454.11 165.499 1454.61 165.064 1454.92 164.559C1455.22 164.033 1455.4 163.548 1455.46 163.103H1458.56C1458.56 163.77 1458.41 164.377 1458.13 164.923C1457.87 165.448 1457.49 165.893 1457.01 166.257C1456.54 166.601 1455.98 166.844 1455.31 166.985C1455.82 167.45 1456.19 167.996 1456.43 168.623C1456.7 169.23 1456.83 169.897 1456.83 170.625C1456.83 171.677 1456.58 172.597 1456.1 173.386C1455.61 174.174 1454.88 174.791 1453.89 175.236C1452.91 175.681 1451.71 175.903 1450.28 175.903H1447.79C1447.3 175.903 1446.91 176.004 1446.61 176.207C1446.32 176.409 1446.18 176.712 1446.18 177.117C1446.18 177.46 1446.32 177.744 1446.61 177.966C1446.89 178.188 1447.26 178.3 1447.73 178.3H1454.46C1455.63 178.3 1456.6 178.694 1457.37 179.483C1458.14 180.251 1458.53 181.242 1458.53 182.455C1458.53 183.345 1458.29 184.144 1457.83 184.852C1457.38 185.58 1456.75 186.146 1455.92 186.55C1455.11 186.975 1454.17 187.187 1453.1 187.187H1446.24ZM1447.27 184.852H1453.07C1453.49 184.852 1453.87 184.771 1454.22 184.609C1454.56 184.447 1454.84 184.215 1455.04 183.911C1455.24 183.628 1455.34 183.305 1455.34 182.941C1455.34 182.334 1455.15 181.859 1454.76 181.515C1454.4 181.171 1453.95 180.999 1453.4 180.999H1447.27C1446.71 180.999 1446.23 181.191 1445.85 181.576C1445.46 181.94 1445.27 182.395 1445.27 182.941C1445.27 183.507 1445.45 183.962 1445.82 184.306C1446.2 184.67 1446.69 184.852 1447.27 184.852ZM1450.15 173.628C1451.35 173.628 1452.24 173.365 1452.82 172.84C1453.41 172.294 1453.7 171.556 1453.7 170.625C1453.7 169.675 1453.41 168.947 1452.82 168.441C1452.24 167.916 1451.35 167.653 1450.15 167.653C1448.96 167.653 1448.07 167.916 1447.48 168.441C1446.9 168.947 1446.61 169.675 1446.61 170.625C1446.61 171.232 1446.73 171.768 1446.97 172.233C1447.23 172.678 1447.63 173.022 1448.15 173.264C1448.7 173.507 1449.37 173.628 1450.15 173.628ZM1460.96 181.667V165.711H1463.57L1463.84 168.29H1464.02C1464.21 167.784 1464.44 167.309 1464.72 166.864C1465.02 166.419 1465.41 166.055 1465.87 165.772C1466.36 165.489 1466.95 165.347 1467.63 165.347C1467.96 165.347 1468.24 165.378 1468.48 165.438C1468.75 165.499 1468.95 165.55 1469.09 165.59V168.563H1468.03C1467.38 168.563 1466.8 168.664 1466.3 168.866C1465.81 169.068 1465.4 169.372 1465.06 169.776C1464.73 170.16 1464.49 170.635 1464.33 171.202C1464.19 171.768 1464.11 172.405 1464.11 173.113V181.667H1460.96ZM1475.18 182.031C1474.68 182.031 1474.13 181.97 1473.55 181.849C1472.96 181.727 1472.4 181.505 1471.88 181.181C1471.37 180.858 1470.96 180.413 1470.63 179.847C1470.31 179.26 1470.15 178.502 1470.15 177.572C1470.15 176.48 1470.4 175.58 1470.91 174.872C1471.41 174.164 1472.12 173.608 1473.03 173.204C1473.94 172.799 1475.02 172.516 1476.28 172.354C1477.55 172.193 1478.94 172.112 1480.43 172.112V170.534C1480.43 170.009 1480.34 169.543 1480.16 169.139C1480 168.735 1479.68 168.421 1479.22 168.199C1478.77 167.976 1478.13 167.865 1477.28 167.865C1476.43 167.865 1475.76 167.976 1475.28 168.199C1474.81 168.401 1474.48 168.664 1474.27 168.987C1474.09 169.291 1474 169.624 1474 169.988V170.443H1470.97C1470.95 170.342 1470.94 170.241 1470.94 170.14C1470.94 170.039 1470.94 169.918 1470.94 169.776C1470.94 168.826 1471.2 168.027 1471.73 167.38C1472.27 166.712 1473.03 166.207 1474 165.863C1474.97 165.519 1476.09 165.347 1477.37 165.347C1478.74 165.347 1479.89 165.55 1480.8 165.954C1481.73 166.338 1482.42 166.894 1482.89 167.622C1483.35 168.35 1483.59 169.23 1483.59 170.261V178.36C1483.59 178.745 1483.68 179.018 1483.86 179.179C1484.06 179.341 1484.29 179.422 1484.56 179.422H1485.65V181.545C1485.41 181.646 1485.1 181.748 1484.74 181.849C1484.38 181.95 1483.95 182 1483.47 182C1482.92 182 1482.45 181.899 1482.07 181.697C1481.71 181.515 1481.4 181.252 1481.16 180.908C1480.94 180.544 1480.79 180.14 1480.71 179.695H1480.52C1480.16 180.16 1479.71 180.575 1479.19 180.939C1478.68 181.282 1478.1 181.545 1477.43 181.727C1476.76 181.93 1476.01 182.031 1475.18 182.031ZM1476.06 179.422C1476.69 179.422 1477.27 179.331 1477.79 179.149C1478.34 178.947 1478.8 178.674 1479.19 178.33C1479.57 177.966 1479.88 177.541 1480.1 177.056C1480.32 176.55 1480.43 176.004 1480.43 175.418V174.356C1479.04 174.356 1477.81 174.437 1476.76 174.599C1475.71 174.761 1474.89 175.064 1474.3 175.509C1473.72 175.934 1473.43 176.53 1473.43 177.299C1473.43 177.764 1473.53 178.158 1473.73 178.482C1473.93 178.785 1474.23 179.018 1474.64 179.179C1475.04 179.341 1475.52 179.422 1476.06 179.422ZM1487.83 181.667V165.711H1490.44L1490.71 167.986H1490.92C1491.29 167.4 1491.7 166.915 1492.17 166.53C1492.65 166.146 1493.19 165.853 1493.77 165.651C1494.38 165.448 1495.03 165.347 1495.71 165.347C1496.71 165.347 1497.56 165.55 1498.29 165.954C1499.04 166.358 1499.61 167.036 1499.99 167.986H1500.2C1500.57 167.42 1500.99 166.945 1501.48 166.561C1501.96 166.156 1502.51 165.853 1503.12 165.651C1503.74 165.448 1504.41 165.347 1505.12 165.347C1506.07 165.347 1506.91 165.519 1507.64 165.863C1508.36 166.187 1508.94 166.743 1509.36 167.531C1509.79 168.3 1510 169.331 1510 170.625V181.667H1506.85V171.202C1506.85 170.595 1506.78 170.1 1506.63 169.715C1506.49 169.311 1506.3 168.997 1506.06 168.775C1505.82 168.532 1505.52 168.36 1505.18 168.259C1504.83 168.158 1504.46 168.108 1504.06 168.108C1503.39 168.108 1502.79 168.29 1502.27 168.654C1501.74 168.997 1501.32 169.483 1500.99 170.11C1500.67 170.737 1500.51 171.475 1500.51 172.324V181.667H1497.35V171.202C1497.35 170.595 1497.28 170.1 1497.14 169.715C1497 169.311 1496.81 168.997 1496.56 168.775C1496.32 168.532 1496.03 168.36 1495.68 168.259C1495.34 168.158 1494.98 168.108 1494.59 168.108C1493.92 168.108 1493.32 168.29 1492.77 168.654C1492.23 168.997 1491.79 169.483 1491.47 170.11C1491.14 170.737 1490.98 171.475 1490.98 172.324V181.667H1487.83Z" fill="#153C3B"/>
<path d="M1236.07 286.131V274.107H1240.18V286.131H1236.07ZM1236.07 330.483V318.027H1240.18V330.483H1236.07ZM1237.94 321.771C1235.3 321.771 1232.93 321.483 1230.82 320.907C1228.7 320.331 1226.9 319.539 1225.42 318.531C1223.93 317.475 1222.78 316.227 1221.96 314.787C1221.19 313.347 1220.81 311.715 1220.81 309.891C1220.81 309.699 1220.81 309.507 1220.81 309.315C1220.81 309.123 1220.83 308.979 1220.88 308.883H1230.53C1230.53 308.979 1230.53 309.075 1230.53 309.171C1230.53 309.267 1230.53 309.363 1230.53 309.459C1230.58 310.659 1230.96 311.643 1231.68 312.411C1232.4 313.131 1233.34 313.659 1234.49 313.995C1235.69 314.331 1236.94 314.499 1238.23 314.499C1239.38 314.499 1240.49 314.403 1241.54 314.211C1242.65 313.971 1243.56 313.563 1244.28 312.987C1245.05 312.411 1245.43 311.667 1245.43 310.755C1245.43 309.603 1244.95 308.715 1243.99 308.091C1243.08 307.467 1241.86 306.963 1240.32 306.579C1238.83 306.195 1237.2 305.763 1235.42 305.283C1233.79 304.899 1232.16 304.467 1230.53 303.987C1228.9 303.459 1227.41 302.787 1226.06 301.971C1224.77 301.155 1223.71 300.099 1222.9 298.803C1222.08 297.459 1221.67 295.779 1221.67 293.763C1221.67 291.795 1222.1 290.091 1222.97 288.651C1223.83 287.163 1225.01 285.939 1226.5 284.979C1228.03 284.019 1229.81 283.323 1231.82 282.891C1233.89 282.411 1236.1 282.171 1238.45 282.171C1240.66 282.171 1242.72 282.411 1244.64 282.891C1246.56 283.323 1248.24 283.995 1249.68 284.907C1251.12 285.771 1252.25 286.875 1253.06 288.219C1253.88 289.515 1254.29 290.979 1254.29 292.611C1254.29 292.947 1254.29 293.259 1254.29 293.547C1254.29 293.835 1254.26 294.027 1254.22 294.123H1244.64V293.547C1244.64 292.683 1244.38 291.963 1243.85 291.387C1243.32 290.763 1242.55 290.283 1241.54 289.947C1240.58 289.611 1239.41 289.443 1238.02 289.443C1237.06 289.443 1236.17 289.515 1235.35 289.659C1234.58 289.803 1233.91 290.019 1233.34 290.307C1232.76 290.595 1232.3 290.955 1231.97 291.387C1231.68 291.771 1231.54 292.251 1231.54 292.827C1231.54 293.643 1231.87 294.315 1232.54 294.843C1233.26 295.323 1234.2 295.731 1235.35 296.067C1236.5 296.403 1237.78 296.763 1239.17 297.147C1240.9 297.627 1242.7 298.107 1244.57 298.587C1246.49 299.019 1248.26 299.619 1249.9 300.387C1251.53 301.155 1252.85 302.259 1253.86 303.699C1254.86 305.091 1255.37 306.987 1255.37 309.387C1255.37 311.691 1254.91 313.635 1254 315.219C1253.14 316.803 1251.91 318.075 1250.33 319.035C1248.74 319.995 1246.9 320.691 1244.78 321.123C1242.67 321.555 1240.39 321.771 1237.94 321.771ZM1282.34 326.667V315.867H1260.1V307.875C1261.97 304.899 1263.72 301.755 1265.35 298.443C1266.98 295.131 1268.5 291.627 1269.89 287.931C1271.33 284.235 1272.53 280.395 1273.49 276.411H1283.78C1283.26 278.715 1282.51 281.139 1281.55 283.683C1280.64 286.227 1279.58 288.747 1278.38 291.243C1277.18 293.739 1275.96 296.091 1274.71 298.299C1273.51 300.459 1272.36 302.379 1271.26 304.059C1270.15 305.739 1269.22 307.011 1268.45 307.875H1282.34V295.923C1282.82 295.011 1283.3 294.027 1283.78 292.971C1284.31 291.867 1284.82 290.763 1285.3 289.659C1285.78 288.507 1286.21 287.379 1286.59 286.275C1287.02 285.171 1287.36 284.139 1287.6 283.179H1292.21V307.875H1298.54V315.867H1292.21V326.667H1282.34ZM1321.78 327.531C1318.13 327.531 1315.08 326.859 1312.63 325.515C1310.23 324.171 1308.43 322.323 1307.23 319.971C1306.03 317.619 1305.43 314.907 1305.43 311.835H1315.22C1315.22 313.515 1315.46 314.955 1315.94 316.155C1316.42 317.355 1317.17 318.267 1318.18 318.891C1319.18 319.467 1320.46 319.755 1321.99 319.755C1324.25 319.755 1325.95 319.179 1327.1 318.027C1328.26 316.827 1329.02 315.099 1329.41 312.843C1329.84 310.539 1330.08 307.803 1330.13 304.635C1329.7 305.115 1328.98 305.691 1327.97 306.363C1327.01 307.035 1325.78 307.635 1324.3 308.163C1322.86 308.643 1321.25 308.883 1319.47 308.883C1316.06 308.883 1313.21 308.211 1310.9 306.867C1308.6 305.523 1306.85 303.627 1305.65 301.179C1304.5 298.731 1303.92 295.971 1303.92 292.899C1303.92 289.443 1304.66 286.491 1306.15 284.043C1307.64 281.595 1309.7 279.723 1312.34 278.427C1314.98 277.083 1318.01 276.411 1321.42 276.411C1324.44 276.411 1327.13 276.843 1329.48 277.707C1331.83 278.523 1333.8 279.867 1335.38 281.739C1337.02 283.611 1338.24 286.107 1339.06 289.227C1339.92 292.299 1340.35 296.067 1340.35 300.531C1340.35 305.571 1339.94 309.819 1339.13 313.275C1338.31 316.731 1337.11 319.515 1335.53 321.627C1333.99 323.691 1332.05 325.203 1329.7 326.163C1327.39 327.075 1324.75 327.531 1321.78 327.531ZM1321.78 301.539C1323.55 301.539 1325.02 301.179 1326.17 300.459C1327.37 299.691 1328.23 298.659 1328.76 297.363C1329.34 296.019 1329.62 294.507 1329.62 292.827C1329.62 291.099 1329.34 289.587 1328.76 288.291C1328.23 286.995 1327.37 285.987 1326.17 285.267C1325.02 284.499 1323.55 284.115 1321.78 284.115C1320.05 284.115 1318.61 284.499 1317.46 285.267C1316.3 286.035 1315.44 287.067 1314.86 288.363C1314.29 289.659 1314 291.147 1314 292.827C1314 294.555 1314.29 296.067 1314.86 297.363C1315.44 298.659 1316.3 299.691 1317.46 300.459C1318.61 301.179 1320.05 301.539 1321.78 301.539ZM1364.6 327.531C1360.95 327.531 1357.9 326.859 1355.45 325.515C1353.05 324.171 1351.25 322.323 1350.05 319.971C1348.85 317.619 1348.25 314.907 1348.25 311.835H1358.04C1358.04 313.515 1358.28 314.955 1358.76 316.155C1359.24 317.355 1359.99 318.267 1361 318.891C1362 319.467 1363.28 319.755 1364.81 319.755C1367.07 319.755 1368.77 319.179 1369.92 318.027C1371.08 316.827 1371.84 315.099 1372.23 312.843C1372.66 310.539 1372.9 307.803 1372.95 304.635C1372.52 305.115 1371.8 305.691 1370.79 306.363C1369.83 307.035 1368.6 307.635 1367.12 308.163C1365.68 308.643 1364.07 308.883 1362.29 308.883C1358.88 308.883 1356.03 308.211 1353.72 306.867C1351.42 305.523 1349.67 303.627 1348.47 301.179C1347.32 298.731 1346.74 295.971 1346.74 292.899C1346.74 289.443 1347.48 286.491 1348.97 284.043C1350.46 281.595 1352.52 279.723 1355.16 278.427C1357.8 277.083 1360.83 276.411 1364.24 276.411C1367.26 276.411 1369.95 276.843 1372.3 277.707C1374.65 278.523 1376.62 279.867 1378.2 281.739C1379.84 283.611 1381.06 286.107 1381.88 289.227C1382.74 292.299 1383.17 296.067 1383.17 300.531C1383.17 305.571 1382.76 309.819 1381.95 313.275C1381.13 316.731 1379.93 319.515 1378.35 321.627C1376.81 323.691 1374.87 325.203 1372.52 326.163C1370.21 327.075 1367.57 327.531 1364.6 327.531ZM1364.6 301.539C1366.37 301.539 1367.84 301.179 1368.99 300.459C1370.19 299.691 1371.05 298.659 1371.58 297.363C1372.16 296.019 1372.44 294.507 1372.44 292.827C1372.44 291.099 1372.16 289.587 1371.58 288.291C1371.05 286.995 1370.19 285.987 1368.99 285.267C1367.84 284.499 1366.37 284.115 1364.6 284.115C1362.87 284.115 1361.43 284.499 1360.28 285.267C1359.12 286.035 1358.26 287.067 1357.68 288.363C1357.11 289.659 1356.82 291.147 1356.82 292.827C1356.82 294.555 1357.11 296.067 1357.68 297.363C1358.26 298.659 1359.12 299.691 1360.28 300.459C1361.43 301.179 1362.87 301.539 1364.6 301.539ZM1427.6 327.531C1423.09 327.531 1419.2 326.811 1415.93 325.371C1412.72 323.931 1410.25 321.771 1408.52 318.891C1406.79 315.963 1405.93 312.339 1405.93 308.019V277.275H1416.73V307.731C1416.73 311.283 1417.66 314.019 1419.53 315.939C1421.41 317.811 1424.09 318.747 1427.6 318.747C1431.1 318.747 1433.79 317.811 1435.66 315.939C1437.58 314.019 1438.54 311.283 1438.54 307.731V277.275H1449.34V308.019C1449.34 312.339 1448.48 315.963 1446.75 318.891C1445.02 321.771 1442.53 323.931 1439.26 325.371C1436.05 326.811 1432.16 327.531 1427.6 327.531ZM1479.3 327.531C1476.42 327.531 1473.68 327.243 1471.09 326.667C1468.5 326.091 1466.19 325.179 1464.18 323.931C1462.21 322.635 1460.65 321.027 1459.5 319.107C1458.39 317.139 1457.84 314.763 1457.84 311.979C1457.84 311.739 1457.84 311.499 1457.84 311.259C1457.84 310.971 1457.87 310.755 1457.91 310.611H1468.57C1468.52 310.755 1468.5 310.947 1468.5 311.187C1468.5 311.427 1468.5 311.643 1468.5 311.835C1468.5 313.371 1468.91 314.667 1469.72 315.723C1470.59 316.779 1471.83 317.571 1473.47 318.099C1475.1 318.627 1476.99 318.891 1479.15 318.891C1480.55 318.891 1481.77 318.819 1482.83 318.675C1483.93 318.483 1484.89 318.243 1485.71 317.955C1486.57 317.619 1487.27 317.235 1487.79 316.803C1488.37 316.371 1488.78 315.867 1489.02 315.291C1489.31 314.715 1489.45 314.067 1489.45 313.347C1489.45 312.051 1489.02 310.995 1488.15 310.179C1487.34 309.363 1486.19 308.667 1484.7 308.091C1483.26 307.515 1481.63 306.987 1479.8 306.507C1477.98 306.027 1476.11 305.547 1474.19 305.067C1472.27 304.539 1470.39 303.915 1468.57 303.195C1466.75 302.427 1465.11 301.515 1463.67 300.459C1462.23 299.403 1461.08 298.059 1460.22 296.427C1459.35 294.795 1458.92 292.827 1458.92 290.523C1458.92 288.075 1459.43 285.963 1460.43 284.187C1461.49 282.411 1462.95 280.947 1464.83 279.795C1466.7 278.643 1468.86 277.803 1471.31 277.275C1473.75 276.699 1476.42 276.411 1479.3 276.411C1481.99 276.411 1484.53 276.699 1486.93 277.275C1489.33 277.803 1491.44 278.667 1493.27 279.867C1495.09 281.067 1496.51 282.579 1497.51 284.403C1498.57 286.227 1499.1 288.387 1499.1 290.883V291.747H1488.66V291.171C1488.66 289.875 1488.27 288.771 1487.51 287.859C1486.74 286.947 1485.66 286.227 1484.27 285.699C1482.87 285.171 1481.24 284.907 1479.37 284.907C1477.35 284.907 1475.63 285.099 1474.19 285.483C1472.79 285.867 1471.71 286.443 1470.95 287.211C1470.23 287.931 1469.87 288.795 1469.87 289.803C1469.87 290.955 1470.27 291.915 1471.09 292.683C1471.95 293.403 1473.11 294.051 1474.55 294.627C1476.03 295.155 1477.69 295.635 1479.51 296.067C1481.34 296.499 1483.21 296.979 1485.13 297.507C1487.05 298.035 1488.92 298.659 1490.75 299.379C1492.57 300.099 1494.2 301.011 1495.64 302.115C1497.08 303.171 1498.23 304.491 1499.1 306.075C1499.96 307.659 1500.39 309.555 1500.39 311.763C1500.39 315.555 1499.48 318.603 1497.66 320.907C1495.83 323.211 1493.34 324.891 1490.17 325.947C1487 327.003 1483.38 327.531 1479.3 327.531ZM1508.94 326.667V277.275H1529.1C1534.24 277.275 1538.6 278.163 1542.2 279.939C1545.8 281.715 1548.56 284.427 1550.48 288.075C1552.45 291.675 1553.44 296.307 1553.44 301.971C1553.44 307.587 1552.45 312.219 1550.48 315.867C1548.56 319.515 1545.8 322.227 1542.2 324.003C1538.6 325.779 1534.24 326.667 1529.1 326.667H1508.94ZM1519.67 317.811H1529.03C1531.19 317.811 1533.11 317.499 1534.79 316.875C1536.47 316.251 1537.86 315.339 1538.96 314.139C1540.07 312.891 1540.91 311.355 1541.48 309.531C1542.06 307.659 1542.35 305.499 1542.35 303.051V300.891C1542.35 298.443 1542.06 296.307 1541.48 294.483C1540.91 292.611 1540.07 291.075 1538.96 289.875C1537.86 288.627 1536.47 287.691 1534.79 287.067C1533.11 286.395 1531.19 286.059 1529.03 286.059H1519.67V317.811Z" fill="#153C3B"/>
<rect x="1222.5" y="417.333" width="329" height="58.3333" rx="29.1667" fill="#153C3B"/>
<path d="M1338.26 452.745C1337.42 452.745 1336.66 452.601 1335.98 452.312C1335.3 452.018 1334.74 451.602 1334.3 451.063C1333.87 450.518 1333.58 449.873 1333.45 449.127L1335.23 448.858C1335.41 449.576 1335.79 450.137 1336.36 450.54C1336.93 450.937 1337.6 451.136 1338.36 451.136C1338.83 451.136 1339.27 451.063 1339.67 450.916C1340.06 450.763 1340.38 450.548 1340.62 450.27C1340.87 449.987 1340.99 449.65 1340.99 449.258C1340.99 449.045 1340.95 448.858 1340.88 448.694C1340.8 448.531 1340.7 448.389 1340.57 448.27C1340.45 448.144 1340.29 448.038 1340.11 447.951C1339.93 447.859 1339.73 447.78 1339.51 447.714L1336.5 446.824C1336.2 446.737 1335.9 446.625 1335.6 446.489C1335.3 446.348 1335.01 446.165 1334.76 445.942C1334.51 445.713 1334.3 445.433 1334.15 445.101C1333.99 444.763 1333.91 444.355 1333.91 443.876C1333.91 443.152 1334.09 442.539 1334.46 442.038C1334.84 441.532 1335.35 441.151 1335.98 440.895C1336.62 440.634 1337.33 440.503 1338.12 440.503C1338.92 440.514 1339.63 440.656 1340.25 440.928C1340.89 441.2 1341.41 441.592 1341.82 442.104C1342.24 442.61 1342.53 443.225 1342.69 443.949L1340.86 444.26C1340.78 443.819 1340.6 443.44 1340.34 443.125C1340.07 442.803 1339.74 442.558 1339.36 442.39C1338.97 442.215 1338.55 442.126 1338.1 442.12C1337.66 442.109 1337.26 442.175 1336.9 442.316C1336.54 442.458 1336.25 442.656 1336.03 442.912C1335.82 443.168 1335.71 443.462 1335.71 443.794C1335.71 444.121 1335.81 444.385 1336 444.586C1336.19 444.788 1336.42 444.949 1336.7 445.068C1336.99 445.183 1337.27 445.278 1337.54 445.354L1339.72 445.967C1339.99 446.043 1340.3 446.146 1340.64 446.277C1340.99 446.402 1341.32 446.579 1341.64 446.808C1341.97 447.036 1342.24 447.341 1342.45 447.722C1342.66 448.098 1342.77 448.572 1342.77 449.143C1342.77 449.737 1342.65 450.26 1342.41 450.711C1342.17 451.158 1341.84 451.534 1341.42 451.838C1341.01 452.138 1340.53 452.364 1339.99 452.516C1339.44 452.669 1338.87 452.745 1338.26 452.745ZM1344.67 442.234V440.577H1346.38V442.234H1344.67ZM1344.67 452.5V443.68H1346.38V452.5H1344.67ZM1352.47 456.665C1351.99 456.665 1351.53 456.592 1351.09 456.445C1350.65 456.298 1350.24 456.08 1349.88 455.791C1349.51 455.508 1349.21 455.157 1348.97 454.738L1350.55 453.937C1350.74 454.313 1351.01 454.588 1351.36 454.762C1351.72 454.936 1352.09 455.024 1352.48 455.024C1352.97 455.024 1353.38 454.936 1353.73 454.762C1354.07 454.593 1354.33 454.338 1354.5 453.995C1354.68 453.652 1354.77 453.227 1354.76 452.721V450.254H1354.97V443.68H1356.48V452.737C1356.48 452.971 1356.47 453.194 1356.45 453.407C1356.44 453.619 1356.41 453.831 1356.36 454.044C1356.24 454.637 1356 455.127 1355.64 455.514C1355.3 455.9 1354.85 456.189 1354.3 456.379C1353.77 456.57 1353.15 456.665 1352.47 456.665ZM1352.34 452.745C1351.51 452.745 1350.8 452.541 1350.21 452.132C1349.61 451.724 1349.15 451.169 1348.83 450.466C1348.5 449.759 1348.34 448.964 1348.34 448.082C1348.34 447.194 1348.51 446.402 1348.83 445.705C1349.16 445.003 1349.62 444.45 1350.22 444.047C1350.83 443.639 1351.54 443.435 1352.37 443.435C1353.2 443.435 1353.9 443.639 1354.47 444.047C1355.04 444.45 1355.47 445.003 1355.76 445.705C1356.05 446.408 1356.2 447.2 1356.2 448.082C1356.2 448.964 1356.05 449.756 1355.76 450.458C1355.46 451.161 1355.03 451.719 1354.46 452.132C1353.89 452.541 1353.18 452.745 1352.34 452.745ZM1352.57 451.201C1353.13 451.201 1353.59 451.068 1353.95 450.801C1354.3 450.535 1354.56 450.167 1354.72 449.699C1354.88 449.231 1354.97 448.692 1354.97 448.082C1354.97 447.472 1354.88 446.933 1354.71 446.465C1354.55 445.997 1354.29 445.632 1353.95 445.37C1353.6 445.109 1353.16 444.978 1352.63 444.978C1352.06 444.978 1351.6 445.117 1351.23 445.395C1350.87 445.673 1350.6 446.046 1350.42 446.514C1350.24 446.982 1350.16 447.505 1350.16 448.082C1350.16 448.664 1350.24 449.192 1350.42 449.666C1350.6 450.134 1350.86 450.507 1351.22 450.785C1351.58 451.063 1352.03 451.201 1352.57 451.201ZM1364.96 452.5V448.163C1364.96 447.82 1364.93 447.469 1364.87 447.11C1364.82 446.745 1364.71 446.408 1364.54 446.097C1364.39 445.787 1364.16 445.537 1363.87 445.346C1363.58 445.155 1363.2 445.06 1362.73 445.06C1362.43 445.06 1362.14 445.112 1361.87 445.215C1361.59 445.313 1361.35 445.474 1361.15 445.697C1360.95 445.92 1360.78 446.214 1360.67 446.579C1360.55 446.944 1360.49 447.388 1360.49 447.91L1359.43 447.51C1359.43 446.71 1359.58 446.005 1359.88 445.395C1360.18 444.78 1360.61 444.301 1361.17 443.958C1361.73 443.615 1362.41 443.443 1363.2 443.443C1363.81 443.443 1364.33 443.541 1364.74 443.737C1365.15 443.933 1365.49 444.192 1365.74 444.513C1366.01 444.829 1366.2 445.174 1366.34 445.55C1366.48 445.926 1366.57 446.293 1366.62 446.653C1366.67 447.012 1366.69 447.328 1366.69 447.6V452.5H1364.96ZM1358.76 452.5V443.68H1360.29V446.228H1360.49V452.5H1358.76ZM1376.78 452.745C1375.86 452.745 1375.04 452.557 1374.33 452.181C1373.63 451.8 1373.08 451.27 1372.69 450.589C1372.29 449.903 1372.09 449.097 1372.09 448.172V440.748L1373.82 440.74V448.082C1373.82 448.583 1373.9 449.024 1374.07 449.405C1374.24 449.786 1374.47 450.104 1374.75 450.36C1375.03 450.616 1375.35 450.809 1375.7 450.94C1376.05 451.071 1376.41 451.136 1376.78 451.136C1377.15 451.136 1377.51 451.071 1377.85 450.94C1378.21 450.804 1378.53 450.608 1378.81 450.352C1379.09 450.096 1379.32 449.778 1379.48 449.397C1379.65 449.016 1379.73 448.577 1379.73 448.082V440.74H1381.46V448.172C1381.46 449.092 1381.27 449.895 1380.87 450.581C1380.47 451.267 1379.92 451.8 1379.21 452.181C1378.51 452.557 1377.7 452.745 1376.78 452.745ZM1387.89 452.745C1387.05 452.745 1386.34 452.541 1385.77 452.132C1385.19 451.719 1384.76 451.161 1384.47 450.458C1384.17 449.756 1384.03 448.964 1384.03 448.082C1384.03 447.2 1384.17 446.408 1384.46 445.705C1384.75 445.003 1385.18 444.45 1385.75 444.047C1386.32 443.639 1387.02 443.435 1387.86 443.435C1388.68 443.435 1389.4 443.639 1390 444.047C1390.6 444.45 1391.07 445.003 1391.39 445.705C1391.72 446.402 1391.88 447.194 1391.88 448.082C1391.88 448.964 1391.72 449.759 1391.39 450.466C1391.07 451.169 1390.61 451.724 1390.01 452.132C1389.42 452.541 1388.71 452.745 1387.89 452.745ZM1383.74 456.42V443.68H1385.26V450.025H1385.46V456.42H1383.74ZM1387.65 451.201C1388.2 451.201 1388.65 451.063 1389 450.785C1389.36 450.507 1389.63 450.134 1389.8 449.666C1389.98 449.192 1390.07 448.664 1390.07 448.082C1390.07 447.505 1389.98 446.982 1389.8 446.514C1389.63 446.046 1389.36 445.673 1388.99 445.395C1388.63 445.117 1388.16 444.978 1387.6 444.978C1387.06 444.978 1386.62 445.109 1386.27 445.37C1385.93 445.632 1385.67 445.997 1385.5 446.465C1385.34 446.933 1385.26 447.472 1385.26 448.082C1385.26 448.692 1385.34 449.231 1385.5 449.699C1385.67 450.167 1385.93 450.535 1386.28 450.801C1386.63 451.068 1387.09 451.201 1387.65 451.201ZM1396.96 452.5V440.74H1398.69L1404.48 449.478V440.74H1406.21V452.5H1404.48L1398.69 443.753V452.5H1396.96ZM1412.32 452.745C1411.44 452.745 1410.67 452.546 1410.02 452.149C1409.38 451.751 1408.87 451.204 1408.52 450.507C1408.17 449.805 1408 448.996 1408 448.082C1408 447.162 1408.18 446.353 1408.54 445.656C1408.9 444.954 1409.4 444.41 1410.05 444.023C1410.7 443.631 1411.45 443.435 1412.32 443.435C1413.2 443.435 1413.97 443.634 1414.61 444.031C1415.26 444.429 1415.76 444.976 1416.12 445.673C1416.47 446.37 1416.65 447.173 1416.65 448.082C1416.65 449.002 1416.47 449.813 1416.11 450.515C1415.75 451.212 1415.25 451.76 1414.61 452.157C1413.96 452.549 1413.19 452.745 1412.32 452.745ZM1412.32 451.136C1413.16 451.136 1413.79 450.853 1414.2 450.287C1414.62 449.715 1414.83 448.98 1414.83 448.082C1414.83 447.162 1414.62 446.427 1414.2 445.877C1413.78 445.321 1413.15 445.044 1412.32 445.044C1411.75 445.044 1411.28 445.174 1410.91 445.436C1410.54 445.692 1410.26 446.048 1410.08 446.506C1409.9 446.958 1409.81 447.483 1409.81 448.082C1409.81 449.007 1410.02 449.748 1410.45 450.303C1410.87 450.858 1411.5 451.136 1412.32 451.136ZM1420 452.5L1417.31 443.672L1419 443.68L1420.84 449.731L1422.7 443.68H1424.17L1426.04 449.731L1427.88 443.68H1429.56L1426.87 452.5H1425.5L1423.44 446.114L1421.37 452.5H1420ZM1431.84 452.5V450.842H1433.55V452.5H1431.84ZM1431.84 449.56V440.74H1433.55V449.56H1431.84ZM1437.47 452.5V450.842H1439.18V452.5H1437.47ZM1437.47 449.56V440.74H1439.18V449.56H1437.47Z" fill="white"/>
</g>
<defs>
<filter id="filter0_d_0_1" x="1139.4" y="23.1806" width="507.408" height="582.074" filterUnits="userSpaceOnUse" color-interpolation-filters="sRGB">
<feFlood flood-opacity="0" result="BackgroundImageFix"/>
<feColorMatrix in="SourceAlpha" type="matrix" values="0 0 0 0 0 0 0 0 0 0 0 0 0 0 0 0 0 0 127 0" result="hardAlpha"/>
<feMorphology radius="1.52558" operator="dilate" in="SourceAlpha" result="effect1_dropShadow_0_1"/>
<feOffset dx="6.10233" dy="3.05116"/>
<feGaussianBlur stdDeviation="15.2558"/>
<feComposite in2="hardAlpha" operator="out"/>
<feColorMatrix type="matrix" values="0 0 0 0 0.580392 0 0 0 0 0.580392 0 0 0 0 0.580392 0 0 0 0.06 0"/>
<feBlend mode="normal" in2="BackgroundImageFix" result="effect1_dropShadow_0_1"/>
<feBlend mode="normal" in="SourceGraphic" in2="effect1_dropShadow_0_1" result="shape"/>
</filter>
</defs>
</svg>
