<svg width="75" height="75" viewBox="0 0 75 75" fill="none" xmlns="http://www.w3.org/2000/svg">
<rect x="0.916585" y="0.583333" width="73.5" height="73.5" rx="36.75" fill="url(#paint0_linear_1_3011)"/>
<rect x="0.916585" y="0.583333" width="73.5" height="73.5" rx="36.75" stroke="#1F8E8B" stroke-width="1.16667"/>
<g clip-path="url(#clip0_1_3011)">
<path d="M48.5558 24.8887H46.8447C46.4836 23.1331 45.5284 21.5557 44.14 20.4223C42.7515 19.2889 41.0148 18.6688 39.2225 18.6665L36.1114 18.6665C34.319 18.6688 32.5823 19.2889 31.1939 20.4223C29.8054 21.5557 28.8502 23.1331 28.4891 24.8887H26.778C24.716 24.8912 22.7391 25.7114 21.281 27.1695C19.8229 28.6276 19.0027 30.6045 19.0002 32.6665V48.2221C19.0027 50.2841 19.8229 52.261 21.281 53.7191C22.7391 55.1771 24.716 55.9974 26.778 55.9998H48.5558C50.6178 55.9974 52.5947 55.1771 54.0528 53.7191C55.5109 52.261 56.3311 50.2841 56.3336 48.2221V32.6665C56.3311 30.6045 55.5109 28.6276 54.0528 27.1695C52.5947 25.7114 50.6178 24.8912 48.5558 24.8887ZM36.1114 21.7776H39.2225C40.1842 21.7816 41.1212 22.0826 41.9053 22.6395C42.6894 23.1964 43.2823 23.982 43.6029 24.8887H31.7309C32.0515 23.982 32.6444 23.1964 33.4285 22.6395C34.2126 22.0826 35.1496 21.7816 36.1114 21.7776ZM26.778 27.9998H48.5558C49.7935 27.9998 50.9805 28.4915 51.8556 29.3667C52.7308 30.2418 53.2225 31.4288 53.2225 32.6665V37.3332H22.1114V32.6665C22.1114 31.4288 22.603 30.2418 23.4782 29.3667C24.3534 28.4915 25.5403 27.9998 26.778 27.9998ZM48.5558 52.8887H26.778C25.5403 52.8887 24.3534 52.3971 23.4782 51.5219C22.603 50.6467 22.1114 49.4597 22.1114 48.2221V40.4443H36.1114V41.9998C36.1114 42.4124 36.2752 42.8081 36.567 43.0998C36.8587 43.3915 37.2544 43.5554 37.6669 43.5554C38.0795 43.5554 38.4751 43.3915 38.7669 43.0998C39.0586 42.8081 39.2225 42.4124 39.2225 41.9998V40.4443H53.2225V48.2221C53.2225 49.4597 52.7308 50.6467 51.8556 51.5219C50.9805 52.3971 49.7935 52.8887 48.5558 52.8887Z" fill="white"/>
</g>
<defs>
<linearGradient id="paint0_linear_1_3011" x1="37.6666" y1="0" x2="37.6666" y2="74.6667" gradientUnits="userSpaceOnUse">
<stop stop-color="#153C3B"/>
<stop offset="1" stop-color="#64BBB9"/>
</linearGradient>
<clipPath id="clip0_1_3011">
<rect width="37.3333" height="37.3333" fill="white" transform="translate(19.0002 18.6665)"/>
</clipPath>
</defs>
</svg>
