<svg width="75" height="75" viewBox="0 0 75 75" fill="none" xmlns="http://www.w3.org/2000/svg">
<rect x="0.583333" y="0.583333" width="73.5" height="73.5" rx="36.75" fill="url(#paint0_linear_1_3014)"/>
<rect x="0.583333" y="0.583333" width="73.5" height="73.5" rx="36.75" stroke="#1F8E8B" stroke-width="1.16667"/>
<g clip-path="url(#clip0_1_3014)">
<path d="M45.1114 18.6665H29.5559C27.4938 18.669 25.5169 19.4892 24.0589 20.9473C22.6008 22.4054 21.7805 24.3822 21.7781 26.4443V49.7776C21.7781 51.4278 22.4336 53.0105 23.6005 54.1774C24.7674 55.3443 26.3501 55.9998 28.0003 55.9998H45.1114C47.1734 55.9974 49.1503 55.1771 50.6084 53.7191C52.0665 52.261 52.8867 50.2841 52.8892 48.2221V26.4443C52.8867 24.3822 52.0665 22.4054 50.6084 20.9473C49.1503 19.4892 47.1734 18.669 45.1114 18.6665ZM49.7781 26.4443V43.5554H31.1114V21.7776H45.1114C46.3491 21.7776 47.5361 22.2693 48.4112 23.1444C49.2864 24.0196 49.7781 25.2066 49.7781 26.4443ZM28.0003 22.0452V43.5554C26.9077 43.5544 25.8343 43.8426 24.8892 44.3907V26.4443C24.8893 25.4794 25.1886 24.5382 25.7457 23.7504C26.3029 22.9626 27.0906 22.3668 28.0003 22.0452ZM45.1114 52.8887H28.0003C27.1752 52.8887 26.3839 52.5609 25.8004 51.9775C25.217 51.3941 24.8892 50.6027 24.8892 49.7776C24.8892 48.9525 25.217 48.1612 25.8004 47.5777C26.3839 46.9943 27.1752 46.6665 28.0003 46.6665H49.7781V48.2221C49.7781 49.4597 49.2864 50.6467 48.4112 51.5219C47.5361 52.3971 46.3491 52.8887 45.1114 52.8887Z" fill="white"/>
</g>
<defs>
<linearGradient id="paint0_linear_1_3014" x1="37.3333" y1="0" x2="37.3333" y2="74.6667" gradientUnits="userSpaceOnUse">
<stop stop-color="#153C3B"/>
<stop offset="1" stop-color="#64BBB9"/>
</linearGradient>
<clipPath id="clip0_1_3014">
<rect width="37.3333" height="37.3333" fill="white" transform="translate(18.667 18.6665)"/>
</clipPath>
</defs>
</svg>
