<svg width="75" height="75" viewBox="0 0 75 75" fill="none" xmlns="http://www.w3.org/2000/svg">
<rect x="0.583333" y="0.583211" width="73.5" height="73.5" rx="36.75" fill="url(#paint0_linear_1_741)"/>
<rect x="0.583333" y="0.583211" width="73.5" height="73.5" rx="36.75" stroke="#1F8E8B" stroke-width="1.16667"/>
<g clip-path="url(#clip0_1_741)">
<path d="M52.8118 27.3015L47.3907 21.8804C45.3342 19.8224 42.5996 18.6899 39.6907 18.6899H32.6674C29.1316 18.6899 26.036 21.0777 25.1431 24.4953C24.9254 25.3259 25.4231 26.1768 26.2538 26.3946C27.0907 26.6077 27.9369 26.1131 28.1516 25.2824C28.6882 23.2337 30.5456 21.8011 32.6674 21.8011H39.6907C39.9474 21.8011 40.1931 21.8508 40.4451 21.8742V29.5788C40.4451 32.1517 42.5389 34.2455 45.1118 34.2455H52.8134C52.8382 34.4975 52.8896 34.7464 52.8896 34.9999V48.2455C52.8896 50.8184 50.7958 52.9122 48.2229 52.9122H32.6674C31.594 52.9122 30.586 52.5575 29.7507 51.8902C29.0818 51.3566 28.1034 51.4608 27.5636 52.1297C27.0269 52.8017 27.1342 53.7802 27.8047 54.3168C29.1767 55.4166 30.9034 56.0233 32.6658 56.0233H48.2214C52.51 56.0233 55.9991 52.5342 55.9991 48.2455V34.9999C55.9991 32.0926 54.8667 29.3579 52.8102 27.3015H52.8118ZM45.1118 31.1344C44.2547 31.1344 43.5562 30.4375 43.5562 29.5788V22.8635C44.1411 23.2011 44.6996 23.5884 45.1896 24.0784L50.6107 29.4995C51.0945 29.9833 51.4802 30.5448 51.8178 31.1328H45.1102L45.1118 31.1344ZM34.2229 43.5555H46.6674C47.526 43.5555 48.2229 44.2508 48.2229 45.1111C48.2229 45.9713 47.526 46.6666 46.6674 46.6666H34.2229C33.3642 46.6666 32.6674 45.9713 32.6674 45.1111C32.6674 44.2508 33.3642 43.5555 34.2229 43.5555ZM29.5562 47.9842V40.5953C30.9671 39.4535 31.8896 37.7299 31.8896 35.7777C31.8896 32.3462 29.0989 29.5555 25.6674 29.5555C22.2358 29.5555 19.4451 32.3462 19.4451 35.7777C19.4451 37.7299 20.3676 39.4535 21.7785 40.5953V47.9842C21.7785 48.9533 23.0089 49.3686 23.5969 48.5986L25.6674 45.8873L27.7378 48.5986C28.3258 49.3686 29.5562 48.9533 29.5562 47.9842ZM25.6674 32.6666C27.3831 32.6666 28.7785 34.0619 28.7785 35.7777C28.7785 37.4935 27.3831 38.8888 25.6674 38.8888C23.9516 38.8888 22.5562 37.4935 22.5562 35.7777C22.5562 34.0619 23.9516 32.6666 25.6674 32.6666ZM35.7785 40.4444C34.9198 40.4444 34.2229 39.7491 34.2229 38.8888C34.2229 38.0286 34.9198 37.3333 35.7785 37.3333H46.6674C47.526 37.3333 48.2229 38.0286 48.2229 38.8888C48.2229 39.7491 47.526 40.4444 46.6674 40.4444H35.7785Z" fill="white"/>
</g>
<defs>
<linearGradient id="paint0_linear_1_741" x1="37.3333" y1="-0.00012207" x2="37.3333" y2="74.6665" gradientUnits="userSpaceOnUse">
<stop stop-color="#153C3B"/>
<stop offset="1" stop-color="#64BBB9"/>
</linearGradient>
<clipPath id="clip0_1_741">
<rect width="37.3333" height="37.3333" fill="white" transform="translate(18.667 18.6665)"/>
</clipPath>
</defs>
</svg>
