<svg width="48" height="48" viewBox="0 0 48 48" fill="none" xmlns="http://www.w3.org/2000/svg">
<circle cx="24.3377" cy="23.6711" r="23.145" stroke="#3B6C71" stroke-width="1.05205"/>
<path d="M29.4988 12.6294L26.7703 12.625C23.7049 12.625 21.7239 14.6574 21.7239 17.8032V20.1907H18.9805C18.7435 20.1907 18.5515 20.3829 18.5515 20.62V24.0792C18.5515 24.3162 18.7437 24.5082 18.9805 24.5082H21.7239V33.2369C21.7239 33.474 21.9159 33.6659 22.153 33.6659H25.7323C25.9694 33.6659 26.1614 33.4737 26.1614 33.2369V24.5082H29.369C29.6061 24.5082 29.7981 24.3162 29.7981 24.0792L29.7994 20.62C29.7994 20.5061 29.7541 20.3971 29.6737 20.3166C29.5934 20.236 29.4839 20.1907 29.3701 20.1907H26.1614V18.1668C26.1614 17.194 26.3932 16.7002 27.6603 16.7002L29.4984 16.6995C29.7352 16.6995 29.9272 16.5073 29.9272 16.2705V13.0584C29.9272 12.8218 29.7354 12.6298 29.4988 12.6294Z" fill="#16A7A7"/>
</svg>
