<svg width="49" height="48" viewBox="0 0 49 48" fill="none" xmlns="http://www.w3.org/2000/svg">
<circle cx="24.5833" cy="23.6711" r="23.145" stroke="#3B6C71" stroke-width="1.05205"/>
<path d="M24.5833 19.9189C22.5131 19.9189 20.8316 21.6005 20.8316 23.6707C20.8316 25.7409 22.5131 27.4265 24.5833 27.4265C26.6535 27.4265 28.3391 25.7409 28.3391 23.6707C28.3391 21.6005 26.6535 19.9189 24.5833 19.9189Z" fill="#16A7A7"/>
<path d="M30.2453 13.4424H18.9207C16.4045 13.4424 14.3548 15.4921 14.3548 18.0083V29.333C14.3548 31.8532 16.4045 33.8988 18.9207 33.8988H30.2453C32.7656 33.8988 34.8112 31.8532 34.8112 29.333V18.0083C34.8112 15.4921 32.7656 13.4424 30.2453 13.4424ZM24.583 30.2985C20.9295 30.2985 17.9551 27.3241 17.9551 23.6706C17.9551 20.0171 20.9295 17.0468 24.583 17.0468C28.2365 17.0468 31.2109 20.0171 31.2109 23.6706C31.2109 27.3241 28.2365 30.2985 24.583 30.2985ZM31.35 18.2497C30.5767 18.2497 29.9467 17.6237 29.9467 16.8504C29.9467 16.0772 30.5767 15.4471 31.35 15.4471C32.1233 15.4471 32.7533 16.0772 32.7533 16.8504C32.7533 17.6237 32.1233 18.2497 31.35 18.2497Z" fill="#16A7A7"/>
</svg>
