<svg width="48" height="48" viewBox="0 0 48 48" fill="none" xmlns="http://www.w3.org/2000/svg">
<circle cx="23.7061" cy="23.6711" r="23.145" stroke="#3B6C71" stroke-width="1.05205"/>
<path d="M15.1885 12.6426C13.7909 12.6426 12.6597 13.7758 12.6595 15.1702C12.6595 16.5659 13.7907 17.6989 15.1887 17.6989C16.5828 17.6989 17.7156 16.5659 17.7156 15.1702C17.7156 13.7756 16.5826 12.6426 15.1885 12.6426Z" fill="#16A7A7"/>
<path d="M13.0074 19.6172H17.3682V33.6476H13.0074V19.6172Z" fill="#16A7A7"/>
<path d="M28.47 19.2676C26.3487 19.2676 24.9263 20.4306 24.3441 21.5336H24.2858V19.6165H20.1033H20.1031V33.6467H24.4601V26.7058C24.4601 24.876 24.8085 23.1036 27.0772 23.1036C29.3133 23.1036 29.3432 25.1964 29.3432 26.8232V33.6465H33.7008V25.9509C33.7008 22.1734 32.8857 19.2676 28.47 19.2676Z" fill="#16A7A7"/>
</svg>
