<svg width="76" height="75" viewBox="0 0 76 75" fill="none" xmlns="http://www.w3.org/2000/svg">
<rect x="1.24984" y="0.583333" width="73.5" height="73.5" rx="36.75" fill="url(#paint0_linear_1_3008)"/>
<rect x="1.24984" y="0.583333" width="73.5" height="73.5" rx="36.75" stroke="#1F8E8B" stroke-width="1.16667"/>
<g clip-path="url(#clip0_1_3008)">
<path d="M41.8889 38.111C41.8889 40.2592 40.1483 41.9999 38 41.9999C35.8518 41.9999 34.1111 40.2592 34.1111 38.111C34.1111 35.9628 35.8518 34.2221 38 34.2221C40.1483 34.2221 41.8889 35.9628 41.8889 38.111ZM53.0594 36.4419L49.0087 42.2301C48.4269 43.0608 47.4749 43.557 46.4607 43.557H29.5409C28.5267 43.557 27.5731 43.0624 26.9929 42.2301L22.9423 36.4419C22.4507 35.7388 21.48 35.5677 20.7754 36.0592C20.0707 36.5508 19.9011 37.5215 20.3927 38.2261L24.4434 44.0144C25.6069 45.6757 27.5125 46.6681 29.5409 46.6681H31.7778V54.4459C31.7778 55.3061 32.4747 56.0015 33.3334 56.0015C34.192 56.0015 34.8889 55.3061 34.8889 54.4459V46.6681H41.1111V54.4459C41.1111 55.3061 41.808 56.0015 42.6667 56.0015C43.5254 56.0015 44.2223 55.3061 44.2223 54.4459V46.6681H46.4591C48.4876 46.6681 50.3931 45.6757 51.5567 44.0144L55.6074 38.2261C56.0989 37.523 55.9294 36.5524 55.2247 36.0592C54.5216 35.5692 53.554 35.7388 53.0594 36.4419ZM33.3334 26.4444H36.4445V27.9206C36.4445 28.7232 37.4136 29.1246 37.9814 28.5568L40.73 25.8081C41.2387 25.2995 41.2387 24.4766 40.73 23.9679L37.9814 21.2192C37.4136 20.6515 36.4445 21.0544 36.4445 21.8555V23.3317H33.3334C32.4747 23.3317 31.7778 24.027 31.7778 24.8872C31.7778 25.7475 32.4747 26.4444 33.3334 26.4444ZM19.4749 22.8495C19.9167 20.8864 21.5298 19.2655 23.4851 18.8144C25.1838 18.427 26.8451 18.7972 28.1674 19.8504C29.4725 20.8926 30.2207 22.445 30.2207 24.111C30.2207 25.7288 29.5005 27.2532 28.2436 28.2892C27.5234 28.8835 27.1096 29.6924 27.1096 30.5137V31.1126C27.1096 31.9728 26.4127 32.6681 25.554 32.6681H23.9985C23.1398 32.6681 22.4429 31.9728 22.4429 31.1126V30.5121C22.4429 29.6908 22.0323 28.8835 21.3183 28.297C19.6958 26.9608 19.0083 24.9246 19.4749 22.8495ZM23.2938 25.8906C23.9051 26.3915 24.406 26.9841 24.7794 27.6359C25.1527 26.9857 25.6536 26.3915 26.2649 25.8875C26.8031 25.4441 27.1111 24.797 27.1111 24.1095C27.1111 23.3955 26.7891 22.7281 26.2291 22.2817C25.8076 21.9457 25.3176 21.7746 24.784 21.7746C24.588 21.7746 24.3858 21.7995 24.1805 21.8461C23.3809 22.0297 22.6934 22.7235 22.5114 23.5324C22.3045 24.4517 22.5891 25.3104 23.2938 25.8906ZM55.6976 29.2179C55.4083 29.711 54.8887 29.9848 54.3551 29.9848C54.0876 29.9848 53.8154 29.9164 53.568 29.7701L53.3549 29.6441C52.7529 30.2026 52.0265 30.6132 51.2207 30.8559V31.1095C51.2207 31.9697 50.5238 32.665 49.6651 32.665C48.8065 32.665 48.1096 31.9697 48.1096 31.1095V30.8559C47.3054 30.6132 46.5774 30.2026 45.9754 29.6441L45.7623 29.7701C45.5149 29.9164 45.2442 29.9848 44.9751 29.9848C44.4416 29.9848 43.922 29.711 43.6327 29.2179C43.1971 28.4775 43.4445 27.5239 44.1849 27.0884L44.3934 26.9655C44.2907 26.547 44.2191 26.1161 44.2191 25.6666C44.2191 25.217 44.2891 24.7861 44.3934 24.3677L44.1849 24.2448C43.4445 23.8092 43.1971 22.8541 43.6327 22.1152C44.0683 21.3717 45.0218 21.1259 45.7623 21.563L45.9754 21.689C46.5774 21.1306 47.3038 20.7199 48.1096 20.4772V20.2237C48.1096 19.3635 48.8065 18.6681 49.6651 18.6681C50.5238 18.6681 51.2207 19.3635 51.2207 20.2237V20.4772C52.0249 20.7199 52.7529 21.1306 53.3549 21.689L53.568 21.563C54.3085 21.129 55.262 21.3732 55.6976 22.1152C56.1331 22.8557 55.8858 23.8092 55.1454 24.2448L54.9369 24.3677C55.0396 24.7861 55.1111 25.217 55.1111 25.6666C55.1111 26.1161 55.0411 26.547 54.9369 26.9655L55.1454 27.0884C55.8858 27.5239 56.1331 28.479 55.6976 29.2179ZM52 25.6666C52 24.3801 50.9531 23.3332 49.6667 23.3332C48.3803 23.3332 47.3334 24.3801 47.3334 25.6666C47.3334 26.953 48.3803 27.9999 49.6667 27.9999C50.9531 27.9999 52 26.953 52 25.6666Z" fill="white"/>
</g>
<defs>
<linearGradient id="paint0_linear_1_3008" x1="37.9998" y1="0" x2="37.9998" y2="74.6667" gradientUnits="userSpaceOnUse">
<stop stop-color="#153C3B"/>
<stop offset="1" stop-color="#64BBB9"/>
</linearGradient>
<clipPath id="clip0_1_3008">
<rect width="37.3333" height="37.3333" fill="white" transform="translate(19.3335 18.6665)"/>
</clipPath>
</defs>
</svg>
