<svg width="48" height="48" viewBox="0 0 48 48" fill="none" xmlns="http://www.w3.org/2000/svg">
<circle cx="23.83" cy="23.6711" r="23.145" stroke="#3B6C71" stroke-width="1.05205"/>
<path d="M37.0981 16.102C36.7733 14.8947 35.8215 13.9431 34.6144 13.618C32.4093 13.0146 23.5885 13.0146 23.5885 13.0146C23.5885 13.0146 14.768 13.0146 12.5628 13.5951C11.379 13.9199 10.4039 14.8949 10.0792 16.102C9.4989 18.307 9.4989 22.8798 9.4989 22.8798C9.4989 22.8798 9.4989 27.4757 10.0792 29.6577C10.4043 30.8647 11.3558 31.8164 12.563 32.1415C14.7912 32.745 23.5888 32.745 23.5888 32.745C23.5888 32.745 32.4093 32.745 34.6144 32.1645C35.8217 31.8396 36.7733 30.888 37.0984 29.6809C37.6786 27.4757 37.6786 22.903 37.6786 22.903C37.6786 22.903 37.7018 18.307 37.0981 16.102ZM20.7801 27.1044V18.6553L28.1151 22.8798L20.7801 27.1044Z" fill="#16A7A7"/>
</svg>
